SplineFontDB: 3.0
FontName: OxygenSans-Regular
FullName: OxygenSans Regular
FamilyName: OxygenSans
Weight: Regular
Copyright: Copyright (c) 2011-12 by vernon adams. All rights reserved.
Version: 0.2.3
ItalicAngle: 0
UnderlinePosition: -22
UnderlineWidth: 0
Ascent: 1638
Descent: 410
UFOAscent: 1638
UFODescent: -410
LayerCount: 2
Layer: 0 0 "Back"  1
Layer: 1 0 "Fore"  0
FSType: 256
OS2Version: 0
OS2_WeightWidthSlopeOnly: 0
OS2_UseTypoMetrics: 0
CreationTime: 1345291205
ModificationTime: 1352090343
PfmFamily: 33
TTFWeight: 400
TTFWidth: 5
LineGap: 0
VLineGap: 0
OS2TypoAscent: 2035
OS2TypoAOffset: 0
OS2TypoDescent: -672
OS2TypoDOffset: 0
OS2TypoLinegap: 0
OS2WinAscent: 2035
OS2WinAOffset: 0
OS2WinDescent: 672
OS2WinDOffset: 0
HheadAscent: 2035
HheadAOffset: 0
HheadDescent: -672
HheadDOffset: 0
OS2Vendor: 'newt'
Lookup: 258 0 0 "'kern' Horizontal Kerning in Latin lookup 0"  {"'kern' Horizontal Kerning lookup 1 kerning class 1" [307,0,0] } ['kern' ('DFLT' <'dflt' > 'latn' <'dflt' > ) ]
MarkAttachClasses: 1
DEI: 91125
KernClass2: 30 28 "'kern' Horizontal Kerning lookup 1 kerning class 1" 
 81 A Aacute Abreve Acircumflex Adieresis Agrave Amacron Aogonek Aring Atilde uni0202
 1 B
 1 C
 75 D Eth O Oacute Ocircumflex Odieresis Ograve Oslash Otilde Q uni020C uni020E
 1 F
 1 K
 1 L
 1 P
 1 R
 1 S
 9 T uni021A
 45 U Uacute Ucircumflex Udieresis Ugrave uni0216
 1 V
 1 W
 18 Y Yacute Ydieresis
 69 b o oacute ocircumflex odieresis ograve oslash otilde p thorn uni020F
 1 c
 1 e
 1 f
 1 h
 27 k kcommaaccent kgreenlandic
 1 n
 29 r rcaron rcommaaccent uni0213
 1 s
 9 t uni021B
 1 v
 1 w
 1 x
 18 y yacute ydieresis
 81 A Aacute Abreve Acircumflex Adieresis Agrave Amacron Aogonek Aring Atilde uni0202
 99 C Cacute Ccaron Ccedilla G O OE Oacute Ocircumflex Odieresis Ograve Oslash Otilde Q uni020C uni020E
 1 J
 9 T uni021A
 1 U
 1 V
 1 W
 1 X
 18 Y Yacute Ydieresis
 84 a aacute abreve acircumflex adieresis ae agrave amacron aogonek aring atilde uni0203

StartChar: .notdef
Encoding: 65536 -1 0
Width: 931
VWidth: 0
Flags: W
HStem: 0 93<186 746> 901 93<186 746>
VStem: 93 93<93 901> 746 93<93 901>
LayerCount: 2
UndoRedoHistory
Layer: 1
Undoes
UndoOperation
Index: 0
Type: 12
WasModified: 0
WasOrder2: 0
HStem: 0 93<186 746> 901 93<186 746>
VStem: 93 93<93 901> 746 93<93 901>
EndUndoOperation
EndUndoes
Redoes
EndRedoes
EndUndoRedoHistory
Fore
SplineSet
186 93 m 1
 746 93 l 1
 746 901 l 1
 186 901 l 1
 186 93 l 1
93 0 m 1
 93 994 l 1
 839 994 l 1
 839 0 l 1
 93 0 l 1
EndSplineSet
Validated: 1
EndChar

StartChar: A
Encoding: 33 65 1
Width: 1283
VWidth: 0
Flags: W
HStem: 0 21G<37 222.442 1070.6 1246> 430 131<426 870> 1370 20G<533.748 750.237>
DStem2: 37 0 215 0 0.340874 0.940109<60.6756 519.462 660.001 1355.64> 743 1390 641 1223 0.340276 -0.940326<122.326 822.745 962.601 1421.05>
LayerCount: 2
UndoRedoHistory
Layer: 1
Undoes
UndoOperation
Index: 0
Type: 12
WasModified: 0
WasOrder2: 0
HStem: 0 21G<37 222.442 1070.6 1246> 430 131<426 870> 1370 20G<533.748 750.237>
EndUndoOperation
UndoOperation
Index: 1
Type: 3
WasModified: 1
WasOrder2: 0
EndUndoOperation
UndoOperation
Index: 2
Type: 3
WasModified: 1
WasOrder2: 0
EndUndoOperation
UndoOperation
Index: 3
Type: 3
WasModified: 1
WasOrder2: 0
EndUndoOperation
UndoOperation
Index: 4
Type: 3
WasModified: 1
WasOrder2: 0
EndUndoOperation
UndoOperation
Index: 5
Type: 3
WasModified: 1
WasOrder2: 0
EndUndoOperation
UndoOperation
Index: 6
Type: 3
WasModified: 1
WasOrder2: 0
EndUndoOperation
UndoOperation
Index: 7
Type: 7
WasModified: 1
WasOrder2: 0
Width: 1276
EndUndoOperation
UndoOperation
Index: 8
Type: 7
WasModified: 1
WasOrder2: 0
Width: 1275
EndUndoOperation
UndoOperation
Index: 9
Type: 7
WasModified: 1
WasOrder2: 0
Width: 1274
EndUndoOperation
UndoOperation
Index: 10
Type: 7
WasModified: 1
WasOrder2: 0
Width: 1273
EndUndoOperation
UndoOperation
Index: 11
Type: 7
WasModified: 1
WasOrder2: 0
Width: 1272
EndUndoOperation
EndUndoes
Redoes
EndRedoes
EndUndoRedoHistory
Fore
SplineSet
37 0 m 1
 541 1390 l 5
 743 1390 l 5
 1246 0 l 1
 1078 0 l 1
 919 430 l 5
 375 430 l 5
 215 0 l 1
 37 0 l 1
426 561 m 5
 870 561 l 5
 641 1223 l 5
 426 561 l 5
EndSplineSet
EndChar

StartChar: AE
Encoding: 131 198 2
Width: 1918
VWidth: 0
Flags: W
HStem: 0 144<1228 1795> 389 147<536 1035> 659 144<1189 1745> 1282 145<1136 1777>
DStem2: 84 0 241 0 0.504134 0.863625<79.1491 525.505 690.772 1558.37> 1136 1282 979 1282 0.0808576 -0.996726<0 480.262 625.246 735.391 883.527 1141.71>
LayerCount: 2
UndoRedoHistory
Layer: 1
Undoes
UndoOperation
Index: 0
Type: 12
WasModified: 0
WasOrder2: 0
EndUndoOperation
EndUndoes
Redoes
EndRedoes
EndUndoRedoHistory
Fore
SplineSet
1035 536 m 1
 979 1282 l 1
 536 536 l 1
 1035 536 l 1
1136 1282 m 1
 1171 803 l 1
 1745 803 l 1
 1745 659 l 1
 1189 659 l 1
 1228 144 l 1
 1795 144 l 1
 1795 0 l 1
 1083 0 l 1
 1055 389 l 1
 460 389 l 1
 241 0 l 1
 84 0 l 1
 917 1427 l 1
 1777 1427 l 1
 1777 1282 l 1
 1136 1282 l 1
EndSplineSet
Validated: 1
EndChar

StartChar: Alpha
Encoding: 65538 913 9
Width: 1344
VWidth: 0
Flags: W
HStem: 0 21G<90 271.302 1082.79 1255> 430 131<474 885> 1326 20G<566.808 779.177>
DStem2: 90 0 264 0 0.338373 0.941012<58.8769 516.637 657.843 1312.97> 772 1346 672 1186 0.337754 -0.941235<116.822 777.035 917.225 1374.31>
LayerCount: 2
UndoRedoHistory
Layer: 1
Undoes
UndoOperation
Index: 0
Type: 12
WasModified: 0
WasOrder2: 0
EndUndoOperation
EndUndoes
Redoes
EndRedoes
EndUndoRedoHistory
Fore
SplineSet
1090 0 m 1
 935 430 l 1
 421 430 l 1
 264 0 l 1
 90 0 l 1
 574 1346 l 1
 772 1346 l 1
 1255 0 l 1
 1090 0 l 1
474 561 m 1
 885 561 l 1
 885 561 692 1117 672 1186 c 1
 654 1126 474 561 474 561 c 1
EndSplineSet
Validated: 1
EndChar

StartChar: Alphatonos
Encoding: 65539 902 10
Width: 451
VWidth: 0
Flags: W
HStem: 484 240<127.069 319.268>
VStem: 102 242<509.684 698.316>
LayerCount: 2
UndoRedoHistory
Layer: 1
Undoes
UndoOperation
Index: 0
Type: 12
WasModified: 0
WasOrder2: 0
EndUndoOperation
EndUndoes
Redoes
EndRedoes
EndUndoRedoHistory
Fore
SplineSet
223 484 m 0
 143 484 102 544 102 604 c 0
 102 664 143 724 223 724 c 0
 304 724 344 664 344 604 c 0
 344 544 304 484 223 484 c 0
EndSplineSet
Validated: 1
EndChar

StartChar: B
Encoding: 34 66 16
Width: 1235
VWidth: 0
Flags: W
HStem: 0 129<339 835.439> 671 126<339 828.987> 1257 133<339 822.948>
VStem: 178 161<129 671 797 1257> 923 168<882.734 1167.7> 974 168<258.647 567.222>
LayerCount: 2
UndoRedoHistory
Layer: 1
Undoes
UndoOperation
Index: 0
Type: 12
WasModified: 0
WasOrder2: 0
HStem: 0 129<339 835.439> 671 126<339 828.987> 1257 133<339 822.948>
VStem: 178 161<129 671 797 1257> 923 168<882.734 1167.7> 974 168<258.647 567.222>
EndUndoOperation
EndUndoes
Redoes
EndRedoes
EndUndoRedoHistory
Fore
SplineSet
339 797 m 1xf8
 632 797 l 2
 809 797 923 854 923 1031 c 0
 923 1208 795 1257 563 1257 c 2
 339 1257 l 1
 339 797 l 1xf8
339 129 m 1
 625 129 l 2
 856 129 974 239 974 419 c 0xf4
 974 611 842 671 587 671 c 2
 339 671 l 1
 339 129 l 1
178 0 m 1
 178 1390 l 1
 571 1390 l 2
 919 1390 1091 1289 1091 1055 c 0xf8
 1091 989 1074 809 861 743 c 1
 1052 708 1142 574 1142 413 c 0
 1142 175 984 0 657 0 c 2
 178 0 l 1
EndSplineSet
Validated: 1
EndChar

StartChar: Beta
Encoding: 65541 914 17
Width: 1201
VWidth: 0
Flags: W
HStem: 0 129<294 792.941> 641 126<294 785.046> 1213 133<294 768.969>
VStem: 136 158<129 641 767 1213> 867 165<847.058 1127> 917 165<236.731 537.222>
LayerCount: 2
UndoRedoHistory
Layer: 1
Undoes
UndoOperation
Index: 0
Type: 12
WasModified: 0
WasOrder2: 0
EndUndoOperation
EndUndoes
Redoes
EndRedoes
EndUndoRedoHistory
Fore
SplineSet
294 1213 m 1xf8
 294 767 l 1
 582 767 l 2
 756 767 867 814 867 991 c 0
 867 1168 741 1213 514 1213 c 2
 294 1213 l 1xf8
294 641 m 1
 294 129 l 1
 575 129 l 2
 801 129 917 209 917 389 c 0xf4
 917 581 787 641 537 641 c 2
 294 641 l 1
136 0 m 1
 136 1346 l 1
 522 1346 l 2
 863 1346 1032 1249 1032 1015 c 0xf8
 1032 949 1015 779 806 713 c 1
 993 678 1082 544 1082 383 c 0
 1082 145 927 0 606 0 c 2
 136 0 l 1
EndSplineSet
Validated: 1
EndChar

StartChar: C
Encoding: 35 67 18
Width: 1252
VWidth: 0
Flags: W
HStem: -18 138<569.569 1029.56> 1275 138<550.15 1008.7>
VStem: 103 172<451.674 974.477>
LayerCount: 2
UndoRedoHistory
Layer: 1
Undoes
UndoOperation
Index: 0
Type: 12
WasModified: 0
WasOrder2: 0
HStem: -18 138<569.569 1029.56> 1275 138<550.15 1008.7>
VStem: 103 172<451.674 974.477>
EndUndoOperation
EndUndoes
Redoes
EndRedoes
EndUndoRedoHistory
Fore
SplineSet
743 -18 m 1
 349 -12 103 310 103 725 c 0
 103 1130 349 1413 761 1413 c 0
 923 1413 1050 1377 1151 1313 c 1
 1097 1189 l 1
 1006 1243 885 1275 763 1275 c 0
 446 1275 275 1038 275 719 c 0
 275 401 441 120 779 120 c 0
 896 120 1006 149 1105 196 c 1
 1131 68 l 1
 1066 28 914 -18 743 -18 c 1
EndSplineSet
Validated: 1
EndChar

StartChar: Chi
Encoding: 65542 935 24
Width: 1279
VWidth: 0
Flags: W
HStem: 0 21G<104 299.137 985.827 1181> 1326 20G<104 299.434 985.528 1181>
VStem: 104 182<0 182 1164 1346> 999 182<0 182 1164 1346>
DStem2: 286 1346 104 1346 0.5537 -0.832716<0 638.457 866.621 1515.62> 104 0 286 0 0.5537 0.832716<100.773 749.223 977.387 1616.4>
LayerCount: 2
UndoRedoHistory
Layer: 1
Undoes
UndoOperation
Index: 0
Type: 12
WasModified: 0
WasOrder2: 0
EndUndoOperation
EndUndoes
Redoes
EndRedoes
EndUndoRedoHistory
Fore
SplineSet
733 679 m 1
 1181 0 l 1
 999 0 l 1
 642 542 l 1
 286 0 l 1
 104 0 l 1
 551 679 l 1
 104 1346 l 1
 286 1346 l 1
 642 816 l 1
 999 1346 l 1
 1181 1346 l 1
 733 679 l 1
EndSplineSet
Validated: 1
EndChar

StartChar: D
Encoding: 36 68 25
Width: 1410
VWidth: 0
Flags: W
HStem: 0 137<356 830.308> 1252 138<356 823.963>
VStem: 178 178<137 1252> 1129 178<433.236 955.548>
LayerCount: 2
UndoRedoHistory
Layer: 1
Undoes
UndoOperation
Index: 0
Type: 12
WasModified: 0
WasOrder2: 0
HStem: 0 137<356 830.308> 1252 138<356 823.963>
VStem: 178 178<137 1252> 1129 178<433.236 955.548>
EndUndoOperation
EndUndoes
Redoes
EndRedoes
EndUndoRedoHistory
Fore
SplineSet
178 0 m 1
 178 1390 l 1
 558 1390 l 2
 1008 1390 1307 1166 1307 698 c 0
 1307 253 1034 0 586 0 c 2
 178 0 l 1
356 1252 m 1
 356 137 l 1
 581 137 l 2
 939 137 1129 340 1129 694 c 0
 1129 1082 919 1252 554 1252 c 2
 356 1252 l 1
EndSplineSet
Validated: 1
EndChar

StartChar: Dcroat
Encoding: 65543 272 27
Width: 1490
VWidth: 0
Flags: W
HStem: 0 141<384 914.52> 634 123<116 223 384 604> 1220 141<384 886.312>
VStem: 223 161<141 634 757 1220> 1202 172<424.86 932.886>
LayerCount: 2
UndoRedoHistory
Layer: 1
Undoes
UndoOperation
Index: 0
Type: 12
WasModified: 0
WasOrder2: 0
EndUndoOperation
EndUndoes
Redoes
EndRedoes
EndUndoRedoHistory
Fore
SplineSet
223 757 m 1
 223 1361 l 1
 561 1361 l 2
 1031 1361 1374 1197 1374 672 c 0
 1374 219 1084 0 654 0 c 2
 223 0 l 1
 223 634 l 1
 116 634 l 1
 116 757 l 1
 223 757 l 1
384 634 m 1
 384 141 l 1
 671 141 l 2
 1004 141 1202 316 1202 668 c 0
 1202 1097 953 1220 581 1220 c 2
 384 1220 l 1
 384 757 l 1
 604 757 l 1
 604 634 l 1
 384 634 l 1
EndSplineSet
Validated: 1
EndChar

StartChar: Delta
Encoding: 65544 916 28
Width: 1347
VWidth: 0
Flags: W
HStem: 0 141<309 1044> 1341 20G<582.652 765.362>
LayerCount: 2
UndoRedoHistory
Layer: 1
Undoes
UndoOperation
Index: 0
Type: 12
WasModified: 0
WasOrder2: 0
EndUndoOperation
EndUndoes
Redoes
EndRedoes
EndUndoRedoHistory
Fore
SplineSet
1044 141 m 1
 674 1188 l 1
 309 141 l 1
 1044 141 l 1
90 0 m 1
 590 1361 l 1
 758 1361 l 1
 1259 0 l 1
 90 0 l 1
EndSplineSet
Validated: 1
EndChar

StartChar: E
Encoding: 37 69 29
Width: 1114
VWidth: 0
Flags: W
HStem: 0 139<356 988> 662 137<356 936> 1251 139<356 989>
VStem: 178 178<139 662 799 1251>
LayerCount: 2
UndoRedoHistory
Layer: 1
Undoes
UndoOperation
Index: 0
Type: 12
WasModified: 0
WasOrder2: 0
HStem: 0 139<356 988> 662 137<356 936> 1251 139<356 989>
VStem: 178 178<139 662 799 1251>
EndUndoOperation
EndUndoes
Redoes
EndRedoes
EndUndoRedoHistory
Fore
SplineSet
356 1251 m 1
 356 799 l 1
 936 799 l 1
 936 662 l 1
 356 662 l 1
 356 139 l 1
 996 139 l 1
 988 0 l 1
 178 0 l 1
 178 1390 l 1
 996 1390 l 1
 989 1251 l 1
 356 1251 l 1
EndSplineSet
Validated: 1
EndChar

StartChar: Eng
Encoding: 429 330 38
Width: 1292
VWidth: 0
Flags: W
HStem: -298 139<587 938.76> 0 21G<137.971 298> 1236 147<535.128 911.716> 1341 20G<136 283.658>
VStem: 136 146<1188.07 1361> 138 160<0 1044.68> 1001 159<-94.5 1139.29>
LayerCount: 2
UndoRedoHistory
Layer: 1
Undoes
UndoOperation
Index: 0
Type: 12
WasModified: 0
WasOrder2: 0
EndUndoOperation
EndUndoes
Redoes
EndRedoes
EndUndoRedoHistory
Fore
SplineSet
769 -298 m 0xe6
 744 -298 698 -297 587 -286 c 1
 566 -151 l 1
 690 -158 709 -159 728 -159 c 0
 980 -159 1001 -92 1001 156 c 2
 1001 913 l 2
 1001 1155 934 1236 737 1236 c 0
 539 1236 384 1121 298 991 c 1
 298 0 l 1
 138 0 l 1xe6
 136 1361 l 1
 282 1361 l 1xda
 298 1168 l 1
 463 1346 627 1383 785 1383 c 0
 1032 1383 1160 1220 1160 918 c 2
 1160 150 l 2
 1160 -130 1098 -298 769 -298 c 0xe6
EndSplineSet
Validated: 1
EndChar

StartChar: Epsilon
Encoding: 65545 917 40
Width: 1074
VWidth: 0
Flags: W
HStem: 0 139<311 945> 629 137<311 894> 1207 139<311 945>
VStem: 136 175<139 629 766 1207>
LayerCount: 2
UndoRedoHistory
Layer: 1
Undoes
UndoOperation
Index: 0
Type: 12
WasModified: 0
WasOrder2: 0
EndUndoOperation
EndUndoes
Redoes
EndRedoes
EndUndoRedoHistory
Fore
SplineSet
311 1207 m 1
 311 766 l 1
 894 766 l 1
 894 629 l 1
 311 629 l 1
 311 139 l 1
 952 139 l 1
 945 0 l 1
 136 0 l 1
 136 1346 l 1
 952 1346 l 1
 945 1207 l 1
 311 1207 l 1
EndSplineSet
Validated: 1
EndChar

StartChar: Epsilontonos
Encoding: 65546 904 41
Width: 451
VWidth: 0
Flags: W
HStem: 484 240<127.069 319.268>
VStem: 102 242<509.684 698.316>
LayerCount: 2
UndoRedoHistory
Layer: 1
Undoes
UndoOperation
Index: 0
Type: 12
WasModified: 0
WasOrder2: 0
EndUndoOperation
EndUndoes
Redoes
EndRedoes
EndUndoRedoHistory
Fore
SplineSet
223 484 m 0
 143 484 102 544 102 604 c 0
 102 664 143 724 223 724 c 0
 304 724 344 664 344 604 c 0
 344 544 304 484 223 484 c 0
EndSplineSet
Validated: 1
EndChar

StartChar: Eta
Encoding: 65547 919 42
Width: 1320
VWidth: 0
Flags: W
HStem: 0 21G<136 311 1010 1185> 630 138<311 1010> 1326 20G<136 311 1010 1185>
VStem: 136 175<0 630 768 1346> 1010 175<0 630 768 1346>
LayerCount: 2
UndoRedoHistory
Layer: 1
Undoes
UndoOperation
Index: 0
Type: 12
WasModified: 0
WasOrder2: 0
EndUndoOperation
EndUndoes
Redoes
EndRedoes
EndUndoRedoHistory
Fore
SplineSet
1010 768 m 1
 1010 1346 l 1
 1185 1346 l 1
 1185 0 l 1
 1010 0 l 1
 1010 630 l 1
 311 630 l 1
 311 0 l 1
 136 0 l 1
 136 1346 l 1
 311 1346 l 1
 311 768 l 1
 1010 768 l 1
EndSplineSet
Validated: 1
EndChar

StartChar: Etatonos
Encoding: 65548 905 43
Width: 451
VWidth: 0
Flags: W
HStem: 484 240<127.069 319.268>
VStem: 102 242<509.684 698.316>
LayerCount: 2
UndoRedoHistory
Layer: 1
Undoes
UndoOperation
Index: 0
Type: 12
WasModified: 0
WasOrder2: 0
EndUndoOperation
EndUndoes
Redoes
EndRedoes
EndUndoRedoHistory
Fore
SplineSet
223 484 m 0
 143 484 102 544 102 604 c 0
 102 664 143 724 223 724 c 0
 304 724 344 664 344 604 c 0
 344 544 304 484 223 484 c 0
EndSplineSet
Validated: 1
EndChar

StartChar: Eth
Encoding: 141 208 44
Width: 1490
VWidth: 0
Flags: W
HStem: 0 141<384 914.52> 634 123<116 223 384 604> 1220 141<384 886.312>
VStem: 223 161<141 634 757 1220> 1202 172<424.86 932.886>
LayerCount: 2
UndoRedoHistory
Layer: 1
Undoes
UndoOperation
Index: 0
Type: 12
WasModified: 0
WasOrder2: 0
EndUndoOperation
EndUndoes
Redoes
EndRedoes
EndUndoRedoHistory
Fore
SplineSet
223 757 m 1
 223 1361 l 1
 561 1361 l 2
 1031 1361 1374 1197 1374 672 c 0
 1374 219 1084 0 654 0 c 2
 223 0 l 1
 223 634 l 1
 116 634 l 1
 116 757 l 1
 223 757 l 1
384 634 m 1
 384 141 l 1
 671 141 l 2
 1004 141 1202 316 1202 668 c 0
 1202 1097 953 1220 581 1220 c 2
 384 1220 l 1
 384 757 l 1
 604 757 l 1
 604 634 l 1
 384 634 l 1
EndSplineSet
Validated: 1
EndChar

StartChar: Euro
Encoding: 402 8364 45
Width: 1125
VWidth: 0
Flags: W
HStem: -20 143<587.6 920.296> 63 159<846 1005> 528 94<126 210 396 871> 769 102<127 213 401 894> 1246 141<594.299 923.137>
VStem: 208 172<622 769>
LayerCount: 2
UndoRedoHistory
Layer: 1
Undoes
UndoOperation
Index: 0
Type: 12
WasModified: 0
WasOrder2: 0
EndUndoOperation
EndUndoes
Redoes
EndRedoes
EndUndoRedoHistory
Fore
SplineSet
725 -20 m 0xbc
 408 -20 260 261 221 528 c 1
 111 528 l 1
 126 622 l 1
 210 622 l 1
 209 637 208 650 208 665 c 0
 208 700 211 735 213 769 c 1
 110 769 l 1
 127 871 l 1
 228 871 l 1
 274 1172 441 1387 739 1387 c 0
 852 1387 936 1359 1005 1300 c 1
 1004 1137 l 1
 943 1203 858 1246 759 1246 c 0
 552 1246 438 1095 401 871 c 1
 909 871 l 1
 894 769 l 1
 385 769 l 1
 380 724 382 623 380 622 c 1
 880 622 l 1
 871 528 l 1
 396 528 l 1
 421 314 528 123 743 123 c 0xbc
 830 123 918 154 1005 222 c 1
 1004 63 l 1x7c
 924 5 833 -20 725 -20 c 0xbc
EndSplineSet
Validated: 1
EndChar

StartChar: F
Encoding: 38 70 46
Width: 1027
VWidth: 0
Flags: W
HStem: 0 21G<178 357> 657 133<357 891> 1251 139<357 946>
VStem: 178 179<0 657 790 1251>
LayerCount: 2
UndoRedoHistory
Layer: 1
Undoes
UndoOperation
Index: 0
Type: 12
WasModified: 0
WasOrder2: 0
HStem: 0 21G<178 357> 657 133<357 891> 1251 139<357 946>
VStem: 178 179<0 657 790 1251>
EndUndoOperation
EndUndoes
Redoes
EndRedoes
EndUndoRedoHistory
Fore
SplineSet
357 1251 m 1
 357 790 l 1
 891 790 l 1
 891 657 l 1
 357 657 l 1
 357 0 l 1
 178 0 l 1
 178 1390 l 1
 957 1390 l 1
 946 1251 l 1
 357 1251 l 1
EndSplineSet
Validated: 1
EndChar

StartChar: G
Encoding: 39 71 47
Width: 1425
VWidth: 0
Flags: W
HStem: -18 138<552.923 1092.23> 579 137<774 1095> 1275 138<574.248 1086.88>
VStem: 103 178<420.332 964.08> 1095 178<138.567 579>
LayerCount: 2
UndoRedoHistory
Layer: 0
Undoes
UndoOperation
Index: 0
Type: 12
WasModified: 0
WasOrder2: 0
HStem: -18 138<552.923 1092.23> 579 137<774 1095> 1275 138<574.248 1086.88>
VStem: 103 178<420.332 964.08> 1095 178<138.567 579>
EndUndoOperation
EndUndoes
Redoes
EndRedoes
EndUndoRedoHistory
Back
SplineSet
742 120 m 4
 1060 120 1207 349 1207 667 c 4
 1207 997 1054 1228 743 1228 c 4
 432 1228 276 998 276 667 c 4
 276 349 424 120 742 120 c 4
1382 667 m 4
 1382 257 1152 -18 742 -18 c 4
 327 -18 101 251 101 668 c 4
 101 1095 335 1366 743 1366 c 4
 1144 1366 1382 1092 1382 667 c 4
EndSplineSet
Fore
SplineSet
768 -18 m 0
 308 -18 103 291 103 692 c 0
 103 1098 319 1413 800 1413 c 4
 961 1413 1129 1380 1242 1307 c 5
 1192 1185 l 5
 1148 1208 1021 1275 800 1275 c 4
 425 1275 281 1011 281 692 c 0
 281 361 428 120 778 120 c 0
 883 120 1037 131 1095 147 c 1
 1095 579 l 1
 766 579 l 1
 774 716 l 1
 1273 716 l 1
 1273 59 l 1
 1130 4 956 -18 768 -18 c 0
EndSplineSet
Validated: 1
EndChar

StartChar: Gamma
Encoding: 65549 915 48
Width: 1005
VWidth: 0
Flags: W
HStem: 0 21G<136 298> 1220 141<298 916>
VStem: 136 162<0 1220>
LayerCount: 2
UndoRedoHistory
Layer: 1
Undoes
UndoOperation
Index: 0
Type: 12
WasModified: 0
WasOrder2: 0
EndUndoOperation
EndUndoes
Redoes
EndRedoes
EndUndoRedoHistory
Fore
SplineSet
298 1220 m 1
 298 0 l 1
 136 0 l 1
 136 1361 l 1
 930 1361 l 1
 916 1220 l 1
 298 1220 l 1
EndSplineSet
Validated: 1
EndChar

StartChar: H
Encoding: 40 72 54
Width: 1435
VWidth: 0
Flags: W
HStem: 0 21G<178 356 1079 1257> 634 132<356 1079> 1370 20G<178 356 1079 1257>
VStem: 178 178<0 634 766 1390> 1079 178<0 634 766 1390>
LayerCount: 2
UndoRedoHistory
Layer: 1
Undoes
UndoOperation
Index: 0
Type: 12
WasModified: 0
WasOrder2: 0
HStem: 0 21G<178 356 1079 1257> 634 132<356 1079> 1370 20G<178 356 1079 1257>
VStem: 178 178<0 634 766 1390> 1079 178<0 634 766 1390>
EndUndoOperation
EndUndoes
Redoes
EndRedoes
EndUndoRedoHistory
Fore
SplineSet
356 766 m 1
 1079 766 l 1
 1079 1390 l 1
 1257 1390 l 1
 1257 0 l 1
 1079 0 l 1
 1079 634 l 1
 356 634 l 1
 356 0 l 1
 178 0 l 1
 178 1390 l 1
 356 1390 l 1
 356 766 l 1
EndSplineSet
Validated: 1
EndChar

StartChar: Hbar
Encoding: 227 294 55
Width: 1458
VWidth: 0
Flags: W
HStem: 0 21G<196 357 1100 1261> 633 139<357 1100> 1043 95<114 196 357 1100 1261 1343> 1341 20G<196 357 1100 1261>
VStem: 196 161<0 633 772 1043 1138 1361> 1100 161<0 633 772 1043 1138 1361>
LayerCount: 2
UndoRedoHistory
Layer: 1
Undoes
UndoOperation
Index: 0
Type: 12
WasModified: 0
WasOrder2: 0
EndUndoOperation
EndUndoes
Redoes
EndRedoes
EndUndoRedoHistory
Fore
SplineSet
357 772 m 1
 1100 772 l 1
 1100 1043 l 1
 357 1043 l 1
 357 772 l 1
196 1138 m 1
 196 1361 l 1
 357 1361 l 1
 357 1138 l 1
 1100 1138 l 1
 1100 1361 l 1
 1261 1361 l 1
 1261 1138 l 1
 1343 1138 l 1
 1343 1043 l 1
 1261 1043 l 1
 1261 0 l 1
 1100 0 l 1
 1100 633 l 1
 357 633 l 1
 357 0 l 1
 196 0 l 1
 196 1043 l 1
 114 1043 l 1
 114 1138 l 1
 196 1138 l 1
EndSplineSet
Validated: 1
EndChar

StartChar: I
Encoding: 41 73 57
Width: 557
VWidth: 0
Flags: W
HStem: 0 21G<196 375> 1370 20G<196 375>
VStem: 196 179<0 1390>
LayerCount: 2
UndoRedoHistory
Layer: 1
Undoes
UndoOperation
Index: 0
Type: 12
WasModified: 0
WasOrder2: 0
HStem: 0 21G<196 375> 1370 20G<196 375>
VStem: 196 179<0 1390>
EndUndoOperation
EndUndoes
Redoes
EndRedoes
EndUndoRedoHistory
Fore
SplineSet
196 0 m 1
 196 1390 l 1
 375 1390 l 1
 375 0 l 1
 196 0 l 1
EndSplineSet
EndChar

StartChar: Iota
Encoding: 65551 921 67
Width: 446
VWidth: 0
Flags: W
HStem: 0 21G<136 311> 1326 20G<136 311>
VStem: 136 175<0 1346>
LayerCount: 2
UndoRedoHistory
Layer: 1
Undoes
UndoOperation
Index: 0
Type: 12
WasModified: 0
WasOrder2: 0
EndUndoOperation
EndUndoes
Redoes
EndRedoes
EndUndoRedoHistory
Fore
SplineSet
136 0 m 1
 136 1346 l 1
 311 1346 l 1
 311 0 l 1
 136 0 l 1
EndSplineSet
Validated: 1
EndChar

StartChar: Iotatonos
Encoding: 65553 906 69
Width: 451
VWidth: 0
Flags: W
HStem: 484 240<127.069 319.268>
VStem: 102 242<509.684 698.316>
LayerCount: 2
UndoRedoHistory
Layer: 1
Undoes
UndoOperation
Index: 0
Type: 12
WasModified: 0
WasOrder2: 0
EndUndoOperation
EndUndoes
Redoes
EndRedoes
EndUndoRedoHistory
Fore
SplineSet
223 484 m 0
 143 484 102 544 102 604 c 0
 102 664 143 724 223 724 c 0
 304 724 344 664 344 604 c 0
 344 544 304 484 223 484 c 0
EndSplineSet
Validated: 1
EndChar

StartChar: J
Encoding: 42 74 71
Width: 678
VWidth: 0
Flags: W
HStem: -192 147<93 263.778> 1388 20G<321 499>
VStem: 321 178<8.55027 1408>
LayerCount: 2
UndoRedoHistory
Layer: 1
Undoes
UndoOperation
Index: 0
Type: 12
WasModified: 0
WasOrder2: 0
HStem: -192 147<93 263.778> 1388 20G<321 499>
VStem: 321 178<8.55027 1408>
EndUndoOperation
EndUndoes
Redoes
EndRedoes
EndUndoRedoHistory
Fore
SplineSet
93 -192 m 1
 79 -45 l 1
 317 -45 321 51 321 186 c 2
 321 1408 l 1
 499 1408 l 1
 499 219 l 2
 499 -61 452 -192 93 -192 c 1
EndSplineSet
EndChar

StartChar: K
Encoding: 43 75 73
Width: 1234
VWidth: 0
Flags: W
HStem: 0 21G<178 356 994.911 1220> 1369 20G<178 356 930.381 1173>
VStem: 178 178<0 568 752 1389> 949 224<1165 1389> 1011 209<0 209>
DStem2: 356 752 603 763 0.681376 0.731933<176.351 870.298> 603 763 468 675 0.628788 -0.777577<0 849.837>
LayerCount: 2
UndoRedoHistory
Layer: 1
Undoes
UndoOperation
Index: 0
Type: 12
WasModified: 0
WasOrder2: 0
HStem: 0 21G<178 356 994.911 1220> 1369 20G<178 356 930.381 1173>
VStem: 178 178<0 568 752 1389>
EndUndoOperation
EndUndoes
Redoes
EndRedoes
EndUndoRedoHistory
Fore
SplineSet
949 1389 m 1xf0
 1173 1389 l 1xf0
 603 763 l 1
 1220 0 l 1
 1011 0 l 1xe8
 468 675 l 1
 356 568 l 1
 356 0 l 1
 178 0 l 1
 178 1389 l 1
 356 1389 l 1
 356 752 l 1
 949 1389 l 1xf0
EndSplineSet
Validated: 1
EndChar

StartChar: Kappa
Encoding: 65554 922 74
Width: 1220
VWidth: 0
Flags: W
HStem: 0 21G<136 311 892.737 1127> 1326 20G<136 311 859.531 1098>
VStem: 136 175<0 543 732 1346> 878 220<1126 1346> 908 219<0 219>
DStem2: 311 732 553 743 0.678429 0.734666<172.261 835.754> 553 743 415 646 0.611357 -0.791355<0 805.009>
LayerCount: 2
UndoRedoHistory
Layer: 1
Undoes
UndoOperation
Index: 0
Type: 12
WasModified: 0
WasOrder2: 0
EndUndoOperation
EndUndoes
Redoes
EndRedoes
EndUndoRedoHistory
Fore
SplineSet
878 1346 m 1xf0
 1098 1346 l 1xf0
 553 743 l 1
 1127 0 l 1
 908 0 l 1xe8
 415 646 l 1
 311 543 l 1
 311 0 l 1
 136 0 l 1
 136 1346 l 1
 311 1346 l 1
 311 732 l 1
 878 1346 l 1xf0
EndSplineSet
Validated: 1
EndChar

StartChar: L
Encoding: 44 76 76
Width: 979
VWidth: 0
Flags: W
HStem: 0 140<357 938> 1370 20G<178 357>
VStem: 178 179<140 1390>
LayerCount: 2
UndoRedoHistory
Layer: 1
Undoes
UndoOperation
Index: 0
Type: 12
WasModified: 0
WasOrder2: 0
HStem: 0 140<357 938> 1370 20G<178 357>
VStem: 178 179<140 1390>
EndUndoOperation
EndUndoes
Redoes
EndRedoes
EndUndoRedoHistory
Fore
SplineSet
945 140 m 1
 938 0 l 1
 178 0 l 1
 178 1390 l 1
 357 1390 l 1
 357 140 l 1
 945 140 l 1
EndSplineSet
Validated: 1
EndChar

StartChar: Lambda
Encoding: 65555 923 78
Width: 1347
VWidth: 0
Flags: W
HStem: 0 21G<90 266.97 1086.93 1259> 1341 20G<582.652 765.362>
LayerCount: 2
UndoRedoHistory
Layer: 1
Undoes
UndoOperation
Index: 0
Type: 12
WasModified: 0
WasOrder2: 0
EndUndoOperation
EndUndoes
Redoes
EndRedoes
EndUndoRedoHistory
Fore
SplineSet
1094 0 m 1
 674 1188 l 1
 260 0 l 1
 90 0 l 1
 590 1361 l 1
 758 1361 l 1
 1259 0 l 1
 1094 0 l 1
EndSplineSet
Validated: 1
EndChar

StartChar: Lslash
Encoding: 254 321 82
Width: 1096
VWidth: 0
Flags: W
HStem: 0 141<407 994> 1341 20G<246 407>
VStem: 246 161<141 551 776 1361>
DStem2: 111 614 111 480 0.876638 0.481151<0 88.0335 337.431 632.08>
LayerCount: 2
UndoRedoHistory
Layer: 1
Undoes
UndoOperation
Index: 0
Type: 12
WasModified: 0
WasOrder2: 0
EndUndoOperation
EndUndoes
Redoes
EndRedoes
EndUndoRedoHistory
Fore
SplineSet
246 688 m 1
 246 1361 l 1
 407 1361 l 1
 407 776 l 1
 725 951 l 1
 725 809 l 1
 407 638 l 1
 407 141 l 1
 1005 141 l 1
 994 0 l 1
 246 0 l 1
 246 551 l 1
 111 480 l 1
 111 614 l 1
 246 688 l 1
EndSplineSet
Validated: 1
EndChar

StartChar: M
Encoding: 45 77 83
Width: 1663
VWidth: 0
Flags: W
HStem: 0 21G<178 333 1330 1485> 1370 20G<178 399.129 1269.78 1485>
VStem: 178 155<0 1167> 1330 155<0 1163>
DStem2: 391 1390 322 1167 0.376537 -0.926401<180.606 1171.2> 832 305 911 108 0.380192 0.924907<0 985.568>
LayerCount: 2
UndoRedoHistory
Layer: 1
Undoes
UndoOperation
Index: 0
Type: 12
WasModified: 0
WasOrder2: 0
HStem: 0 21G<178 333 1330 1485> 1370 20G<178 399.129 1269.78 1485>
VStem: 178 155<0 1167> 1330 155<0 1163>
EndUndoOperation
EndUndoes
Redoes
EndRedoes
EndUndoRedoHistory
Fore
SplineSet
1278 1390 m 1
 1485 1390 l 1
 1485 0 l 1
 1330 0 l 1
 1330 843 l 1
 1337 1163 l 1
 911 108 l 1
 753 108 l 1
 322 1167 l 1
 333 839 l 1
 333 0 l 1
 178 0 l 1
 178 1390 l 1
 391 1390 l 1
 832 305 l 1
 1278 1390 l 1
EndSplineSet
Validated: 1
EndChar

StartChar: Mu
Encoding: 65556 924 84
Width: 1611
VWidth: 0
Flags: W
HStem: 0 21G<136 289 1323 1476> 1326 20G<136 348.713 1269.21 1476>
VStem: 136 153<0 1136> 1323 153<0 1132>
DStem2: 340 1346 312 1044 0.399383 -0.916784<167.763 1169.3>
LayerCount: 2
UndoRedoHistory
Layer: 1
Undoes
UndoOperation
Index: 0
Type: 12
WasModified: 0
WasOrder2: 0
EndUndoOperation
EndUndoes
Redoes
EndRedoes
EndUndoRedoHistory
Fore
SplineSet
1278 1346 m 1
 1476 1346 l 1
 1476 0 l 1
 1323 0 l 1
 1323 810 l 1
 1330 1132 l 1
 1296 1040 l 1
 885 83 l 1
 731 83 l 1
 312 1044 l 1
 278 1136 l 1
 289 806 l 1
 289 0 l 1
 136 0 l 1
 136 1346 l 1
 340 1346 l 1
 807 274 l 1
 1278 1346 l 1
EndSplineSet
Validated: 1
EndChar

StartChar: N
Encoding: 46 78 85
Width: 1485
VWidth: 0
Flags: W
HStem: 0 21G<178 334 1110.54 1307> 1370 20G<178 370.519 1151 1307>
VStem: 178 156<0 1181> 1151 156<208 1390>
DStem2: 357 1390 329 1181 0.560026 -0.828475<157.47 1426.72>
LayerCount: 2
UndoRedoHistory
Layer: 1
Undoes
UndoOperation
Index: 0
Type: 12
WasModified: 0
WasOrder2: 0
HStem: 0 21G<178 334 1110.54 1307> 1370 20G<178 370.519 1151 1307>
VStem: 178 156<0 1181> 1151 156<208 1390>
EndUndoOperation
EndUndoes
Redoes
EndRedoes
EndUndoRedoHistory
Fore
SplineSet
1156 208 m 1
 1151 555 l 2
 1151 1390 l 1
 1307 1390 l 1
 1307 0 l 1
 1124 0 l 1
 329 1181 l 1
 334 830 l 2
 334 0 l 1
 178 0 l 1
 178 1390 l 1
 357 1390 l 1
 1156 208 l 1
EndSplineSet
Validated: 1
EndChar

StartChar: Nu
Encoding: 65557 925 90
Width: 1378
VWidth: 0
Flags: W
HStem: 0 21G<136 289 935.5 1243> 1326 20G<136 442 1090 1243>
VStem: 136 153<0 1127> 1090 153<219 1346>
DStem2: 312 1346 284 1127 0.568721 -0.82253<164.21 1372.87>
LayerCount: 2
UndoRedoHistory
Layer: 1
Undoes
UndoOperation
Index: 0
Type: 12
WasModified: 0
WasOrder2: 0
EndUndoOperation
EndUndoes
Redoes
EndRedoes
EndUndoRedoHistory
Fore
SplineSet
1096 219 m 1
 1096 219 1090 509 1090 555 c 2
 1090 1346 l 1
 1243 1346 l 1
 1243 0 l 1
 1065 0 l 1
 806 377 540 747 284 1127 c 1
 284 1127 289 894 289 786 c 2
 289 0 l 1
 136 0 l 1
 136 1346 l 1
 312 1346 l 1
 572 970 838 598 1096 219 c 1
EndSplineSet
Validated: 1
EndChar

StartChar: O
Encoding: 47 79 91
Width: 1513
VWidth: 0
Flags: W
HStem: -18 138<556.759 956.248> 1275 138<554.696 959.714>
VStem: 103 179<424.418 969.366> 1231 179<425.43 968.303>
LayerCount: 2
UndoRedoHistory
Layer: 1
Undoes
UndoOperation
Index: 0
Type: 12
WasModified: 0
WasOrder2: 0
HStem: -18 138<556.759 956.248> 1275 138<554.696 959.714>
VStem: 103 179<424.418 969.366> 1231 179<425.43 968.303>
EndUndoOperation
EndUndoes
Redoes
EndRedoes
EndUndoRedoHistory
Fore
SplineSet
757 120 m 0
 1081 120 1231 379 1231 697 c 0
 1231 1027 1075 1275 758 1275 c 0
 441 1275 282 1028 282 697 c 0
 282 379 433 120 757 120 c 0
1410 697 m 0
 1410 287 1175 -18 757 -18 c 0
 334 -18 103 281 103 698 c 0
 103 1125 342 1413 758 1413 c 0
 1167 1413 1410 1122 1410 697 c 0
EndSplineSet
Validated: 1
EndChar

StartChar: OE
Encoding: 268 338 92
Width: 1866
VWidth: 0
Flags: W
HStem: -21 138<561.26 974.265> 0 142<1227 1734> 630 139<1227 1678> 1220 140<1227 1711> 1249 138<567.667 969.898>
VStem: 113 173<424.504 945.73> 1066 161<179.465 630 769 1176.67>
LayerCount: 2
UndoRedoHistory
Layer: 1
Undoes
UndoOperation
Index: 0
Type: 12
WasModified: 0
WasOrder2: 0
EndUndoOperation
EndUndoes
Redoes
EndRedoes
EndUndoRedoHistory
Fore
SplineSet
771 117 m 1xae
 888 117 1022 176 1066 202 c 1
 1066 1146 l 1
 996 1203 890 1249 763 1249 c 0
 468 1249 293 1020 286 703 c 1
 286 380 415 121 771 117 c 1xae
770 -21 m 0
 338 -21 113 272 113 702 c 1
 122 1099 383 1387 749 1387 c 0xae
 884 1387 998 1345 1066 1286 c 1
 1066 1360 l 1
 1726 1360 l 1
 1711 1220 l 1
 1227 1220 l 1
 1227 769 l 1
 1678 769 l 1
 1678 630 l 1
 1227 630 l 1
 1227 142 l 1
 1748 142 l 1
 1734 0 l 1
 1066 0 l 1x76
 1066 75 l 1
 1027 33 876 -21 770 -21 c 0
EndSplineSet
Validated: 1
EndChar

StartChar: Omega
Encoding: 65559 937 101
Width: 1511
VWidth: 0
Flags: W
HStem: -20 138<543.932 963.186> 1228 138<547.584 960.914>
VStem: 114 174<399.612 936.381> 1220 175<400.624 935.318>
LayerCount: 2
UndoRedoHistory
Layer: 1
Undoes
UndoOperation
Index: 0
Type: 12
WasModified: 0
WasOrder2: 0
EndUndoOperation
EndUndoes
Redoes
EndRedoes
EndUndoRedoHistory
Fore
SplineSet
754 118 m 0
 1072 118 1220 349 1220 667 c 0
 1220 997 1066 1228 755 1228 c 0
 444 1228 288 998 288 667 c 0
 288 349 436 118 754 118 c 0
754 -20 m 0
 339 -20 114 251 114 668 c 0
 114 1095 347 1366 755 1366 c 0
 1156 1366 1395 1092 1395 667 c 0
 1395 257 1164 -20 754 -20 c 0
EndSplineSet
Validated: 1
EndChar

StartChar: Omegatonos
Encoding: 65560 911 102
Width: 451
VWidth: 0
Flags: W
HStem: 484 240<127.069 319.268>
VStem: 102 242<509.684 698.316>
LayerCount: 2
UndoRedoHistory
Layer: 1
Undoes
UndoOperation
Index: 0
Type: 12
WasModified: 0
WasOrder2: 0
EndUndoOperation
EndUndoes
Redoes
EndRedoes
EndUndoRedoHistory
Fore
SplineSet
223 484 m 0
 143 484 102 544 102 604 c 0
 102 664 143 724 223 724 c 0
 304 724 344 664 344 604 c 0
 344 544 304 484 223 484 c 0
EndSplineSet
Validated: 1
EndChar

StartChar: Omicron
Encoding: 65561 927 103
Width: 1511
VWidth: 0
Flags: W
HStem: -20 138<543.932 963.186> 1228 138<547.584 960.914>
VStem: 114 174<399.612 936.381> 1220 175<400.624 935.318>
LayerCount: 2
UndoRedoHistory
Layer: 1
Undoes
UndoOperation
Index: 0
Type: 12
WasModified: 0
WasOrder2: 0
EndUndoOperation
EndUndoes
Redoes
EndRedoes
EndUndoRedoHistory
Fore
SplineSet
754 118 m 0
 1072 118 1220 349 1220 667 c 0
 1220 997 1066 1228 755 1228 c 0
 444 1228 288 998 288 667 c 0
 288 349 436 118 754 118 c 0
754 -20 m 0
 339 -20 114 251 114 668 c 0
 114 1095 347 1366 755 1366 c 0
 1156 1366 1395 1092 1395 667 c 0
 1395 257 1164 -20 754 -20 c 0
EndSplineSet
Validated: 1
EndChar

StartChar: Omicrontonos
Encoding: 65562 908 104
Width: 451
VWidth: 0
Flags: W
HStem: 484 240<127.069 319.268>
VStem: 102 242<509.684 698.316>
LayerCount: 2
UndoRedoHistory
Layer: 1
Undoes
UndoOperation
Index: 0
Type: 12
WasModified: 0
WasOrder2: 0
EndUndoOperation
EndUndoes
Redoes
EndRedoes
EndUndoRedoHistory
Fore
SplineSet
223 484 m 0
 143 484 102 544 102 604 c 0
 102 664 143 724 223 724 c 0
 304 724 344 664 344 604 c 0
 344 544 304 484 223 484 c 0
EndSplineSet
Validated: 1
EndChar

StartChar: Oslash
Encoding: 149 216 105
Width: 1560
VWidth: 0
Flags: W
HStem: -23 161<633.042 990.417> 1282 161<570.756 942.21>
VStem: 115 173<444.962 975.803> 1269 174<448.659 974.541>
DStem2: 386 -125 500 -164 0.374096 0.92739<6.47874 190.713 358.022 1482.22 1652.49 1847.12>
LayerCount: 2
UndoRedoHistory
Layer: 1
Undoes
UndoOperation
Index: 0
Type: 12
WasModified: 0
WasOrder2: 0
EndUndoOperation
EndUndoes
Redoes
EndRedoes
EndUndoRedoHistory
Fore
SplineSet
779 138 m 0
 1110 138 1269 390 1269 714 c 0
 1269 923 1199 1104 1056 1203 c 1
 631 157 l 1
 676 144 724 138 779 138 c 0
520 207 m 1
 944 1258 l 1
 895 1274 840 1282 779 1282 c 0
 450 1282 288 1031 288 714 c 0
 288 491 364 302 520 207 c 1
500 -164 m 1
 386 -125 l 1
 456 48 l 1
 231 162 115 406 115 708 c 0
 115 1156 358 1443 779 1443 c 0
 861 1443 937 1432 1006 1411 c 1
 1077 1588 l 1
 1196 1546 l 1
 1121 1362 l 1
 1329 1246 1443 1017 1443 708 c 0
 1443 283 1216 -23 779 -23 c 0
 702 -23 632 -13 568 5 c 1
 500 -164 l 1
EndSplineSet
Validated: 1
EndChar

StartChar: P
Encoding: 48 80 108
Width: 1166
VWidth: 0
Flags: W
HStem: 0 21G<178 357> 613 131<357 803.522> 1253 137<357 810.12>
VStem: 178 179<0 616 746 1253> 907 179<840.397 1161>
LayerCount: 2
UndoRedoHistory
Layer: 1
Undoes
UndoOperation
Index: 0
Type: 12
WasModified: 0
WasOrder2: 0
HStem: 0 21G<178 357> 613 131<357 803.522> 1253 137<357 810.12>
VStem: 178 179<0 616 746 1253> 907 179<840.397 1161>
EndUndoOperation
EndUndoes
Redoes
EndRedoes
EndUndoRedoHistory
Fore
SplineSet
615 744 m 0
 839 744 907 840 907 1020 c 0
 907 1182 795 1253 624 1253 c 2
 357 1253 l 1
 357 746 l 1
 357 746 552 744 615 744 c 0
178 0 m 1
 178 1390 l 1
 628 1390 l 2
 891 1390 1086 1268 1086 1023 c 0
 1086 770 951 613 607 613 c 0
 534 613 427 612 357 616 c 1
 357 0 l 1
 178 0 l 1
EndSplineSet
Validated: 33
EndChar

StartChar: Phi
Encoding: 65564 934 109
Width: 1547
VWidth: 0
Flags: W
HStem: 0 21G<690 851> 155 139<515.938 690 851 1026.72> 1097 139<513.495 690 851 1028.8> 1341 20G<690 851>
VStem: 108 172<510.954 889.335> 690 161<0 158.025 294 1097 1233.12 1361> 1264 172<510.291 889.478>
LayerCount: 2
UndoRedoHistory
Layer: 1
Undoes
UndoOperation
Index: 0
Type: 12
WasModified: 0
WasOrder2: 0
EndUndoOperation
EndUndoes
Redoes
EndRedoes
EndUndoRedoHistory
Fore
SplineSet
851 1097 m 1
 851 294 l 1
 1138 320 1264 492 1264 703 c 0
 1264 920 1128 1073 851 1097 c 1
690 294 m 1
 690 1097 l 1
 418 1072 280 921 280 703 c 0
 280 493 406 321 690 294 c 1
851 0 m 1
 690 0 l 1
 690 155 l 1
 308 183 108 410 108 703 c 0
 108 1001 320 1210 690 1236 c 1
 690 1361 l 1
 851 1361 l 1
 851 1236 l 1
 1224 1211 1436 1002 1436 703 c 0
 1436 409 1236 181 851 155 c 1
 851 0 l 1
EndSplineSet
Validated: 1
EndChar

StartChar: Pi
Encoding: 65565 928 110
Width: 1337
VWidth: 0
Flags: W
HStem: 0 21G<136 298 1041 1202> 1223 138<298 1041>
VStem: 136 162<0 1223> 1041 161<0 1223>
LayerCount: 2
UndoRedoHistory
Layer: 1
Undoes
UndoOperation
Index: 0
Type: 12
WasModified: 0
WasOrder2: 0
EndUndoOperation
EndUndoes
Redoes
EndRedoes
EndUndoRedoHistory
Fore
SplineSet
1041 0 m 1
 1041 1223 l 1
 298 1223 l 1
 298 0 l 1
 136 0 l 1
 136 1361 l 1
 1202 1361 l 1
 1202 0 l 1
 1041 0 l 1
EndSplineSet
Validated: 1
EndChar

StartChar: Psi
Encoding: 65566 936 111
Width: 451
VWidth: 0
Flags: W
HStem: 484 240<127.069 319.268>
VStem: 102 242<509.684 698.316>
LayerCount: 2
UndoRedoHistory
Layer: 1
Undoes
UndoOperation
Index: 0
Type: 12
WasModified: 0
WasOrder2: 0
EndUndoOperation
EndUndoes
Redoes
EndRedoes
EndUndoRedoHistory
Fore
SplineSet
223 484 m 0
 143 484 102 544 102 604 c 0
 102 664 143 724 223 724 c 0
 304 724 344 664 344 604 c 0
 344 544 304 484 223 484 c 0
EndSplineSet
Validated: 1
EndChar

StartChar: Q
Encoding: 49 81 112
Width: 1517
VWidth: 0
Flags: W
HStem: -18 138<556.759 956.248> 1275 138<554.696 959.714>
VStem: 103 179<424.418 969.366> 1231 179<425.43 968.303>
LayerCount: 2
UndoRedoHistory
Layer: 1
Undoes
UndoOperation
Index: 0
Type: 12
WasModified: 0
WasOrder2: 0
HStem: -18 138<556.759 956.248> 1275 138<554.696 959.714>
VStem: 103 179<424.418 969.366> 1231 179<425.43 968.303>
EndUndoOperation
EndUndoes
Redoes
EndRedoes
EndUndoRedoHistory
Fore
SplineSet
1255 -318 m 1
 1152 -421 l 1
 1116 -386 929 -164 851 -7 c 1
 1001 23 l 1
 1022 -11 1145 -211 1255 -318 c 1
EndSplineSet
Refer: 91 79 N 1 0 0 1 0 0 2
Validated: 5
EndChar

StartChar: R
Encoding: 50 82 113
Width: 1357
VWidth: 0
Flags: W
HStem: 0 21G<178 357 1068.03 1262> 659 140<357 817.771> 1252 138<357 935.945>
VStem: 178 179<0 661 799 1252> 1021 177<876.745 1176.83>
DStem2: 1262 0 891 464 0.391555 -0.920155<-764.625 -72.8293>
LayerCount: 2
UndoRedoHistory
Layer: 1
Undoes
UndoOperation
Index: 0
Type: 12
WasModified: 0
WasOrder2: 0
HStem: 0 21G<178 357 1068.03 1262> 659 140<357 817.771> 1252 138<357 935.945>
VStem: 178 179<0 661 799 1252> 1021 177<876.745 1176.83>
EndUndoOperation
EndUndoes
Redoes
EndRedoes
EndUndoRedoHistory
Fore
SplineSet
178 0 m 1
 178 1390 l 1
 681 1390 l 2
 1011 1390 1198 1323 1198 1040 c 0
 1198 872 1149 755 953 700 c 1
 953 695 1010 585 1042 517 c 2
 1262 0 l 1
 1076 0 l 1
 891 464 l 2
 855 544 822 618 793 664 c 1
 766 662 664 659 632 659 c 0
 615 659 357 661 357 661 c 1
 357 0 l 1
 178 0 l 1
716 799 m 2
 961 799 1021 878 1021 1038 c 0
 1021 1180 951 1252 708 1252 c 2
 357 1252 l 1
 357 799 l 1
 716 799 l 2
EndSplineSet
Validated: 1
EndChar

StartChar: Rho
Encoding: 65567 929 117
Width: 1120
VWidth: 0
Flags: W
HStem: 0 21G<136 311> 569 131<311 731.157> 1201 145<311 736.259>
VStem: 136 175<0 581 707.477 1201> 835 175<798.937 1113.52>
LayerCount: 2
UndoRedoHistory
Layer: 1
Undoes
UndoOperation
Index: 0
Type: 12
WasModified: 0
WasOrder2: 0
EndUndoOperation
EndUndoes
Redoes
EndRedoes
EndUndoRedoHistory
Fore
SplineSet
533 700 m 0
 753 700 835 796 835 976 c 0
 835 1138 710 1201 542 1201 c 2
 311 1201 l 1
 311 710 l 1
 311 710 471 700 533 700 c 0
136 0 m 1
 136 1346 l 1
 546 1346 l 2
 804 1346 1010 1224 1010 979 c 0
 1010 726 862 569 525 569 c 0
 469 569 380 575 311 581 c 1
 311 0 l 1
 136 0 l 1
EndSplineSet
Validated: 1
EndChar

StartChar: S
Encoding: 51 83 118
Width: 1229
VWidth: 0
Flags: W
HStem: -18 138<352.407 797.347> 1275 138<411.102 837.34>
VStem: 142 159<935.942 1183.27> 906 155<225.801 504.213>
DStem2: 491 848 434 704 0.944051 -0.329799<-181.102 454.936>
LayerCount: 2
UndoRedoHistory
Layer: 1
Undoes
UndoOperation
Index: 0
Type: 12
WasModified: 0
WasOrder2: 0
HStem: -18 138<352.407 797.347> 1275 138<411.102 837.34>
VStem: 142 159<935.942 1183.27> 906 155<225.801 504.213>
EndUndoOperation
UndoOperation
Index: 1
Type: 7
WasModified: 1
WasOrder2: 0
Width: 1228
EndUndoOperation
UndoOperation
Index: 2
Type: 7
WasModified: 1
WasOrder2: 0
Width: 1227
EndUndoOperation
UndoOperation
Index: 3
Type: 7
WasModified: 1
WasOrder2: 0
Width: 1226
EndUndoOperation
UndoOperation
Index: 4
Type: 7
WasModified: 1
WasOrder2: 0
Width: 1225
EndUndoOperation
UndoOperation
Index: 5
Type: 7
WasModified: 1
WasOrder2: 0
Width: 1224
EndUndoOperation
UndoOperation
Index: 6
Type: 7
WasModified: 1
WasOrder2: 0
Width: 1223
EndUndoOperation
UndoOperation
Index: 7
Type: 7
WasModified: 1
WasOrder2: 0
Width: 1222
EndUndoOperation
UndoOperation
Index: 8
Type: 7
WasModified: 1
WasOrder2: 0
Width: 1221
EndUndoOperation
UndoOperation
Index: 9
Type: 7
WasModified: 1
WasOrder2: 0
Width: 1220
EndUndoOperation
UndoOperation
Index: 10
Type: 7
WasModified: 1
WasOrder2: 0
Width: 1219
EndUndoOperation
UndoOperation
Index: 11
Type: 7
WasModified: 1
WasOrder2: 0
Width: 1218
EndUndoOperation
EndUndoes
Redoes
EndRedoes
EndUndoRedoHistory
Fore
SplineSet
606 -18 m 0
 380 -18 219 59 140 110 c 1
 195 238 l 1
 307 172 440 120 606 120 c 0
 786 120 906 204 906 369 c 0
 906 492 831 565 663 624 c 2
 434 704 l 1
 258 760 142 871 142 1051 c 0
 142 1316 360 1413 617 1413 c 0
 776 1413 918 1356 1006 1298 c 1
 951 1173 l 1
 887 1212 764 1275 623 1275 c 0
 451 1275 301 1215 301 1062 c 0
 301 956 368 886 491 848 c 1
 708 772 l 1
 905 711 1061 612 1061 376 c 0
 1061 105 867 -18 606 -18 c 0
EndSplineSet
EndChar

StartChar: Sigma
Encoding: 65568 931 124
Width: 1074
VWidth: 0
Flags: W
HStem: 0 139<311 945> 629 137<311 894> 1207 139<311 945>
VStem: 136 175<139 629 766 1207>
LayerCount: 2
UndoRedoHistory
Layer: 1
Undoes
UndoOperation
Index: 0
Type: 12
WasModified: 0
WasOrder2: 0
EndUndoOperation
EndUndoes
Redoes
EndRedoes
EndUndoRedoHistory
Fore
SplineSet
311 1207 m 1
 311 766 l 1
 894 766 l 1
 894 629 l 1
 311 629 l 1
 311 139 l 1
 952 139 l 1
 945 0 l 1
 136 0 l 1
 136 1346 l 1
 952 1346 l 1
 945 1207 l 1
 311 1207 l 1
EndSplineSet
Validated: 1
EndChar

StartChar: T
Encoding: 52 84 125
Width: 1088
VWidth: 0
Flags: W
HStem: 0 21G<454 633> 1251 139<39 454 633 1049>
VStem: 454 179<0 1251>
LayerCount: 2
UndoRedoHistory
Layer: 1
Undoes
UndoOperation
Index: 0
Type: 12
WasModified: 0
WasOrder2: 0
HStem: 0 21G<454 633> 1251 139<39 454 633 1049>
VStem: 454 179<0 1251>
EndUndoOperation
EndUndoes
Redoes
EndRedoes
EndUndoRedoHistory
Fore
SplineSet
1049 1390 m 1
 1049 1251 l 1
 633 1251 l 1
 633 0 l 1
 454 0 l 1
 454 1251 l 1
 39 1251 l 1
 39 1390 l 1
 1049 1390 l 1
EndSplineSet
EndChar

StartChar: Tau
Encoding: 65569 932 126
Width: 1147
VWidth: 0
Flags: W
HStem: 0 21G<485 660> 1207 139<77 485 660 1067>
VStem: 485 175<0 1207>
LayerCount: 2
UndoRedoHistory
Layer: 1
Undoes
UndoOperation
Index: 0
Type: 12
WasModified: 0
WasOrder2: 0
EndUndoOperation
EndUndoes
Redoes
EndRedoes
EndUndoRedoHistory
Fore
SplineSet
1067 1346 m 1
 1067 1207 l 1
 660 1207 l 1
 660 0 l 1
 485 0 l 1
 485 1207 l 1
 77 1207 l 1
 77 1346 l 1
 1067 1346 l 1
EndSplineSet
Validated: 1
EndChar

StartChar: Tbar
Encoding: 425 358 127
Width: 1131
VWidth: 0
Flags: W
HStem: 0 21G<484 645> 483 112<330 484 645 793> 1220 141<77 484 645 1053>
VStem: 484 161<0 483 595 1220>
LayerCount: 2
UndoRedoHistory
Layer: 1
Undoes
UndoOperation
Index: 0
Type: 12
WasModified: 0
WasOrder2: 0
EndUndoOperation
EndUndoes
Redoes
EndRedoes
EndUndoRedoHistory
Fore
SplineSet
484 595 m 1
 484 1220 l 1
 77 1220 l 1
 77 1361 l 1
 1053 1361 l 1
 1053 1220 l 1
 645 1220 l 1
 645 595 l 1
 793 595 l 1
 793 483 l 1
 645 483 l 1
 645 0 l 1
 484 0 l 1
 484 483 l 1
 330 483 l 1
 330 595 l 1
 484 595 l 1
EndSplineSet
Validated: 1
EndChar

StartChar: uni021A
Encoding: -1 538 129
Width: 1261
VWidth: 0
Flags: W
LayerCount: 2
Fore
SplineSet
1173 1479 m 1
 1173 1326 l 1
 725 1326 l 1
 725 0 l 1
 572 0 l 1
 530 -411 l 1
 376 -411 l 1
 488 15 l 1
 533 15 l 1
 533 1326 l 1
 85 1326 l 1
 85 1479 l 1
 1173 1479 l 1
EndSplineSet
Validated: 1
EndChar

StartChar: Theta
Encoding: 65570 920 130
Width: 451
VWidth: 0
Flags: W
HStem: 484 240<127.069 319.268>
VStem: 102 242<509.684 698.316>
LayerCount: 2
UndoRedoHistory
Layer: 1
Undoes
UndoOperation
Index: 0
Type: 12
WasModified: 0
WasOrder2: 0
EndUndoOperation
EndUndoes
Redoes
EndRedoes
EndUndoRedoHistory
Fore
SplineSet
223 484 m 0
 143 484 102 544 102 604 c 0
 102 664 143 724 223 724 c 0
 304 724 344 664 344 604 c 0
 344 544 304 484 223 484 c 0
EndSplineSet
Validated: 1
EndChar

StartChar: Thorn
Encoding: 155 222 131
Width: 1213
VWidth: 0
Flags: W
HStem: 0 21G<136 298> 318 131<298 838.26> 972 135<298 844.792> 1341 20G<136 298>
VStem: 136 162<0 318 449 972 1107 1361> 949 154<552.872 872.894>
LayerCount: 2
UndoRedoHistory
Layer: 1
Undoes
UndoOperation
Index: 0
Type: 12
WasModified: 0
WasOrder2: 0
EndUndoOperation
EndUndoes
Redoes
EndRedoes
EndUndoRedoHistory
Fore
SplineSet
298 972 m 1
 298 449 l 1
 647 449 l 2
 873 449 949 560 949 712 c 0
 949 891 859 972 609 972 c 2
 298 972 l 1
298 1361 m 1
 298 1107 l 1
 592 1107 l 2
 920 1107 1103 1008 1103 720 c 0
 1103 478 973 311 657 311 c 0
 650 311 298 318 298 318 c 1
 298 0 l 1
 136 0 l 1
 136 1361 l 1
 298 1361 l 1
EndSplineSet
Validated: 1
EndChar

StartChar: U
Encoding: 53 85 132
Width: 1327
VWidth: 0
Flags: W
HStem: -18 138<460.974 863.884> 1370 20G<132 309 1018 1195>
VStem: 132 177<277.144 1390> 1018 177<275.922 1390>
LayerCount: 2
UndoRedoHistory
Layer: 1
Undoes
UndoOperation
Index: 0
Type: 12
WasModified: 0
WasOrder2: 0
EndUndoOperation
EndUndoes
Redoes
EndRedoes
EndUndoRedoHistory
Fore
SplineSet
663 -18 m 0
 298 -18 132 196 132 495 c 2
 132 1390 l 5
 309 1390 l 5
 309 492 l 2
 309 248 417 120 663 120 c 0
 903 120 1018 248 1018 492 c 2
 1018 1390 l 5
 1195 1390 l 5
 1195 493 l 2
 1195 195 1028 -18 663 -18 c 0
EndSplineSet
Validated: 1
EndChar

StartChar: Upsilon
Encoding: 65572 933 142
Width: 1248
VWidth: 0
Flags: W
HStem: 0 21G<536 711> 1326 20G<70 256.403 990.567 1177>
VStem: 536 175<0 533>
DStem2: 245 1346 70 1346 0.497288 -0.867586<0 763.184> 623 683 711 537 0.499135 0.866524<0 763.678>
LayerCount: 2
UndoRedoHistory
Layer: 1
Undoes
UndoOperation
Index: 0
Type: 12
WasModified: 0
WasOrder2: 0
EndUndoOperation
EndUndoes
Redoes
EndRedoes
EndUndoRedoHistory
Fore
SplineSet
623 683 m 1
 1002 1346 l 1
 1177 1346 l 1
 711 537 l 1
 711 0 l 1
 536 0 l 1
 536 533 l 1
 70 1346 l 1
 245 1346 l 1
 623 683 l 1
EndSplineSet
Validated: 1
EndChar

StartChar: Upsilontonos
Encoding: 65574 910 144
Width: 451
VWidth: 0
Flags: W
HStem: 484 240<127.069 319.268>
VStem: 102 242<509.684 698.316>
LayerCount: 2
UndoRedoHistory
Layer: 1
Undoes
UndoOperation
Index: 0
Type: 12
WasModified: 0
WasOrder2: 0
EndUndoOperation
EndUndoes
Redoes
EndRedoes
EndUndoRedoHistory
Fore
SplineSet
223 484 m 0
 143 484 102 544 102 604 c 0
 102 664 143 724 223 724 c 0
 304 724 344 664 344 604 c 0
 344 544 304 484 223 484 c 0
EndSplineSet
Validated: 1
EndChar

StartChar: V
Encoding: 54 86 147
Width: 1264
VWidth: 0
Flags: W
HStem: 0 21G<540.662 723.338> 1370 20G<38 230.793 1035.16 1226>
DStem2: 224 1390 38 1390 0.344453 -0.938804<0 1246.23> 632 197 548 0 0.344453 -0.938804<-1217.15 0> 632 197 716 0 0.344453 0.938804<0 1261.22>
LayerCount: 2
UndoRedoHistory
Layer: 1
Undoes
UndoOperation
Index: 0
Type: 12
WasModified: 0
WasOrder2: 0
HStem: 0 21G<540.662 723.338> 1370 20G<38 230.793 1035.16 1226>
EndUndoOperation
EndUndoes
Redoes
EndRedoes
EndUndoRedoHistory
Fore
SplineSet
716 0 m 1
 548 0 l 1
 38 1390 l 1
 224 1390 l 1
 529 492 l 2
 632 197 l 1
 736 495 l 1
 1042 1390 l 1
 1226 1390 l 1
 716 0 l 1
EndSplineSet
Validated: 1
EndChar

StartChar: W
Encoding: 55 87 148
Width: 2002
VWidth: 0
Flags: W
HStem: 0 21G<472.072 666.017 1330.36 1526.97> 1345 45G<66 249.634 905.086 1098.77 1753.25 1936>
VStem: 66 178<1212 1390> 1759 177<1213 1390>
DStem2: 244 1390 66 1390 0.284182 -0.95877<0 1213.34> 573 222 660 0 0.288105 0.957599<0 1023.84> 1093 1365 1009 1160 0.271322 -0.962489<174.519 1190.62> 1423 221 1521 0 0.286083 0.958205<0 1216.27>
LayerCount: 2
UndoRedoHistory
Layer: 1
Undoes
UndoOperation
Index: 0
Type: 12
WasModified: 0
WasOrder2: 0
HStem: 0 21G<472.072 666.017 1330.36 1526.97> 1345 45G<66 249.634 905.086 1098.77 1753.25 1936>
EndUndoOperation
EndUndoes
Redoes
EndRedoes
EndUndoRedoHistory
Fore
SplineSet
911 1365 m 1
 1093 1365 l 1
 1423 221 l 1
 1759 1390 l 1
 1936 1390 l 1
 1521 0 l 1
 1336 0 l 1
 1009 1160 l 1
 660 0 l 1
 478 0 l 1
 66 1390 l 1
 244 1390 l 1
 573 222 l 1
 911 1365 l 1
EndSplineSet
Validated: 1
EndChar

StartChar: X
Encoding: 56 88 153
Width: 1196
VWidth: 0
Flags: W
HStem: 0 21G<46 244.972 961.993 1161> 1370 20G<46 245.64 961.324 1161>
VStem: 46 186<0 186 1204 1390> 975 186<0 186 1204 1390>
DStem2: 232 1390 46 1390 0.555666 -0.831406<0 658.437 886.242 1568.51> 46 0 232 0 0.555666 0.831406<103.354 785.07 1012.88 1671.87>
LayerCount: 2
UndoRedoHistory
Layer: 1
Undoes
UndoOperation
Index: 0
Type: 12
WasModified: 0
WasOrder2: 0
EndUndoOperation
EndUndoes
Redoes
EndRedoes
EndUndoRedoHistory
Fore
SplineSet
696 709 m 1
 1161 0 l 1
 975 0 l 1
 603 572 l 1
 232 0 l 1
 46 0 l 1
 510 709 l 1
 46 1390 l 5
 232 1390 l 5
 603 846 l 1
 975 1390 l 5
 1161 1390 l 5
 696 709 l 1
EndSplineSet
Validated: 1
EndChar

StartChar: Xi
Encoding: 65575 926 154
Width: 451
VWidth: 0
Flags: W
HStem: 484 240<127.069 319.268>
VStem: 102 242<509.684 698.316>
LayerCount: 2
UndoRedoHistory
Layer: 1
Undoes
UndoOperation
Index: 0
Type: 12
WasModified: 0
WasOrder2: 0
EndUndoOperation
EndUndoes
Redoes
EndRedoes
EndUndoRedoHistory
Fore
SplineSet
223 484 m 0
 143 484 102 544 102 604 c 0
 102 664 143 724 223 724 c 0
 304 724 344 664 344 604 c 0
 344 544 304 484 223 484 c 0
EndSplineSet
Validated: 1
EndChar

StartChar: Y
Encoding: 57 89 155
Width: 1181
VWidth: 0
Flags: W
HStem: 0 21G<516 694> 1370 20G<12 202.414 979.396 1169>
VStem: 12 178<1212 1390> 516 178<0 573> 991 178<1212 1390>
DStem2: 190 1390 12 1390 0.525027 -0.851086<0 785.035> 604 723 694 577 0.504465 0.863432<0 771.137>
LayerCount: 2
UndoRedoHistory
Layer: 1
Undoes
UndoOperation
Index: 0
Type: 12
WasModified: 0
WasOrder2: 0
HStem: 0 21G<516 694> 1370 20G<12 202.414 979.396 1169>
VStem: 516 178<0 573>
EndUndoOperation
EndUndoes
Redoes
EndRedoes
EndUndoRedoHistory
Fore
SplineSet
604 723 m 1
 991 1390 l 1
 1169 1390 l 1
 694 577 l 1
 694 0 l 1
 516 0 l 1
 516 573 l 1
 12 1390 l 1
 190 1390 l 1
 604 723 l 1
EndSplineSet
EndChar

StartChar: Z
Encoding: 58 90 160
Width: 1190
VWidth: 0
Flags: W
HStem: 0 138<323 1062> 1252 138<149 856>
DStem2: 122 124 323 138 0.545456 0.83814<121.371 1345.79>
LayerCount: 2
UndoRedoHistory
Layer: 1
Undoes
UndoOperation
Index: 0
Type: 12
WasModified: 0
WasOrder2: 0
HStem: 0 138<323 1062> 1252 138<149 856>
EndUndoOperation
EndUndoes
Redoes
EndRedoes
EndUndoRedoHistory
Fore
SplineSet
149 1390 m 1
 1061 1390 l 1
 1061 1272 l 1
 323 138 l 1
 1068 138 l 1
 1062 0 l 1
 122 0 l 1
 122 124 l 1
 856 1252 l 1
 149 1252 l 1
 149 1390 l 1
EndSplineSet
EndChar

StartChar: Zeta
Encoding: 65576 918 164
Width: 1159
VWidth: 0
Flags: W
HStem: 0 140<308 1045> 1206 140<137 843>
DStem2: 111 124 308 140 0.560309 0.828283<123.633 1306.35>
LayerCount: 2
UndoRedoHistory
Layer: 1
Undoes
UndoOperation
Index: 0
Type: 12
WasModified: 0
WasOrder2: 0
EndUndoOperation
EndUndoes
Redoes
EndRedoes
EndUndoRedoHistory
Fore
SplineSet
137 1346 m 1
 1044 1346 l 1
 1044 1228 l 1
 308 140 l 1
 1050 140 l 1
 1045 0 l 1
 111 0 l 1
 111 124 l 1
 843 1206 l 1
 137 1206 l 1
 137 1346 l 1
EndSplineSet
Validated: 1
EndChar

StartChar: a
Encoding: 65 97 165
Width: 1093
VWidth: 0
Flags: W
HStem: -21 123<344.194 651.32> 0 21G<796.179 942> 478 105<431.954 766.933> 886 133<299.974 706.178>
VStem: 127 174<146.754 384.847> 767 175<191.438 490 593.625 827.513> 801 141<0 59.4679>
LayerCount: 2
UndoRedoHistory
Layer: 1
Undoes
UndoOperation
Index: 0
Type: 12
WasModified: 0
WasOrder2: 0
HStem: -21 123<344.194 651.32> 0 21G<796.179 942> 478 105<431.954 766.933> 886 133<299.974 706.178>
VStem: 127 174<146.754 384.847> 767 175<191.438 490 593.625 827.513> 801 141<0 59.4679>
EndUndoOperation
UndoOperation
Index: 1
Type: 7
WasModified: 1
WasOrder2: 0
Width: 1092
EndUndoOperation
UndoOperation
Index: 2
Type: 7
WasModified: 1
WasOrder2: 0
Width: 1091
EndUndoOperation
UndoOperation
Index: 3
Type: 7
WasModified: 1
WasOrder2: 0
Width: 1092
EndUndoOperation
UndoOperation
Index: 4
Type: 7
WasModified: 1
WasOrder2: 0
Width: 1093
EndUndoOperation
UndoOperation
Index: 5
Type: 7
WasModified: 1
WasOrder2: 0
Width: 1094
EndUndoOperation
UndoOperation
Index: 6
Type: 7
WasModified: 1
WasOrder2: 0
Width: 1095
EndUndoOperation
UndoOperation
Index: 7
Type: 7
WasModified: 1
WasOrder2: 0
Width: 1094
EndUndoOperation
UndoOperation
Index: 8
Type: 7
WasModified: 1
WasOrder2: 0
Width: 1093
EndUndoOperation
UndoOperation
Index: 9
Type: 7
WasModified: 1
WasOrder2: 0
Width: 1092
EndUndoOperation
UndoOperation
Index: 10
Type: 7
WasModified: 1
WasOrder2: 0
Width: 1091
EndUndoOperation
UndoOperation
Index: 11
Type: 7
WasModified: 1
WasOrder2: 0
Width: 1090
EndUndoOperation
EndUndoes
Redoes
EndRedoes
EndUndoRedoHistory
Fore
SplineSet
461 102 m 0xbc
 582 102 735.5 165 767 251 c 1
 767 490 l 1
 767 490 674 481 651 478 c 0
 390 447 301 402 301 262 c 0
 301 152 378 102 461 102 c 0xbc
438 -21 m 0
 262 -21 127 79 127 263 c 0
 127 478 307 562 592 583 c 0
 638 587 767 597 767 597 c 1
 767 685 l 2
 767 823 697 886 554 886 c 0
 458 886 321 858 227 812 c 1
 219 831 187 916 180 935 c 1
 266 983 421 1019 550 1019 c 0
 794 1019 942 927 942 661 c 2xbc
 942 0 l 1
 801 0 l 1x7a
 774 112 l 1
 712.500976562 21.5302734375 572.099609375 -21 438 -21 c 0
EndSplineSet
EndChar

StartChar: acute
Encoding: 115 180 169
Width: 581
VWidth: 0
Flags: W
HStem: 1138 353
VStem: 116 400
LayerCount: 2
UndoRedoHistory
Layer: 1
Undoes
UndoOperation
Index: 0
Type: 12
WasModified: 0
WasOrder2: 0
EndUndoOperation
EndUndoes
Redoes
EndRedoes
EndUndoRedoHistory
Fore
SplineSet
116 1138 m 1
 286 1491 l 1
 516 1491 l 1
 220 1138 l 1
 116 1138 l 1
EndSplineSet
Validated: 1
EndChar

StartChar: ae
Encoding: 163 230 171
Width: 1587
VWidth: 0
Flags: W
HStem: -24 127<302.164 631.813 978.828 1308.01> 454 104<389.327 687> 486 100<1058.85 1314.86> 895 128<282.886 645.351 975.163 1242.74>
VStem: 113 153<140.033 369.678> 690 158<561 748.174> 1318 147<586 813.11>
LayerCount: 2
UndoRedoHistory
Layer: 1
Undoes
UndoOperation
Index: 0
Type: 12
WasModified: 0
WasOrder2: 0
EndUndoOperation
EndUndoes
Redoes
EndRedoes
EndUndoRedoHistory
Fore
SplineSet
848 560 m 1xbe
 1318 586 l 1
 1318 595 l 1
 1316 802 1256 895 1122 895 c 0
 939 895 858 747 848 560 c 1xbe
419 103 m 0
 520 103 652 154 756 189 c 1
 715 264 692 351 687 454 c 1xde
 667 453 647 452 629 450 c 0
 337 428 266 373 266 265 c 0
 266 144 332 103 419 103 c 0
408 -24 m 0
 250 -24 113 54 113 273 c 0
 113 513 356 543 632 558 c 2xde
 690 561 l 1
 690 711 l 2
 690 832 645 888 517 888 c 0
 392 888 269 854 193 814 c 1
 160 939 l 1
 233 981 377 1023 513 1023 c 0
 658 1023 775 966 802 848 c 1
 868 967 993 1023 1125 1023 c 0
 1373 1023 1465 827 1465 622 c 0
 1465 535 1442 493 1295 486 c 2xbe
 843 463 l 1
 858 250 933 108 1127 108 c 0
 1244 108 1357 163 1421 208 c 1
 1468 98 l 1
 1394 34 1277 -23 1117 -23 c 0
 986 -23 892 22 819 102 c 1
 712 36 550 -24 408 -24 c 0
EndSplineSet
Validated: 1
EndChar

StartChar: afii10018
Encoding: 65579 1041 174
Width: 1174
VWidth: 0
Flags: W
HStem: 0 129<334 818.198> 653 126<334 820.823> 1213 133<334 974>
VStem: 160 174<129 653 779 1213> 914 174<220.987 560.178>
LayerCount: 2
UndoRedoHistory
Layer: 1
Undoes
UndoOperation
Index: 0
Type: 12
WasModified: 0
WasOrder2: 0
EndUndoOperation
EndUndoes
Redoes
EndRedoes
EndUndoRedoHistory
Fore
SplineSet
1088 393 m 0
 1088 155 960 0 630 0 c 2
 160 0 l 1
 160 1346 l 1
 974 1346 l 1
 974 1213 l 1
 334 1213 l 1
 334 779 l 1
 636 779 l 2
 960 779 1088 628 1088 393 c 0
334 653 m 1
 334 129 l 1
 639 129 l 2
 825 129 914 212 914 392 c 0
 914 573 823 653 631 653 c 2
 334 653 l 1
EndSplineSet
Validated: 1
EndChar

StartChar: afii10020
Encoding: 65581 1043 176
Width: 1047
VWidth: 0
Flags: W
HStem: 0 21G<160 334> 1205 141<334 995>
VStem: 160 174<0 1205>
LayerCount: 2
UndoRedoHistory
Layer: 1
Undoes
UndoOperation
Index: 0
Type: 12
WasModified: 0
WasOrder2: 0
EndUndoOperation
EndUndoes
Redoes
EndRedoes
EndUndoRedoHistory
Fore
SplineSet
995 1205 m 1
 334 1205 l 1
 334 0 l 1
 160 0 l 1
 160 1346 l 1
 1008 1346 l 1
 995 1205 l 1
EndSplineSet
Validated: 1
EndChar

StartChar: afii10021
Encoding: 65582 1044 177
Width: 1368
VWidth: 0
Flags: W
HStem: -275 413<-38 123.702 1152 1306> 0 138<126 151.456 317 978> 1205 141<482 978>
VStem: -38 164<-275 0> 978 174<138 1205> 1145 161<-275 0>
LayerCount: 2
UndoRedoHistory
Layer: 1
Undoes
UndoOperation
Index: 0
Type: 12
WasModified: 0
WasOrder2: 0
EndUndoOperation
EndUndoes
Redoes
EndRedoes
EndUndoRedoHistory
Fore
SplineSet
126 -275 m 1xb4
 -38 -275 l 1
 -38 138 l 1
 112 138 l 1
 198 199 223 353 289 1019 c 0
 298 1109 311 1238 321 1346 c 1
 1152 1346 l 1
 1152 138 l 1xb8
 1306 138 l 1
 1306 -275 l 1
 1145 -275 l 1xb4
 1145 0 l 1
 126 0 l 1x74
 126 -275 l 1xb4
482 1205 m 1
 482 1202 l 1
 476 1142 460 989 456 938 c 1
 410 471 391 257 317 138 c 1
 978 138 l 1x78
 978 1205 l 1
 482 1205 l 1
EndSplineSet
Validated: 1
EndChar

StartChar: afii10024
Encoding: 65585 1046 180
Width: 1851
VWidth: 0
Flags: W
HStem: 0 21G<95 321.629 832 1006 1517.37 1744> 1326 20G<166 377.385 832 1006 1461.63 1673>
VStem: 95 209<0 209> 166 196<1150 1346> 832 174<0 599 735 1346> 1477 196<1150 1346> 1535 209<0 209>
DStem2: 95 0 304 0 0.666371 0.745621<139.271 895.898> 362 1346 166 1346 0.612972 -0.790105<0 737.972> 1006 733 1147 668 0.612972 0.790105<35.0723 773.044> 1147 668 1006 600 0.666371 -0.745621<0 756.626>
LayerCount: 2
UndoRedoHistory
Layer: 1
Undoes
UndoOperation
Index: 0
Type: 12
WasModified: 0
WasOrder2: 0
EndUndoOperation
EndUndoes
Redoes
EndRedoes
EndUndoRedoHistory
Fore
SplineSet
832 0 m 1xca
 832 599 l 1
 304 0 l 1
 95 0 l 1xea
 692 668 l 1
 166 1346 l 1
 362 1346 l 1
 832 735 l 1
 832 1346 l 1
 1006 1346 l 1
 1006 733 l 1
 1477 1346 l 1
 1673 1346 l 1xdc
 1147 668 l 1
 1744 0 l 1
 1535 0 l 1
 1006 600 l 1
 1006 0 l 1
 832 0 l 1xca
EndSplineSet
Validated: 1
EndChar

StartChar: afii10025
Encoding: 65586 1047 181
Width: 1111
VWidth: 0
Flags: W
HStem: -18 138<299.563 704.884> 627 143<425 689.471> 1228 138<321.398 700.082>
VStem: 785 174<864.341 1146.41> 817 174<224.626 519.736>
LayerCount: 2
UndoRedoHistory
Layer: 1
Undoes
UndoOperation
Index: 0
Type: 12
WasModified: 0
WasOrder2: 0
EndUndoOperation
EndUndoes
Redoes
EndRedoes
EndUndoRedoHistory
Fore
SplineSet
991 363 m 0xe8
 991 135 832 -18 540 -18 c 0
 365 -18 216 33 127 95 c 1
 183 223 l 1
 253 174 393 120 527 120 c 0
 693 120 817 203 817 377 c 0xe8
 817 502 725 627 550 627 c 2
 425 627 l 1
 425 770 l 1
 545 770 l 2
 714 770 785 896 785 999 c 0
 785 1158 681 1228 546 1228 c 0
 431 1228 307 1187 218 1134 c 1
 159 1259 l 1
 266 1322 371 1366 556 1366 c 0
 864 1366 959 1170 959 1026 c 0xf0
 959 865 866 750 719 706 c 1
 842 678 991 579 991 363 c 0xe8
EndSplineSet
Validated: 1
EndChar

StartChar: afii10026
Encoding: 65587 1048 182
Width: 1426
VWidth: 0
Flags: W
HStem: 0 21G<160 468.5 1114 1267> 1326 20G<160 313 961 1267>
VStem: 160 153<219 1346> 1114 153<0 1127>
DStem2: 308 219 339 0 0.568288 0.82283<0 1208.01>
LayerCount: 2
UndoRedoHistory
Layer: 1
Undoes
UndoOperation
Index: 0
Type: 12
WasModified: 0
WasOrder2: 0
EndUndoOperation
EndUndoes
Redoes
EndRedoes
EndUndoRedoHistory
Fore
SplineSet
308 219 m 1
 566 598 831 970 1091 1346 c 1
 1267 1346 l 1
 1267 0 l 1
 1114 0 l 1
 1114 786 l 2
 1114 894 1119 1127 1119 1127 c 1
 863 747 598 377 339 0 c 1
 160 0 l 1
 160 1346 l 1
 313 1346 l 1
 313 555 l 2
 313 509 308 219 308 219 c 1
EndSplineSet
Validated: 1
EndChar

StartChar: afii10028
Encoding: 65589 1050 184
Width: 1243
VWidth: 0
Flags: W
HStem: 0 21G<160 334 876.516 1130> 1326 20G<160 334 862.977 1101>
VStem: 160 174<0 607 739 1346> 881 220<1126 1346> 895 235<0 235>
DStem2: 334 739 496 672 0.667988 0.744172<58.3546 817.102> 496 672 334 607 0.686242 -0.727373<0 762.605>
LayerCount: 2
UndoRedoHistory
Layer: 1
Undoes
UndoOperation
Index: 0
Type: 12
WasModified: 0
WasOrder2: 0
EndUndoOperation
EndUndoes
Redoes
EndRedoes
EndUndoRedoHistory
Fore
SplineSet
334 0 m 1xe8
 160 0 l 1
 160 1346 l 1
 334 1346 l 1
 334 739 l 1
 881 1346 l 1
 1101 1346 l 1xf0
 496 672 l 1
 1130 0 l 1
 895 0 l 1
 334 607 l 1
 334 0 l 1xe8
EndSplineSet
Validated: 1
EndChar

StartChar: afii10029
Encoding: 65590 1051 185
Width: 1248
VWidth: 0
Flags: W
HStem: -46 137<-33.1393 60.6443> 0 21G<914 1088> 1205 141<391 914>
VStem: 224 154<856.725 1205> 914 174<0 1205>
LayerCount: 2
UndoRedoHistory
Layer: 1
Undoes
UndoOperation
Index: 0
Type: 12
WasModified: 0
WasOrder2: 0
EndUndoOperation
EndUndoes
Redoes
EndRedoes
EndUndoRedoHistory
Fore
SplineSet
914 0 m 1x78
 914 1205 l 1
 391 1205 l 1
 389 1148 380 991 378 939 c 0
 337 123 323 -10 -30 -46 c 1
 -60 91 l 1xb8
 145 144 160 94 207 1019 c 0
 212 1109 219 1238 224 1346 c 1
 1088 1346 l 1
 1088 0 l 1
 914 0 l 1x78
EndSplineSet
Validated: 1
EndChar

StartChar: afii10033
Encoding: 65594 1055 189
Width: 1368
VWidth: 0
Flags: W
HStem: 0 21G<160 334 1034 1208> 1208 138<334 1034>
VStem: 160 174<0 1208> 1034 174<0 1208>
LayerCount: 2
UndoRedoHistory
Layer: 1
Undoes
UndoOperation
Index: 0
Type: 12
WasModified: 0
WasOrder2: 0
EndUndoOperation
EndUndoes
Redoes
EndRedoes
EndUndoRedoHistory
Fore
SplineSet
334 1208 m 1
 334 0 l 1
 160 0 l 1
 160 1346 l 1
 1208 1346 l 1
 1208 0 l 1
 1034 0 l 1
 1034 1208 l 1
 334 1208 l 1
EndSplineSet
Validated: 1
EndChar

StartChar: afii10037
Encoding: 65598 1059 193
Width: 1248
VWidth: 0
Flags: W
HStem: 0 21G<390 586.51> 1326 20G<64 265.836 1019.63 1217>
DStem2: 255 1346 64 1346 0.478919 -0.877859<0 871.191> 390 0 577 0 0.429413 0.903108<80.3002 458.924 644.038 1489.98>
LayerCount: 2
UndoRedoHistory
Layer: 1
Undoes
UndoOperation
Index: 0
Type: 12
WasModified: 0
WasOrder2: 0
EndUndoOperation
EndUndoes
Redoes
EndRedoes
EndUndoRedoHistory
Fore
SplineSet
255 1346 m 1
 670 580 l 1
 1029 1346 l 1
 1217 1346 l 1
 577 0 l 1
 390 0 l 1
 567 424 l 1
 64 1346 l 1
 255 1346 l 1
EndSplineSet
Validated: 1
EndChar

StartChar: afii10038
Encoding: 65599 1060 194
Width: 1566
VWidth: 0
Flags: W
HStem: 0 21G<702 850> 116 143<516.621 702 850 1051.94> 1097 142<516.621 702 850 1051.94> 1341 20G<702 850>
VStem: 89 172<483.973 871.744> 702 148<0 117.72 259 1097 1238.07 1361> 1305 172<485.772 870.228>
LayerCount: 2
UndoRedoHistory
Layer: 1
Undoes
UndoOperation
Index: 0
Type: 12
WasModified: 0
WasOrder2: 0
EndUndoOperation
EndUndoes
Redoes
EndRedoes
EndUndoRedoHistory
Fore
SplineSet
850 1098 m 1
 850 258 l 1
 1165 287 1305 445 1305 678 c 0
 1305 911 1165 1069 850 1098 c 1
702 259 m 1
 702 1097 l 1
 401 1065 261 910 261 678 c 0
 261 445 401 291 702 259 c 1
850 0 m 1
 702 0 l 1
 702 116 l 1
 309 150 89 356 89 678 c 0
 89 1000 309 1205 702 1239 c 1
 702 1361 l 1
 850 1361 l 1
 850 1241 l 1
 1238 1215 1477 1019 1477 678 c 0
 1477 337 1238 141 850 115 c 1
 850 0 l 1
EndSplineSet
Validated: 1
EndChar

StartChar: afii10040
Encoding: 65601 1062 196
Width: 1386
VWidth: 0
Flags: W
HStem: 0 138<334 967> 1326 20G<160 334 967 1141>
VStem: 160 174<138 1346> 967 174<141 1346> 1120 160<-275 0>
LayerCount: 2
UndoRedoHistory
Layer: 1
Undoes
UndoOperation
Index: 0
Type: 12
WasModified: 0
WasOrder2: 0
EndUndoOperation
EndUndoes
Redoes
EndRedoes
EndUndoRedoHistory
Fore
SplineSet
1280 -275 m 1xe8
 1120 -275 l 1
 1120 0 l 1xe8
 160 0 l 1
 160 1346 l 1
 334 1346 l 1
 334 138 l 1
 967 138 l 1
 967 1346 l 1
 1141 1346 l 1
 1141 141 l 1xf0
 1280 141 l 1
 1280 -275 l 1xe8
EndSplineSet
Validated: 1
EndChar

StartChar: afii10041
Encoding: 65602 1063 197
Width: 1139
VWidth: 0
Flags: W
HStem: 0 21G<843 1017> 461 151<350.718 843> 1326 20G<109 283 843 1017>
VStem: 109 174<683.63 1346> 843 174<0 461 612 1346>
LayerCount: 2
UndoRedoHistory
Layer: 1
Undoes
UndoOperation
Index: 0
Type: 12
WasModified: 0
WasOrder2: 0
EndUndoOperation
EndUndoes
Redoes
EndRedoes
EndUndoRedoHistory
Fore
SplineSet
1017 0 m 1
 843 0 l 1
 843 461 l 1
 500 461 l 2
 247 461 109 595 109 834 c 2
 109 1346 l 1
 283 1346 l 1
 283 866 l 2
 283 649 365 612 533 612 c 2
 843 612 l 1
 843 1346 l 1
 1017 1346 l 1
 1017 0 l 1
EndSplineSet
Validated: 1
EndChar

StartChar: afii10042
Encoding: 65603 1064 198
Width: 1525
VWidth: 0
Flags: W
HStem: 0 141<298 682 843 1228> 1326 20G<136 298 682 843 1228 1390>
VStem: 136 162<141 1346> 682 161<141 1346> 1228 162<141 1346>
LayerCount: 2
UndoRedoHistory
Layer: 1
Undoes
UndoOperation
Index: 0
Type: 12
WasModified: 0
WasOrder2: 0
EndUndoOperation
EndUndoes
Redoes
EndRedoes
EndUndoRedoHistory
Fore
SplineSet
682 141 m 1
 682 1346 l 1
 843 1346 l 1
 843 141 l 1
 1228 141 l 1
 1228 1346 l 1
 1390 1346 l 1
 1390 0 l 1
 136 0 l 1
 136 1346 l 1
 298 1346 l 1
 298 141 l 1
 682 141 l 1
EndSplineSet
Validated: 1
EndChar

StartChar: afii10043
Encoding: 65604 1065 199
Width: 1591
VWidth: 0
Flags: W
HStem: 0 141<322 706 867 1252> 1326 20G<160 322 706 867 1252 1414>
VStem: 160 162<141 1346> 706 161<141 1346> 1252 162<141 1346> 1356 159<-275 0>
LayerCount: 2
UndoRedoHistory
Layer: 1
Undoes
UndoOperation
Index: 0
Type: 12
WasModified: 0
WasOrder2: 0
EndUndoOperation
EndUndoes
Redoes
EndRedoes
EndUndoRedoHistory
Fore
SplineSet
706 141 m 1xf4
 706 1346 l 1
 867 1346 l 1
 867 141 l 1
 1252 141 l 1
 1252 1346 l 1
 1414 1346 l 1
 1414 141 l 1xf8
 1515 141 l 1
 1515 -275 l 1
 1356 -275 l 1
 1356 0 l 1
 160 0 l 1
 160 1346 l 1
 322 1346 l 1
 322 141 l 1
 706 141 l 1xf4
EndSplineSet
Validated: 1
EndChar

StartChar: afii10044
Encoding: 65605 1066 200
Width: 1395
VWidth: 0
Flags: W
HStem: 0 142<623 1044.18> 633 140<623 1035.69> 1205 141<128 448>
VStem: 448 175<142 633 773 1205> 1137 175<225.192 541.797>
LayerCount: 2
UndoRedoHistory
Layer: 1
Undoes
UndoOperation
Index: 0
Type: 12
WasModified: 0
WasOrder2: 0
EndUndoOperation
EndUndoes
Redoes
EndRedoes
EndUndoRedoHistory
Fore
SplineSet
623 633 m 1
 623 142 l 1
 836 142 l 2
 1076 142 1137 232 1137 392 c 0
 1137 539 1062 633 833 633 c 2
 623 633 l 1
623 1346 m 1
 623 773 l 1
 814 773 l 2
 1128 773 1312 652 1312 389 c 0
 1312 126 1145 0 817 0 c 2
 448 0 l 1
 448 1205 l 1
 128 1205 l 1
 128 1346 l 1
 623 1346 l 1
EndSplineSet
Validated: 1
EndChar

StartChar: afii10045
Encoding: 65606 1067 201
Width: 1032
VWidth: 0
Flags: W
HStem: 0 141<324 675.605> 633 140<324 667.188> 1326 20G<149 324>
VStem: 149 175<141 633 773 1346> 774 175<233.27 533.959>
LayerCount: 2
UndoRedoHistory
Layer: 1
Undoes
UndoOperation
Index: 0
Type: 12
WasModified: 0
WasOrder2: 0
EndUndoOperation
EndUndoes
Redoes
EndRedoes
EndUndoRedoHistory
Fore
SplineSet
324 633 m 1
 324 141 l 1
 459 141 l 2
 689 141 774 223 774 383 c 0
 774 537 692 633 453 633 c 2
 324 633 l 1
324 1346 m 1
 324 773 l 1
 454 773 l 2
 776 773 949 634 949 387 c 0
 949 149 781 0 441 0 c 2
 149 0 l 1
 149 1346 l 1
 324 1346 l 1
EndSplineSet
Validated: 1
EndChar

StartChar: afii10046
Encoding: 65607 1068 202
Width: 1431
VWidth: 0
Flags: W
HStem: 0 141<723 1075.89> 633 140<723 1083.75> 1326 20G<149 324 548 723>
VStem: 149 175<0 1346> 548 175<141 633 773 1346> 1173 175<226.366 549.927>
LayerCount: 2
UndoRedoHistory
Layer: 1
Undoes
UndoOperation
Index: 0
Type: 12
WasModified: 0
WasOrder2: 0
EndUndoOperation
EndUndoes
Redoes
EndRedoes
EndUndoRedoHistory
Fore
SplineSet
149 1346 m 1
 324 1346 l 1
 324 0 l 1
 149 0 l 1
 149 1346 l 1
723 633 m 1
 723 141 l 1
 871 141 l 2
 1111 141 1173 232 1173 392 c 0
 1173 546 1104 633 874 633 c 2
 723 633 l 1
723 1346 m 1
 723 773 l 1
 862 773 l 2
 1181 773 1348 643 1348 396 c 0
 1348 158 1187 0 864 0 c 2
 548 0 l 1
 548 1346 l 1
 723 1346 l 1
EndSplineSet
Validated: 1
EndChar

StartChar: afii10047
Encoding: 65608 1069 203
Width: 1275
VWidth: 0
Flags: W
HStem: -21 138<286.89 716.073> 604 140<357 984> 1249 139<285.328 717.651>
VStem: 984 175<424.59 604 744 957.75>
LayerCount: 2
UndoRedoHistory
Layer: 1
Undoes
UndoOperation
Index: 0
Type: 12
WasModified: 0
WasOrder2: 0
EndUndoOperation
EndUndoes
Redoes
EndRedoes
EndUndoRedoHistory
Fore
SplineSet
519 -21 m 0
 340 -21 205 27 111 103 c 1
 169 226 l 1
 245 168 372 117 511 117 c 0
 802 117 958 336 984 604 c 1
 357 604 l 1
 357 744 l 1
 986 744 l 1
 970 1011 835 1249 500 1249 c 0
 364 1249 243 1198 168 1138 c 1
 116 1269 l 1
 208 1349 341 1388 521 1388 c 0
 943 1388 1159 1074 1159 689 c 0
 1159 287 939 -21 519 -21 c 0
EndSplineSet
Validated: 1
EndChar

StartChar: afii10048
Encoding: 65609 1070 204
Width: 1885
VWidth: 0
Flags: W
HStem: -21 138<1003.34 1354.84> 0 21G<136 298> 624 138<298 584.97> 1249 139<997.831 1348.76> 1340 20G<136 298>
VStem: 136 162<0 624 762 1360> 582 171<417.216 624 762 955.255> 1597 172<404.565 941.122>
LayerCount: 2
UndoRedoHistory
Layer: 1
Undoes
UndoOperation
Index: 0
Type: 12
WasModified: 0
WasOrder2: 0
EndUndoOperation
EndUndoes
Redoes
EndRedoes
EndUndoRedoHistory
Fore
SplineSet
1178 117 m 0xb7
 1459 117 1597 378 1597 681 c 0
 1597 969 1458 1249 1169 1249 c 0
 889 1249 753 977 753 679 c 0
 753 382 896 117 1178 117 c 0xb7
1176 -21 m 0
 816 -21 608 268 582 624 c 1
 298 624 l 1
 298 0 l 1
 136 0 l 1
 136 1360 l 1
 298 1360 l 1x6f
 298 762 l 1
 585 762 l 1
 614 1129 816 1388 1168 1388 c 0
 1549 1388 1769 1082 1769 675 c 0
 1769 293 1558 -21 1176 -21 c 0
EndSplineSet
Validated: 1
EndChar

StartChar: afii10049
Encoding: 65610 1071 205
Width: 1262
VWidth: 0
Flags: W
HStem: 0 21G<133 375.5 978 1152> 566 140<603.65 978> 1205 141<475.372 978>
VStem: 192 174<801.385 1107.96> 978 174<0 566 706 1205>
DStem2: 133 0 328 0 0.432304 0.901728<84.2993 675.558>
LayerCount: 2
UndoRedoHistory
Layer: 1
Undoes
UndoOperation
Index: 0
Type: 12
WasModified: 0
WasOrder2: 0
EndUndoOperation
EndUndoes
Redoes
EndRedoes
EndUndoRedoHistory
Fore
SplineSet
978 706 m 1
 978 1205 l 1
 693 1205 l 2
 463 1205 366 1121 366 961 c 0
 366 807 437 706 693 706 c 2
 978 706 l 1
328 0 m 1
 133 0 l 1
 183 106 382 486 440 602 c 1
 286 660 192 779 192 954 c 0
 192 1217 374 1346 710 1346 c 2
 1152 1346 l 1
 1152 0 l 1
 978 0 l 1
 978 566 l 1
 823 566 l 2
 685 566 637 569 602 572 c 1
 507 375 423 197 328 0 c 1
EndSplineSet
Validated: 1
EndChar

StartChar: afii10052
Encoding: 65612 1027 207
Width: 1047
VWidth: 0
Flags: W
HStem: 0 21G<160 334> 1205 141<334 995>
VStem: 160 174<0 1205>
LayerCount: 2
UndoRedoHistory
Layer: 1
Undoes
UndoOperation
Index: 0
Type: 12
WasModified: 0
WasOrder2: 0
EndUndoOperation
EndUndoes
Redoes
EndRedoes
EndUndoRedoHistory
Fore
SplineSet
995 1205 m 1
 334 1205 l 1
 334 0 l 1
 160 0 l 1
 160 1346 l 1
 1008 1346 l 1
 995 1205 l 1
EndSplineSet
Validated: 1
EndChar

StartChar: afii10053
Encoding: 65613 1028 208
Width: 1268
VWidth: 0
Flags: W
HStem: -21 138<565.633 989.487> 604 140<289 916> 1249 139<558.052 989.735>
VStem: 114 175<424.59 604 744 957.75>
LayerCount: 2
UndoRedoHistory
Layer: 1
Undoes
UndoOperation
Index: 0
Type: 12
WasModified: 0
WasOrder2: 0
EndUndoOperation
EndUndoes
Redoes
EndRedoes
EndUndoRedoHistory
Fore
SplineSet
754 -21 m 0
 334 -21 114 287 114 689 c 0
 114 1074 332 1388 760 1388 c 0
 937 1388 1068 1349 1158 1269 c 1
 1105 1138 l 1
 1030 1198 909 1249 773 1249 c 0
 438 1249 304 1011 288 744 c 1
 916 744 l 1
 916 604 l 1
 289 604 l 1
 315 336 472 117 763 117 c 0
 902 117 1028 168 1104 226 c 1
 1162 103 l 1
 1068 27 933 -21 754 -21 c 0
EndSplineSet
Validated: 1
EndChar

StartChar: afii10054
Encoding: 65614 1029 209
Width: 1200
VWidth: 0
Flags: W
HStem: -20 138<318.984 808.36> 1228 138<380.45 910.112>
VStem: 121 167<901.194 1144.66> 915 167<225.358 521.821>
DStem2: 487 824 428 682 0.969066 -0.246803<-178.977 442.431>
LayerCount: 2
UndoRedoHistory
Layer: 1
Undoes
UndoOperation
Index: 0
Type: 12
WasModified: 0
WasOrder2: 0
EndUndoOperation
EndUndoes
Redoes
EndRedoes
EndUndoRedoHistory
Fore
SplineSet
607 -20 m 0
 370 -20 202 40 119 91 c 1
 167 222 l 1
 289 162 443 118 617 118 c 0
 810 118 915 204 915 388 c 0
 915 497 868 570 695 614 c 2
 428 682 l 2
 241 729 121 829 121 1009 c 0
 121 1274 320 1366 618 1366 c 0
 785 1366 932 1336 1025 1278 c 1
 979 1155 l 1
 884 1201 770 1228 623 1228 c 0
 406 1228 288 1173 288 1020 c 0
 288 914 356 856 487 824 c 2
 743 763 l 2
 947 714 1082 615 1082 393 c 0
 1082 110 885 -20 607 -20 c 0
EndSplineSet
Validated: 1
EndChar

StartChar: afii10055
Encoding: 65615 1030 210
Width: 432
VWidth: 0
Flags: W
HStem: 0 21G<136 297> 1342 20G<136 297>
VStem: 136 161<0 1362>
LayerCount: 2
UndoRedoHistory
Layer: 1
Undoes
UndoOperation
Index: 0
Type: 12
WasModified: 0
WasOrder2: 0
EndUndoOperation
EndUndoes
Redoes
EndRedoes
EndUndoRedoHistory
Fore
SplineSet
136 0 m 1
 136 1362 l 1
 297 1362 l 1
 297 0 l 1
 136 0 l 1
EndSplineSet
Validated: 1
EndChar

StartChar: afii10057
Encoding: 65617 1032 212
Width: 632
VWidth: 0
Flags: W
HStem: -195 150<100 273.875> 1326 20G<323 498>
VStem: 323 175<-1.09277 1346>
LayerCount: 2
UndoRedoHistory
Layer: 1
Undoes
UndoOperation
Index: 0
Type: 12
WasModified: 0
WasOrder2: 0
EndUndoOperation
EndUndoes
Redoes
EndRedoes
EndUndoRedoHistory
Fore
SplineSet
100 -195 m 1
 81 -45 l 1
 148 -45 l 2
 314 -45 323 51 323 186 c 2
 323 1346 l 1
 498 1346 l 1
 498 219 l 2
 498 -61 452 -195 132 -195 c 2
 100 -195 l 1
EndSplineSet
Validated: 1
EndChar

StartChar: afii10058
Encoding: 65618 1033 213
Width: 1755
VWidth: 0
Flags: W
HStem: -24 143<78 245.718> 0 141<992 1382.43> 652 141<992 1379.33> 1205 141<468 818>
VStem: 294 174<164.099 1205> 818 174<141 652 793 1205> 1479 174<236.678 551.572>
LayerCount: 2
UndoRedoHistory
Layer: 1
Undoes
UndoOperation
Index: 0
Type: 12
WasModified: 0
WasOrder2: 0
EndUndoOperation
EndUndoes
Redoes
EndRedoes
EndUndoRedoHistory
Fore
SplineSet
992 652 m 1x7e
 992 141 l 1
 1227 141 l 2
 1377 141 1479 232 1479 392 c 0
 1479 552 1381 652 1227 652 c 2
 992 652 l 1x7e
78 -24 m 1xbe
 78 119 l 1
 120 119 l 2xbe
 285 119 294 214 294 349 c 2
 294 1346 l 1
 992 1346 l 1
 992 793 l 1
 1227 793 l 2
 1478 793 1653 676 1653 389 c 0
 1653 126 1485 0 1227 0 c 2
 818 0 l 1x7e
 818 1205 l 1
 468 1205 l 1
 468 394 l 2
 468 114 424 -24 104 -24 c 2
 78 -24 l 1xbe
EndSplineSet
Validated: 1
EndChar

StartChar: afii10059
Encoding: 65619 1034 214
Width: 1853
VWidth: 0
Flags: W
HStem: 0 129<1120 1522.34> 630 138<334 946> 653 126<1120 1525.2> 1326 20G<160 334 946 1120>
VStem: 160 174<0 630 768 1346> 946 174<129 630 779 1346> 1627 165<227.909 553.288>
LayerCount: 2
UndoRedoHistory
Layer: 1
Undoes
UndoOperation
Index: 0
Type: 12
WasModified: 0
WasOrder2: 0
EndUndoOperation
EndUndoes
Redoes
EndRedoes
EndUndoRedoHistory
Fore
SplineSet
334 630 m 1xde
 334 0 l 1
 160 0 l 1
 160 1346 l 1
 334 1346 l 1
 334 768 l 1
 946 768 l 1xde
 946 1346 l 1
 1120 1346 l 1
 1120 779 l 1
 1340 779 l 2xbe
 1664 779 1792 628 1792 393 c 0
 1792 155 1664 0 1334 0 c 2
 946 0 l 1
 946 630 l 1
 334 630 l 1xde
1335 653 m 2xbe
 1120 653 l 1
 1120 129 l 1
 1343 129 l 2
 1529 129 1627 212 1627 392 c 0
 1627 573 1527 653 1335 653 c 2xbe
EndSplineSet
Validated: 1
EndChar

StartChar: afii10066
Encoding: 65625 1073 220
Width: 983
VWidth: 0
Flags: W
HStem: -18 130<387.179 679.966> 653 125<377.352 682.199> 1036 129<569.107 803>
VStem: 89 171<248.438 641.985> 776 148<211.34 553.371>
LayerCount: 2
UndoRedoHistory
Layer: 1
Undoes
UndoOperation
Index: 0
Type: 12
WasModified: 0
WasOrder2: 0
EndUndoOperation
EndUndoes
Redoes
EndRedoes
EndUndoRedoHistory
Fore
SplineSet
516 112 m 0
 695 112 776 208 776 399 c 0
 776 550 681 653 547 653 c 0
 489 653 358 625 264 528 c 1
 261 502 260 478 260 455 c 0
 260 220 384 112 516 112 c 0
521 -18 m 0
 137 -18 89 354 89 484 c 0
 89 886 300 1145 803 1165 c 1
 824 1036 l 1
 526 1027 322 915 274 680 c 1
 364 733 450 778 562 778 c 0
 794 778 924 583 924 396 c 0
 924 163 766 -18 521 -18 c 0
EndSplineSet
Validated: 1
EndChar

StartChar: afii10067
Encoding: 65626 1074 221
Width: 1041
VWidth: 0
Flags: W
HStem: 0 122<324 736.993> 455 125<324 719.139> 870 129<324 713.367>
VStem: 149 175<122 455 580 870> 753 175<613.788 832.876> 785 175<164.864 413.112>
LayerCount: 2
UndoRedoHistory
Layer: 1
Undoes
UndoOperation
Index: 0
Type: 12
WasModified: 0
WasOrder2: 0
EndUndoOperation
EndUndoes
Redoes
EndRedoes
EndUndoRedoHistory
Fore
SplineSet
324 870 m 1xf8
 324 580 l 1
 599 580 l 2
 720 580 753 654 753 724 c 0
 753 807 708 870 587 870 c 2
 324 870 l 1xf8
324 455 m 1
 324 122 l 1
 590 122 l 2
 748 122 785 189 785 293 c 0xf4
 785 369 760 455 605 455 c 2
 324 455 l 1
149 0 m 1
 149 999 l 1
 595 999 l 2
 831 999 928 883 928 748 c 0xf8
 928 645 883 574 756 533 c 1
 908 497 960 376 960 288 c 0
 960 137 861 0 595 0 c 2
 149 0 l 1
EndSplineSet
Validated: 1
EndChar

StartChar: afii10068
Encoding: 65627 1075 222
Width: 846
VWidth: 0
Flags: W
HStem: 0 21G<149 324> 878 121<324 779>
VStem: 149 175<0 878>
LayerCount: 2
UndoRedoHistory
Layer: 1
Undoes
UndoOperation
Index: 0
Type: 12
WasModified: 0
WasOrder2: 0
EndUndoOperation
EndUndoes
Redoes
EndRedoes
EndUndoRedoHistory
Fore
SplineSet
779 878 m 1
 324 878 l 1
 324 0 l 1
 149 0 l 1
 149 999 l 1
 790 999 l 1
 779 878 l 1
EndSplineSet
Validated: 1
EndChar

StartChar: afii10069
Encoding: 65628 1076 223
Width: 1119
VWidth: 0
Flags: W
HStem: 0 120<322 795> 878 121<489 795>
VStem: 45 144<-275 0> 795 175<120 878> 901 148<-275 0>
DStem2: 259 451 434 478 0.140915 0.990022<-289.454 455.15>
LayerCount: 2
UndoRedoHistory
Layer: 1
Undoes
UndoOperation
Index: 0
Type: 12
WasModified: 0
WasOrder2: 0
EndUndoOperation
EndUndoes
Redoes
EndRedoes
EndUndoRedoHistory
Fore
SplineSet
795 878 m 1xf0
 489 878 l 1
 434 478 l 2
 408 292 357 153 322 120 c 1
 795 120 l 1
 795 878 l 1xf0
45 -275 m 1
 45 120 l 1
 133 120 l 1
 202 175 238 306 259 451 c 2
 337 999 l 1
 970 999 l 1
 970 120 l 1xf0
 1049 120 l 1
 1049 -275 l 1
 901 -275 l 1
 901 0 l 1xe8
 189 0 l 1
 189 -275 l 1
 45 -275 l 1
EndSplineSet
Validated: 1
EndChar

StartChar: afii10069.copy_1
Encoding: 65629 -1 224
Width: 1108
VWidth: 0
Flags: W
HStem: 0 120<316 795> 878 121<483 795>
VStem: 39 144<-275 0> 795 175<120 878> 901 148<-275 0>
DStem2: 253 451 428 478 0.140915 0.990022<-289.454 455.15>
LayerCount: 2
UndoRedoHistory
Layer: 1
Undoes
UndoOperation
Index: 0
Type: 12
WasModified: 0
WasOrder2: 0
EndUndoOperation
EndUndoes
Redoes
EndRedoes
EndUndoRedoHistory
Fore
SplineSet
795 878 m 1xf0
 483 878 l 1
 428 478 l 2
 402 292 351 153 316 120 c 1
 795 120 l 1
 795 878 l 1xf0
39 -275 m 1
 39 120 l 1
 127 120 l 1
 196 175 232 306 253 451 c 2
 331 999 l 1
 970 999 l 1
 970 120 l 1xf0
 1049 120 l 1
 1049 -275 l 1
 901 -275 l 1
 901 0 l 1xe8
 183 0 l 1
 183 -275 l 1
 39 -275 l 1
EndSplineSet
Validated: 1
EndChar

StartChar: afii10072
Encoding: 65633 1078 228
Width: 1415
VWidth: 0
Flags: W
HStem: 0 21G<37 239.435 623 791 1175.52 1378> 979 20G<46 245.595 623 791 1170.32 1369>
VStem: 37 185<0 185 814 999> 623 168<0 460 550 999> 1193 185<0 185 814 999>
DStem2: 37 0 222 0 0.666624 0.745394<123.325 685.544> 228 999 46 999 0.676271 -0.736653<0 539.375> 791 550 921 511 0.676271 0.736653<59.1858 599.237> 921 511 791 460 0.666624 -0.745394<0 562.218>
LayerCount: 2
UndoRedoHistory
Layer: 1
Undoes
UndoOperation
Index: 0
Type: 12
WasModified: 0
WasOrder2: 0
EndUndoOperation
EndUndoes
Redoes
EndRedoes
EndUndoRedoHistory
Fore
SplineSet
623 550 m 1
 623 999 l 1
 791 999 l 1
 791 550 l 1
 1188 999 l 1
 1369 999 l 1
 921 511 l 1
 1378 0 l 1
 1193 0 l 1
 791 460 l 1
 791 0 l 1
 623 0 l 1
 623 460 l 1
 222 0 l 1
 37 0 l 1
 494 511 l 1
 46 999 l 1
 228 999 l 1
 623 550 l 1
EndSplineSet
Validated: 1
EndChar

StartChar: afii10073
Encoding: 65634 1079 229
Width: 865
VWidth: 0
Flags: W
HStem: -18 130<196.987 546.908> 457 119<268 540.177> 886 133<190.984 538.202>
VStem: 591 157<624.996 836.037> 611 169<171.66 399.887>
LayerCount: 2
UndoRedoHistory
Layer: 1
Undoes
UndoOperation
Index: 0
Type: 12
WasModified: 0
WasOrder2: 0
EndUndoOperation
EndUndoes
Redoes
EndRedoes
EndUndoRedoHistory
Fore
SplineSet
780 270 m 0xe8
 780 112 627 -18 401 -18 c 0
 293 -18 182 3 98 70 c 1
 133 193 l 1
 190 149 301 112 401 112 c 0
 529 112 611 183 611 283 c 0xe8
 611 371 555 457 395 457 c 2
 268 457 l 1
 268 576 l 1
 395 576 l 2
 529 576 591 648 591 726 c 0
 591 825 524 886 386 886 c 0
 288 886 193 851 132 807 c 1
 132 807 101 893 88 925 c 1
 172 995 295 1019 402 1019 c 0
 653 1019 748 884 748 745 c 0xf0
 748 660 723 566 597 522 c 1
 722 480 780 379 780 270 c 0xe8
EndSplineSet
Validated: 1
EndChar

StartChar: afii10074
Encoding: 65635 1080 230
Width: 1066
VWidth: 0
Flags: W
HStem: 0 21G<130 289.022 784 937> 979 20G<130 283 784 937>
VStem: 130 153<238 999> 784 153<0 679 905 999>
DStem2: 283 238 274 0 0.600565 0.799576<0 653.496>
LayerCount: 2
UndoRedoHistory
Layer: 1
Undoes
UndoOperation
Index: 0
Type: 12
WasModified: 0
WasOrder2: 0
EndUndoOperation
EndUndoes
Redoes
EndRedoes
EndUndoRedoHistory
Fore
SplineSet
283 238 m 1
 784 905 l 1
 784 999 l 1
 937 999 l 1
 937 0 l 1
 784 0 l 1
 784 679 l 1
 274 0 l 1
 130 0 l 1
 130 999 l 1
 283 999 l 1
 283 238 l 1
EndSplineSet
Validated: 1
EndChar

StartChar: afii10076
Encoding: 65637 1082 232
Width: 1064
VWidth: 0
Flags: W
HStem: 0 21G<149 324 753.499 990> 979 19G<149 324 706.689 940>
VStem: 149 175<0 439 560 999> 725 215<783 998> 774 216<0 216>
DStem2: 324 560 473 502 0.685502 0.728071<59.9117 593.781> 473 502 324 439 0.717438 -0.696622<0 565.653>
LayerCount: 2
UndoRedoHistory
Layer: 1
Undoes
UndoOperation
Index: 0
Type: 12
WasModified: 0
WasOrder2: 0
EndUndoOperation
EndUndoes
Redoes
EndRedoes
EndUndoRedoHistory
Fore
SplineSet
149 999 m 1xe8
 324 999 l 1
 324 560 l 1
 725 998 l 1
 940 998 l 1xf0
 473 502 l 1
 990 0 l 1
 774 0 l 1
 324 439 l 1
 324 0 l 1
 149 0 l 1
 149 999 l 1xe8
EndSplineSet
Validated: 1
EndChar

StartChar: afii10077
Encoding: 65638 1083 233
Width: 1128
VWidth: 0
Flags: W
HStem: -14 132<62 174.31> 870 129<493 804>
VStem: 804 175<0 870>
DStem2: 268 480 434 454 0.139284 0.990252<-320.402 417.537>
LayerCount: 2
UndoRedoHistory
Layer: 1
Undoes
UndoOperation
Index: 0
Type: 12
WasModified: 0
WasOrder2: 0
EndUndoOperation
EndUndoes
Redoes
EndRedoes
EndUndoRedoHistory
Fore
SplineSet
804 0 m 1
 804 870 l 1
 493 870 l 1
 434 454 l 2
 393 167 333 -14 62 -14 c 1
 48 118 l 1
 192 118 227 187 268 480 c 2
 341 999 l 1
 979 999 l 1
 979 0 l 1
 804 0 l 1
EndSplineSet
Validated: 1
EndChar

StartChar: afii10077.copy_1
Encoding: 65639 -1 234
Width: 1128
VWidth: 0
Flags: W
HStem: -14 132<62 174.31> 870 129<493 804>
VStem: 804 175<0 870>
DStem2: 268 480 434 454 0.139284 0.990252<-320.402 417.537>
LayerCount: 2
UndoRedoHistory
Layer: 1
Undoes
UndoOperation
Index: 0
Type: 12
WasModified: 0
WasOrder2: 0
EndUndoOperation
EndUndoes
Redoes
EndRedoes
EndUndoRedoHistory
Fore
SplineSet
804 0 m 1
 804 870 l 1
 493 870 l 1
 434 454 l 2
 393 167 333 -14 62 -14 c 1
 48 118 l 1
 192 118 227 187 268 480 c 2
 341 999 l 1
 979 999 l 1
 979 0 l 1
 804 0 l 1
EndSplineSet
Validated: 1
EndChar

StartChar: afii10078
Encoding: 65640 1084 235
Width: 1171
VWidth: 0
Flags: W
HStem: 0 21G<149 302 869 1022> 979 20G<149 311.218 860.717 1022>
VStem: 149 153<0 711> 869 153<0 711>
DStem2: 302 999 302 711 0.418589 -0.908176<261.555 676.081> 585 385 640 205 0.421024 0.907049<0 415.269>
LayerCount: 2
UndoRedoHistory
Layer: 1
Undoes
UndoOperation
Index: 0
Type: 12
WasModified: 0
WasOrder2: 0
EndUndoOperation
EndUndoes
Redoes
EndRedoes
EndUndoRedoHistory
Fore
SplineSet
870 999 m 1
 1022 999 l 1
 1022 0 l 1
 869 0 l 1
 869 711 l 1
 640 205 l 1
 543 205 l 1
 302 711 l 1
 302 0 l 1
 149 0 l 1
 149 999 l 1
 302 999 l 1
 585 385 l 1
 870 999 l 1
EndSplineSet
Validated: 1
EndChar

StartChar: afii10078.copy_1
Encoding: 65641 -1 236
Width: 1171
VWidth: 0
Flags: W
HStem: 0 21G<149 302 869 1022> 979 20G<149 311.218 860.717 1022>
VStem: 149 153<0 711> 869 153<0 711>
DStem2: 302 999 302 711 0.418589 -0.908176<261.555 676.081> 585 385 640 205 0.421024 0.907049<0 415.269>
LayerCount: 2
UndoRedoHistory
Layer: 1
Undoes
UndoOperation
Index: 0
Type: 12
WasModified: 0
WasOrder2: 0
EndUndoOperation
EndUndoes
Redoes
EndRedoes
EndUndoRedoHistory
Fore
SplineSet
870 999 m 1
 1022 999 l 1
 1022 0 l 1
 869 0 l 1
 869 711 l 1
 640 205 l 1
 543 205 l 1
 302 711 l 1
 302 0 l 1
 149 0 l 1
 149 999 l 1
 302 999 l 1
 585 385 l 1
 870 999 l 1
EndSplineSet
Validated: 1
EndChar

StartChar: afii10079
Encoding: 65642 1085 237
Width: 1143
VWidth: 0
Flags: W
HStem: 0 21G<149 324 819 994> 471 123<324 819> 979 20G<149 324 819 994>
VStem: 149 175<0 471 594 999> 819 175<0 471 594 999>
LayerCount: 2
UndoRedoHistory
Layer: 1
Undoes
UndoOperation
Index: 0
Type: 12
WasModified: 0
WasOrder2: 0
EndUndoOperation
EndUndoes
Redoes
EndRedoes
EndUndoRedoHistory
Fore
SplineSet
819 594 m 1
 819 999 l 1
 994 999 l 1
 994 0 l 1
 819 0 l 1
 819 471 l 1
 324 471 l 1
 324 0 l 1
 149 0 l 1
 149 999 l 1
 324 999 l 1
 324 594 l 1
 819 594 l 1
EndSplineSet
Validated: 1
EndChar

StartChar: afii10079.copy_1
Encoding: 65643 -1 238
Width: 1104
VWidth: 0
Flags: W
HStem: 0 21G<130 305 800 975> 471 123<305 800> 979 20G<130 305 800 975>
VStem: 130 175<0 471 594 999> 800 175<0 471 594 999>
LayerCount: 2
UndoRedoHistory
Layer: 1
Undoes
UndoOperation
Index: 0
Type: 12
WasModified: 0
WasOrder2: 0
EndUndoOperation
EndUndoes
Redoes
EndRedoes
EndUndoRedoHistory
Fore
SplineSet
800 594 m 1
 800 999 l 1
 975 999 l 1
 975 0 l 1
 800 0 l 1
 800 471 l 1
 305 471 l 1
 305 0 l 1
 130 0 l 1
 130 999 l 1
 305 999 l 1
 305 594 l 1
 800 594 l 1
EndSplineSet
Validated: 1
EndChar

StartChar: afii10081
Encoding: 65646 1087 241
Width: 1066
VWidth: 0
Flags: W
HStem: 0 21G<130 283 784 937> 870 129<283 784>
VStem: 130 153<0 870> 784 153<0 870>
LayerCount: 2
UndoRedoHistory
Layer: 1
Undoes
UndoOperation
Index: 0
Type: 12
WasModified: 0
WasOrder2: 0
EndUndoOperation
EndUndoes
Redoes
EndRedoes
EndUndoRedoHistory
Fore
SplineSet
784 0 m 1
 784 870 l 1
 283 870 l 1
 283 0 l 1
 130 0 l 1
 130 999 l 1
 937 999 l 1
 937 0 l 1
 784 0 l 1
EndSplineSet
Validated: 1
EndChar

StartChar: afii10082
Encoding: 65647 1088 242
Width: 1177
VWidth: 0
Flags: W
HStem: -433 21G<133 308> -21 128<441.435 752.218> 890 129<444.427 750.567> 978 20G<133 293.086>
VStem: 133 175<-423 136 257.06 749.844> 133 158<860.543 998> 890 175<267.716 731.235>
LayerCount: 2
UndoRedoHistory
Layer: 1
Undoes
UndoOperation
Index: 0
Type: 12
WasModified: 0
WasOrder2: 0
EndUndoOperation
EndUndoes
Redoes
EndRedoes
EndUndoRedoHistory
Fore
SplineSet
599 107 m 0xea
 790 107 890 261 890 500 c 0
 890 734 794 890 600 890 c 0
 394 890 308 746 308 516 c 0
 308 257 384 107 599 107 c 0xea
133 998 m 1xd6
 291 998 l 1xd6
 308 835 l 1
 363 953 489 1019 626 1019 c 0
 905 1019 1065 800 1065 494 c 0
 1065 196 887 -21 627 -21 c 0
 495 -21 369 43 303 136 c 1
 307 70 308 7 308 -55 c 2
 308 -423 l 1xea
 133 -433 l 1
 133 998 l 1xd6
EndSplineSet
Validated: 1
EndChar

StartChar: afii10084
Encoding: 65649 1090 244
Width: 883
VWidth: 0
Flags: W
HStem: 0 21G<354 529> 870 129<74 354 529 809>
VStem: 354 175<0 870>
LayerCount: 2
UndoRedoHistory
Layer: 1
Undoes
UndoOperation
Index: 0
Type: 12
WasModified: 0
WasOrder2: 0
EndUndoOperation
EndUndoes
Redoes
EndRedoes
EndUndoRedoHistory
Fore
SplineSet
809 999 m 1
 809 870 l 1
 529 870 l 1
 529 0 l 1
 354 0 l 1
 354 870 l 1
 74 870 l 1
 74 999 l 1
 809 999 l 1
EndSplineSet
Validated: 1
EndChar

StartChar: afii10085
Encoding: 65650 1091 245
Width: 1013
VWidth: 0
Flags: W
HStem: -293 138<92 326.458> 978 20G<52 249.015 801.259 992>
DStem2: 491 111 628 40 0.355184 0.934797<-224.291 0 181.46 848.013>
LayerCount: 2
UndoRedoHistory
Layer: 1
Undoes
UndoOperation
Index: 0
Type: 12
WasModified: 0
WasOrder2: 0
EndUndoOperation
EndUndoes
Redoes
EndRedoes
EndUndoRedoHistory
Fore
SplineSet
92 -292 m 1
 86 -153 l 1
 105 -155 122 -155 139 -155 c 0
 421 -155 467 48 491 111 c 1
 52 998 l 1
 240 998 l 1
 565 277 l 1
 808 998 l 1
 992 998 l 1
 628 40 l 2
 569 -117 448 -293 138 -293 c 0
 123 -293 108 -293 92 -292 c 1
EndSplineSet
Validated: 1
EndChar

StartChar: afii10086
Encoding: 65651 1092 246
Width: 1345
VWidth: 0
Flags: W
HStem: 29 124<326.595 573.942 738.056 984.023> 850 124<318.89 573.896 738.102 991.867>
VStem: 64 160<281.806 732.511> 576 160<-280 52 164.147 837.095 945 1194> 1088 160<282.027 729.38>
CounterMasks: 1 38
LayerCount: 2
UndoRedoHistory
Layer: 1
Undoes
UndoOperation
Index: 0
Type: 12
WasModified: 0
WasOrder2: 0
EndUndoOperation
EndUndoes
Redoes
EndRedoes
EndUndoRedoHistory
Fore
SplineSet
885 153 m 0
 1013 153 1088 327 1088 506 c 0
 1088 687 1016 850 888 850 c 0
 847 850 782 844 736 821 c 1
 736 180 l 1
 780 157 846 153 885 153 c 0
426 153 m 0
 465 153 532 158 576 178 c 1
 576 824 l 1
 530 847 462 850 423 850 c 0
 294 850 224 687 224 506 c 0
 224 327 297 153 426 153 c 0
736 -280 m 1
 576 -280 l 1
 576 52 l 1
 533 35 462 29 421 29 c 0
 209 29 64 249 64 508 c 0
 64 768 206 974 423 974 c 0
 462 974 533 962 576 945 c 1
 576 1194 l 1
 736 1194 l 1
 736 945 l 1
 779 962 847 974 888 974 c 0
 1104 974 1248 768 1248 508 c 0
 1248 250 1102 29 889 29 c 0
 848 29 779 35 736 52 c 1
 736 -280 l 1
EndSplineSet
Validated: 1
EndChar

StartChar: afii10088
Encoding: 65653 1094 248
Width: 1094
VWidth: 0
Flags: W
HStem: 0 120<324 774> 979 20G<150 324 774 948>
VStem: 150 174<120 999> 774 174<121 999> 871 175<-275 0>
LayerCount: 2
UndoRedoHistory
Layer: 1
Undoes
UndoOperation
Index: 0
Type: 12
WasModified: 0
WasOrder2: 0
EndUndoOperation
EndUndoes
Redoes
EndRedoes
EndUndoRedoHistory
Fore
SplineSet
1046 -275 m 1xe8
 871 -275 l 1
 871 0 l 1xe8
 150 0 l 1
 150 999 l 1
 324 999 l 1
 324 120 l 1
 774 120 l 1
 774 999 l 1
 948 999 l 1
 948 121 l 1xf0
 1046 121 l 1
 1046 -275 l 1xe8
EndSplineSet
Validated: 1
EndChar

StartChar: afii10089
Encoding: 65654 1095 249
Width: 1013
VWidth: 0
Flags: W
HStem: 0 21G<689 864> 359 131<350.391 689> 979 20G<113 288 689 864>
VStem: 113 175<556.561 999> 689 175<0 368 494.746 999>
LayerCount: 2
UndoRedoHistory
Layer: 1
Undoes
UndoOperation
Index: 0
Type: 12
WasModified: 0
WasOrder2: 0
EndUndoOperation
EndUndoes
Redoes
EndRedoes
EndUndoRedoHistory
Fore
SplineSet
864 0 m 1
 689 0 l 1
 689 368 l 1
 689 368 586 359 470 359 c 0
 238 359 113 499 113 750 c 2
 113 999 l 1
 288 999 l 1
 288 766 l 2
 288 548 347 490 498 490 c 0
 601 490 689 498 689 498 c 1
 689 999 l 1
 864 999 l 1
 864 0 l 1
EndSplineSet
Validated: 1
EndChar

StartChar: afii10090
Encoding: 65655 1096 250
Width: 1354
VWidth: 0
Flags: W
HStem: 0 120<358 621 787 1050> 979 20G<192 358 621 787 1050 1216>
VStem: 192 166<120 999> 621 166<120 999> 1050 166<120 999>
CounterMasks: 1 38
LayerCount: 2
UndoRedoHistory
Layer: 1
Undoes
UndoOperation
Index: 0
Type: 12
WasModified: 0
WasOrder2: 0
EndUndoOperation
EndUndoes
Redoes
EndRedoes
EndUndoRedoHistory
Fore
SplineSet
621 120 m 1
 621 999 l 1
 787 999 l 1
 787 120 l 1
 1050 120 l 1
 1050 999 l 1
 1216 999 l 1
 1216 0 l 1
 192 0 l 1
 192 999 l 1
 358 999 l 1
 358 120 l 1
 621 120 l 1
EndSplineSet
Validated: 1
EndChar

StartChar: afii10091
Encoding: 65656 1097 251
Width: 1354
VWidth: 0
Flags: W
HStem: 0 120<324 606 780 1030> 979 20G<150 324 606 780 1030 1204>
VStem: 150 174<120 999> 606 174<120 999> 1030 174<120 999> 1127 175<-275 0>
LayerCount: 2
UndoRedoHistory
Layer: 1
Undoes
UndoOperation
Index: 0
Type: 12
WasModified: 0
WasOrder2: 0
EndUndoOperation
EndUndoes
Redoes
EndRedoes
EndUndoRedoHistory
Fore
SplineSet
1127 -275 m 1xf4
 1127 0 l 1xf4
 150 0 l 1
 150 999 l 1
 324 999 l 1
 324 120 l 1
 606 120 l 1
 606 999 l 1
 780 999 l 1
 780 120 l 1
 1030 120 l 1
 1030 999 l 1
 1204 999 l 1
 1204 120 l 1xf8
 1302 120 l 1
 1302 -275 l 1
 1127 -275 l 1xf4
EndSplineSet
Validated: 1
EndChar

StartChar: afii10092
Encoding: 65657 1098 252
Width: 996
VWidth: 0
Flags: W
HStem: 0 122<377 688.668> 511 124<377 692.353> 878 121<43 203>
VStem: 203 174<122 511 635 878> 750 174<182.662 458.55>
LayerCount: 2
UndoRedoHistory
Layer: 1
Undoes
UndoOperation
Index: 0
Type: 12
WasModified: 0
WasOrder2: 0
EndUndoOperation
EndUndoes
Redoes
EndRedoes
EndUndoRedoHistory
Fore
SplineSet
377 122 m 1
 587 122 l 2
 707 122 750 239 750 329 c 0
 750 419 701 511 581 511 c 2
 377 511 l 1
 377 122 l 1
203 0 m 1
 203 878 l 1
 43 878 l 1
 43 999 l 1
 377 999 l 1
 377 635 l 1
 579 635 l 2
 823 635 924 490 924 326 c 0
 924 162 829 0 585 0 c 2
 203 0 l 1
EndSplineSet
Validated: 1
EndChar

StartChar: afii10093
Encoding: 65658 1099 253
Width: 1397
VWidth: 0
Flags: W
HStem: 0 122<323 634.668> 511 124<323 638.353> 979 20G<149 323 1074 1248>
VStem: 149 174<122 511 635 999> 696 174<182.662 458.55> 1074 174<0 998>
LayerCount: 2
UndoRedoHistory
Layer: 1
Undoes
UndoOperation
Index: 0
Type: 12
WasModified: 0
WasOrder2: 0
EndUndoOperation
EndUndoes
Redoes
EndRedoes
EndUndoRedoHistory
Fore
SplineSet
323 511 m 1
 323 122 l 1
 533 122 l 2
 653 122 696 239 696 329 c 0
 696 419 647 511 527 511 c 2
 323 511 l 1
323 999 m 1
 323 635 l 1
 525 635 l 2
 769 635 870 490 870 326 c 0
 870 162 775 0 531 0 c 2
 149 0 l 1
 149 999 l 1
 323 999 l 1
1074 0 m 1
 1074 998 l 1
 1248 998 l 1
 1248 0 l 1
 1074 0 l 1
EndSplineSet
Validated: 1
EndChar

StartChar: afii10094
Encoding: 65659 1100 254
Width: 942
VWidth: 0
Flags: W
HStem: 0 122<323 634.668> 511 124<323 638.353> 979 20G<149 323>
VStem: 149 174<122 511 635 999> 696 174<182.662 458.55>
LayerCount: 2
UndoRedoHistory
Layer: 1
Undoes
UndoOperation
Index: 0
Type: 12
WasModified: 0
WasOrder2: 0
EndUndoOperation
EndUndoes
Redoes
EndRedoes
EndUndoRedoHistory
Fore
SplineSet
323 511 m 1
 323 122 l 1
 533 122 l 2
 653 122 696 239 696 329 c 0
 696 419 647 511 527 511 c 2
 323 511 l 1
323 999 m 1
 323 635 l 1
 525 635 l 2
 769 635 870 490 870 326 c 0
 870 162 775 0 531 0 c 2
 149 0 l 1
 149 999 l 1
 323 999 l 1
EndSplineSet
Validated: 1
EndChar

StartChar: afii10094.copy_1
Encoding: 65660 -1 255
Width: 940
VWidth: 0
Flags: W
HStem: 0 122<302 613.668> 511 124<302 617.353> 979 20G<128 302>
VStem: 128 174<122 511 635 999> 675 174<182.662 458.55>
LayerCount: 2
UndoRedoHistory
Layer: 1
Undoes
UndoOperation
Index: 0
Type: 12
WasModified: 0
WasOrder2: 0
EndUndoOperation
EndUndoes
Redoes
EndRedoes
EndUndoRedoHistory
Fore
SplineSet
302 511 m 1
 302 122 l 1
 512 122 l 2
 632 122 675 239 675 329 c 0
 675 419 626 511 506 511 c 2
 302 511 l 1
302 999 m 1
 302 635 l 1
 504 635 l 2
 748 635 849 490 849 326 c 0
 849 162 754 0 510 0 c 2
 128 0 l 1
 128 999 l 1
 302 999 l 1
EndSplineSet
Validated: 1
EndChar

StartChar: afii10095
Encoding: 65661 1101 256
Width: 1010
VWidth: 0
Flags: W
HStem: -23 126<211.907 568.189> 434 129<316 737> 897 126<214.752 578.753>
VStem: 737 161<283.003 434 563 719.658>
LayerCount: 2
UndoRedoHistory
Layer: 1
Undoes
UndoOperation
Index: 0
Type: 12
WasModified: 0
WasOrder2: 0
EndUndoOperation
EndUndoes
Redoes
EndRedoes
EndUndoRedoHistory
Fore
SplineSet
411 -23 m 0
 285 -23 178 10 116 64 c 1
 157 177 l 1
 241 126 322 103 402 103 c 0
 591 103 716 234 737 434 c 1
 316 434 l 1
 316 563 l 1
 737 563 l 1
 717 764 608 897 401 897 c 0
 303 897 218 860 157 821 c 1
 115 932 l 1
 186 993 302 1023 409 1023 c 0
 741 1023 898 776 898 496 c 0
 898 227 735 -23 411 -23 c 0
EndSplineSet
Validated: 1
EndChar

StartChar: afii10096
Encoding: 65662 1102 257
Width: 1395
VWidth: 0
Flags: W
HStem: -23 126<726.291 1003.34> 0 21G<130 283> 435 127<283 445.12> 897 126<727.138 1006.93> 979 20G<130 283>
VStem: 130 153<0 435 562 999> 442 156<259.539 435 562 742.453> 1124 158<245.096 761.456>
LayerCount: 2
UndoRedoHistory
Layer: 1
Undoes
UndoOperation
Index: 0
Type: 12
WasModified: 0
WasOrder2: 0
EndUndoOperation
EndUndoes
Redoes
EndRedoes
EndUndoRedoHistory
Fore
SplineSet
868 103 m 0xb7
 1065 103 1124 294 1124 498 c 0
 1124 710 1072 897 865 897 c 0
 668 897 598 699 598 495 c 0
 598 294 668 103 868 103 c 0xb7
865 -23 m 0
 586 -23 459 177 442 435 c 1
 283 435 l 1
 283 0 l 1
 130 0 l 1
 130 999 l 1
 283 999 l 1x6f
 283 562 l 1
 442 562 l 1
 460 819 589 1023 868 1023 c 0
 1174 1023 1282 788 1282 500 c 0
 1282 223 1164 -23 865 -23 c 0
EndSplineSet
Validated: 1
EndChar

StartChar: afii10097
Encoding: 65663 1103 258
Width: 1055
VWidth: 0
Flags: W
HStem: 0 21G<107 311.173 733 906> 399 128<485 733> 870 129<330.907 733>
VStem: 106 174<574.667 820.933> 733 173<0 399 527 870>
DStem2: 107 0 302 0 0.445499 0.895282<86.8724 466.892>
LayerCount: 2
UndoRedoHistory
Layer: 1
Undoes
UndoOperation
Index: 0
Type: 12
WasModified: 0
WasOrder2: 0
EndUndoOperation
EndUndoes
Redoes
EndRedoes
EndUndoRedoHistory
Fore
SplineSet
444 527 m 2
 733 527 l 1
 733 870 l 1
 444 870 l 2
 323 870 280 776 280 693 c 0
 280 617 323 527 444 527 c 2
107 0 m 1
 315 418 l 1
 174 462 106 577 106 693 c 0
 106 849 209 999 454 999 c 2
 906 999 l 1
 906 0 l 1
 733 0 l 1
 733 399 l 1
 485 399 l 1
 302 0 l 1
 107 0 l 1
EndSplineSet
Validated: 1
EndChar

StartChar: afii10099
Encoding: 65664 1106 259
Width: 1130
VWidth: 0
Flags: W
HStem: -258 130<655 829.195> 0 21G<198 351> 672 140<502.649 791.161> 999 106<113 198 351 729> 1354 20G<198 351>
VStem: 198 153<0 534.213 649 999 1105 1374> 858 153<-97.4437 597.675>
LayerCount: 2
UndoRedoHistory
Layer: 1
Undoes
UndoOperation
Index: 0
Type: 12
WasModified: 0
WasOrder2: 0
EndUndoOperation
EndUndoes
Redoes
EndRedoes
EndUndoRedoHistory
Fore
SplineSet
655 -258 m 1
 644 -128 l 1
 683 -128 l 2
 840 -128 858 -100 858 95 c 2
 858 335 l 2
 858 561 828 672 658 672 c 0
 502 672 376 545 351 450 c 1
 351 0 l 1
 198 0 l 1
 198 999 l 1
 113 999 l 1
 113 1105 l 1
 198 1105 l 1
 198 1374 l 1
 351 1374 l 1
 351 1105 l 1
 729 1105 l 1
 729 999 l 1
 351 999 l 1
 351 649 l 1
 431 750 536 812 672 812 c 0
 906 812 1011 667 1011 405 c 2
 1011 144 l 2
 1011 -134 990 -258 720 -258 c 2
 655 -258 l 1
EndSplineSet
Validated: 1
EndChar

StartChar: afii10101
Encoding: 65666 1108 261
Width: 1004
VWidth: 0
Flags: W
HStem: -23 126<437.811 794.412> 434 129<269 691> 897 126<427.701 792.152>
VStem: 108 161<283.003 434 563 719.658>
LayerCount: 2
UndoRedoHistory
Layer: 1
Undoes
UndoOperation
Index: 0
Type: 12
WasModified: 0
WasOrder2: 0
EndUndoOperation
EndUndoes
Redoes
EndRedoes
EndUndoRedoHistory
Fore
SplineSet
595 -23 m 0
 271 -23 108 227 108 496 c 0
 108 776 266 1023 598 1023 c 0
 705 1023 821 993 892 932 c 1
 850 821 l 1
 789 860 703 897 605 897 c 0
 398 897 289 764 269 563 c 1
 691 563 l 1
 691 434 l 1
 269 434 l 1
 290 234 415 103 604 103 c 0
 684 103 765 126 849 177 c 1
 891 64 l 1
 829 10 721 -23 595 -23 c 0
EndSplineSet
Validated: 1
EndChar

StartChar: afii10106
Encoding: 65671 1113 266
Width: 1648
VWidth: 0
Flags: W
HStem: -23 139<107 242.723> 0 120<1004 1330.21> 511 124<1004 1336.04> 870 129<422 851>
VStem: 269 153<138.257 870> 851 153<120 511 635 870> 1393 148<183.926 452.027>
LayerCount: 2
UndoRedoHistory
Layer: 1
Undoes
UndoOperation
Index: 0
Type: 12
WasModified: 0
WasOrder2: 0
EndUndoOperation
EndUndoes
Redoes
EndRedoes
EndUndoRedoHistory
Fore
SplineSet
1004 511 m 1x7e
 1004 120 l 1
 1224 120 l 2
 1344 120 1393 239 1393 329 c 0
 1393 419 1338 511 1218 511 c 2
 1004 511 l 1x7e
107 -23 m 1xbe
 98 116 l 1
 141 116 l 2xbe
 267 116 269 168 269 372 c 2
 269 999 l 1
 1004 999 l 1
 1004 635 l 1
 1196 635 l 2
 1440 635 1541 490 1541 326 c 0
 1541 162 1446 0 1202 0 c 2
 851 0 l 1x7e
 851 870 l 1
 422 870 l 1
 422 381 l 2
 422 83 419 -23 141 -23 c 2
 107 -23 l 1xbe
EndSplineSet
Validated: 1
EndChar

StartChar: afii10107
Encoding: 65672 1114 267
Width: 1515
VWidth: 0
Flags: W
HStem: 0 120<875 1197.21> 471 123<283 722> 511 124<875 1203.04> 979 20G<130 283 722 875>
VStem: 130 153<0 471 594 999> 722 153<120 471 635 999> 1260 148<183.926 452.027>
LayerCount: 2
UndoRedoHistory
Layer: 1
Undoes
UndoOperation
Index: 0
Type: 12
WasModified: 0
WasOrder2: 0
EndUndoOperation
EndUndoes
Redoes
EndRedoes
EndUndoRedoHistory
Fore
SplineSet
875 511 m 1xbe
 875 120 l 1
 1091 120 l 2
 1211 120 1260 239 1260 329 c 0
 1260 419 1205 511 1085 511 c 2
 875 511 l 1xbe
722 594 m 1xde
 722 999 l 1
 875 999 l 1
 875 635 l 1
 1063 635 l 2xbe
 1307 635 1408 490 1408 326 c 0
 1408 162 1313 0 1069 0 c 2
 722 0 l 1
 722 471 l 1
 283 471 l 1
 283 0 l 1
 130 0 l 1
 130 999 l 1
 283 999 l 1
 283 594 l 1
 722 594 l 1xde
EndSplineSet
Validated: 1
EndChar

StartChar: afii10108
Encoding: 65673 1115 268
Width: 1128
VWidth: 0
Flags: W
HStem: 0 21G<192 366 754 928> 519 131<367.462 707.058> 954 106<64 192 366 704> 1327 20G<192 345>
VStem: 192 174<0 507.179 630 954> 192 153<1060 1347> 754 174<0 468.589>
LayerCount: 2
UndoRedoHistory
Layer: 1
Undoes
UndoOperation
Index: 0
Type: 12
WasModified: 0
WasOrder2: 0
EndUndoOperation
EndUndoes
Redoes
EndRedoes
EndUndoRedoHistory
Fore
SplineSet
366 0 m 1xfa
 192 0 l 1
 192 954 l 1xfa
 64 954 l 1
 64 1060 l 1
 192 1060 l 1
 192 1347 l 1
 345 1347 l 1
 345 1060 l 1xf6
 704 1060 l 1
 704 954 l 1
 366 954 l 1
 366 630 l 1
 398 633 473 650 598 650 c 0
 830 650 928 520 928 269 c 2
 928 0 l 1
 754 0 l 1
 754 233 l 2
 754 451 727 519 576 519 c 0
 470 519 395 504 366 502 c 1
 366 0 l 1xfa
EndSplineSet
Validated: 1
EndChar

StartChar: afii10108.copy_1
Encoding: 65674 -1 269
Width: 1128
VWidth: 0
Flags: W
HStem: 0 21G<192 366 754 928> 519 131<367.462 707.058> 954 106<64 192 366 704> 1327 20G<192 345>
VStem: 192 174<0 507.179 630 954> 192 153<1060 1347> 754 174<0 468.589>
LayerCount: 2
UndoRedoHistory
Layer: 1
Undoes
UndoOperation
Index: 0
Type: 12
WasModified: 0
WasOrder2: 0
EndUndoOperation
EndUndoes
Redoes
EndRedoes
EndUndoRedoHistory
Fore
SplineSet
366 0 m 1xfa
 192 0 l 1
 192 954 l 1xfa
 64 954 l 1
 64 1060 l 1
 192 1060 l 1
 192 1347 l 1
 345 1347 l 1
 345 1060 l 1xf6
 704 1060 l 1
 704 954 l 1
 366 954 l 1
 366 630 l 1
 398 633 473 650 598 650 c 0
 830 650 928 520 928 269 c 2
 928 0 l 1
 754 0 l 1
 754 233 l 2
 754 451 727 519 576 519 c 0
 470 519 395 504 366 502 c 1
 366 0 l 1xfa
EndSplineSet
Validated: 1
EndChar

StartChar: afii10145
Encoding: 65677 1039 272
Width: 1327
VWidth: 0
Flags: W
HStem: 0 138<334 601 760 993> 1326 20G<160 334 993 1167>
VStem: 160 174<138 1346> 601 159<-275 0> 993 174<138 1346>
LayerCount: 2
UndoRedoHistory
Layer: 1
Undoes
UndoOperation
Index: 0
Type: 12
WasModified: 0
WasOrder2: 0
EndUndoOperation
EndUndoes
Redoes
EndRedoes
EndUndoRedoHistory
Fore
SplineSet
760 0 m 1
 760 -275 l 1
 601 -275 l 1
 601 0 l 1
 160 0 l 1
 160 1346 l 1
 334 1346 l 1
 334 138 l 1
 993 138 l 1
 993 1346 l 1
 1167 1346 l 1
 1167 0 l 1
 760 0 l 1
EndSplineSet
Validated: 1
EndChar

StartChar: afii10193
Encoding: 65678 1119 273
Width: 1025
VWidth: 0
Flags: W
HStem: 0 120<283 470 604 743> 979 20G<130 283 743 896>
VStem: 130 153<120 999> 474 124<-253 0> 743 153<120 999>
LayerCount: 2
UndoRedoHistory
Layer: 1
Undoes
UndoOperation
Index: 0
Type: 12
WasModified: 0
WasOrder2: 0
EndUndoOperation
EndUndoes
Redoes
EndRedoes
EndUndoRedoHistory
Fore
SplineSet
283 999 m 1
 283 120 l 1
 743 120 l 1
 743 999 l 1
 896 999 l 1
 896 0 l 1
 604 0 l 1
 598 -253 l 1
 474 -253 l 1
 470 0 l 1
 130 0 l 1
 130 999 l 1
 283 999 l 1
EndSplineSet
Validated: 1
EndChar

StartChar: afii57929
Encoding: 65679 700 274
Width: 458
VWidth: 0
Flags: W
HStem: 1003 429<206 227>
VStem: 121 228
LayerCount: 2
UndoRedoHistory
Layer: 1
Undoes
UndoOperation
Index: 0
Type: 12
WasModified: 0
WasOrder2: 0
EndUndoOperation
EndUndoes
Redoes
EndRedoes
EndUndoRedoHistory
Fore
SplineSet
121 1003 m 1
 206 1432 l 1
 349 1432 l 1
 227 1003 l 1
 121 1003 l 1
EndSplineSet
Validated: 1
EndChar

StartChar: alpha
Encoding: 65681 945 277
Width: 451
VWidth: 0
Flags: W
HStem: 484 240<127.069 319.268>
VStem: 102 242<509.684 698.316>
LayerCount: 2
UndoRedoHistory
Layer: 1
Undoes
UndoOperation
Index: 0
Type: 12
WasModified: 0
WasOrder2: 0
EndUndoOperation
EndUndoes
Redoes
EndRedoes
EndUndoRedoHistory
Fore
SplineSet
223 484 m 0
 143 484 102 544 102 604 c 0
 102 664 143 724 223 724 c 0
 304 724 344 664 344 604 c 0
 344 544 304 484 223 484 c 0
EndSplineSet
Validated: 1
EndChar

StartChar: alphatonos
Encoding: 65682 940 278
Width: 451
VWidth: 0
Flags: W
HStem: 484 240<127.069 319.268>
VStem: 102 242<509.684 698.316>
LayerCount: 2
UndoRedoHistory
Layer: 1
Undoes
UndoOperation
Index: 0
Type: 12
WasModified: 0
WasOrder2: 0
EndUndoOperation
EndUndoes
Redoes
EndRedoes
EndUndoRedoHistory
Fore
SplineSet
223 484 m 0
 143 484 102 544 102 604 c 0
 102 664 143 724 223 724 c 0
 304 724 344 664 344 604 c 0
 344 544 304 484 223 484 c 0
EndSplineSet
Validated: 1
EndChar

StartChar: ampersand
Encoding: 6 38 280
Width: 1258
VWidth: 0
Flags: W
HStem: -21 141<340.727 744.132> 1288 125<428.175 693.92>
VStem: 58 161<227.2 512.196> 207 162<974.097 1231.99> 744 171<994.735 1236.62>
DStem2: 600 746 459 681 0.6756 -0.737269<0 548.812 697.007 907.952>
LayerCount: 2
UndoRedoHistory
Layer: 1
Undoes
UndoOperation
Index: 0
Type: 12
WasModified: 0
WasOrder2: 0
EndUndoOperation
EndUndoes
Redoes
EndRedoes
EndUndoRedoHistory
Fore
SplineSet
515 838 m 1xd8
 639 899 744 1011 744 1127 c 0
 744 1233 660 1288 564 1288 c 0
 453 1288 369 1226 369 1121 c 0
 369 1031 435 915 515 838 c 1xd8
536 120 m 0
 666 120 772 166 860 236 c 1
 724 381 595 536 459 681 c 1
 321 611 219 504 219 369 c 0xe8
 219 213 337 120 536 120 c 0
528 -21 m 0
 216 -21 58 125 58 359 c 0xe8
 58 556 192 689 374 781 c 1
 280 884 207 996 207 1115 c 0xd8
 207 1297 346 1413 561 1413 c 0
 747 1413 915 1319 915 1131 c 0
 915 971 772 826 600 746 c 1
 966 337 l 1
 1018 392 1068 471 1101 545 c 1
 1211 461 l 1
 1175 381 1121 298 1063 230 c 1
 1251 27 l 1
 1108 -20 l 1
 965 130 l 1
 852 39 710 -21 528 -21 c 0
EndSplineSet
Validated: 1
EndChar

StartChar: approxequal
Encoding: 409 8776 282
Width: 1177
VWidth: 0
Flags: W
HStem: 257 117<679.765 907.742> 418 118<269.79 509.803> 622 115<671.422 905.041> 783 116<268.417 510.674>
VStem: 116 91<280.069 346.464 644.475 716.194> 973 89<447.77 512.51 812.459 877.051>
LayerCount: 2
UndoRedoHistory
Layer: 1
Undoes
UndoOperation
Index: 0
Type: 12
WasModified: 0
WasOrder2: 0
EndUndoOperation
EndUndoes
Redoes
EndRedoes
EndUndoRedoHistory
Fore
SplineSet
207 622 m 1
 114 648 l 1
 143 803 235 899 379 899 c 0
 459 899 531 865 617 813 c 0
 701 762 753 737 805 737 c 0
 885 737 935 794 970 899 c 1
 1060 873 l 1
 1031 722 956 622 802 622 c 0
 723 622 649 653 548 716 c 0
 486 755 431 783 376 783 c 0
 284 783 233 720 207 622 c 1
207 255 m 1
 116 284 l 1
 146 441 234 536 379 536 c 0
 464 536 543 496 615 455 c 0
 687 415 751 374 807 374 c 0
 887 374 937 433 973 536 c 1
 1062 508 l 1
 1033 358 961 257 804 257 c 0
 728 257 653 288 550 350 c 1
 488 389 434 418 379 418 c 0
 287 418 236 353 207 255 c 1
EndSplineSet
Validated: 1
EndChar

StartChar: asciicircum
Encoding: 62 94 285
Width: 1143
VWidth: 0
Flags: W
HStem: 1360 20G<504.403 617.142>
DStem2: 109 536 241 536 0.432627 0.901573<57.1067 807.715> 607 1380 561 1215 0.452279 -0.891877<126.355 887.523>
LayerCount: 2
UndoRedoHistory
Layer: 1
Undoes
UndoOperation
Index: 0
Type: 12
WasModified: 0
WasOrder2: 0
EndUndoOperation
EndUndoes
Redoes
EndRedoes
EndUndoRedoHistory
Fore
SplineSet
109 536 m 1
 514 1380 l 1
 607 1380 l 1
 1035 536 l 1
 905 536 l 1
 561 1215 l 1
 241 536 l 1
 109 536 l 1
EndSplineSet
Validated: 1
EndChar

StartChar: asciitilde
Encoding: 94 126 286
Width: 1132
VWidth: 0
Flags: W
HStem: 470 130<633.653 894.517> 603 130<230.239 505.549>
LayerCount: 2
UndoRedoHistory
Layer: 1
Undoes
UndoOperation
Index: 0
Type: 12
WasModified: 0
WasOrder2: 0
EndUndoOperation
EndUndoes
Redoes
EndRedoes
EndUndoRedoHistory
Fore
SplineSet
147 458 m 1
 100 553 l 1
 143 654 224 733 347 733 c 0
 422 733 481 712 571 672 c 0
 658 634 730 600 785 600 c 0
 860 600 932 663 975 742 c 1
 1026 654 l 1
 980 543 899 470 781 470 c 0
 712 470 645 496 567 531 c 0
 475 573 408 603 343 603 c 0
 261 603 189 537 147 458 c 1
EndSplineSet
Validated: 1
EndChar

StartChar: asterisk
Encoding: 10 42 287
Width: 1055
VWidth: 0
Flags: W
HStem: 1365 20G<440 609>
LayerCount: 2
UndoRedoHistory
Layer: 1
Undoes
UndoOperation
Index: 0
Type: 12
WasModified: 0
WasOrder2: 0
EndUndoOperation
EndUndoes
Redoes
EndRedoes
EndUndoRedoHistory
Fore
SplineSet
148 1148 m 1
 473 1011 l 1
 440 1385 l 1
 609 1385 l 1
 576 1011 l 1
 903 1148 l 1
 948 993 l 1
 614 917 l 1
 651 867 769 715 844 614 c 1
 798 584 749 559 703 529 c 1
 521 858 l 1
 349 529 l 1
 207 614 l 1
 433 917 l 1
 103 993 l 1
 148 1148 l 1
EndSplineSet
Validated: 1
EndChar

StartChar: at
Encoding: 32 64 288
Width: 1634
VWidth: 0
Flags: W
HStem: -119 114<559.211 1073.04> 244 116<655.486 870.965 1090.59 1303.35> 890 110<726.964 994.319> 1245 113<613.643 1094.15>
VStem: 93 122<340.41 838.365> 481 130<404.455 760.286> 1422 120<515.159 937.254>
LayerCount: 2
UndoRedoHistory
Layer: 1
Undoes
UndoOperation
Index: 0
Type: 12
WasModified: 0
WasOrder2: 0
EndUndoOperation
EndUndoes
Redoes
EndRedoes
EndUndoRedoHistory
Fore
SplineSet
757 360 m 0
 893 360 950 487 972 664 c 0
 981 732 989 803 996 872 c 1
 962 884 907 890 863 890 c 0
 690 890 611 737 611 554 c 0
 611 438 656 360 757 360 c 0
797 -119 m 0
 376 -119 93 148 93 587 c 0
 93 1025 408 1358 857 1358 c 0
 1246 1358 1542 1106 1542 713 c 0
 1542 418 1353 236 1166 236 c 0
 1069 236 998 292 984 391 c 1
 943 333 858 244 740 244 c 0
 583 244 481 365 481 561 c 0
 481 802 616 1000 862 1000 c 0
 948 1000 1061 976 1138 950 c 1
 1113 770 1079 586 1079 476 c 0
 1079 388 1114 347 1180 347 c 0
 1297 347 1422 508 1422 720 c 0
 1422 1048 1181 1245 849 1245 c 0
 477 1245 215 969 215 591 c 0
 215 215 449 -5 798 -5 c 0
 945 -5 1085 30 1204 98 c 1
 1236 -3 l 1
 1121 -80 968 -119 797 -119 c 0
EndSplineSet
Validated: 1
EndChar

StartChar: b
Encoding: 66 98 290
Width: 1188
VWidth: 0
Flags: W
HStem: -21 129<464.427 770.567> 0 21G<153 313.086> 891 128<461.435 772.218> 1389 20G<153 328>
VStem: 153 175<248.156 740.94 862 1395> 153 158<0 137.457> 910 175<267.096 730.625>
LayerCount: 2
UndoRedoHistory
Layer: 1
Undoes
UndoOperation
Index: 0
Type: 12
WasModified: 0
WasOrder2: 0
HStem: -21 129<464.427 770.567> 0 21G<153 313.086> 891 128<461.435 772.218> 1389 20G<153 328>
VStem: 153 175<248.156 740.94 862 1395> 153 158<0 137.457> 910 175<267.096 730.625>
EndUndoOperation
UndoOperation
Index: 1
Type: 3
WasModified: 1
WasOrder2: 0
EndUndoOperation
UndoOperation
Index: 2
Type: 3
WasModified: 1
WasOrder2: 0
EndUndoOperation
UndoOperation
Index: 3
Type: 3
WasModified: 1
WasOrder2: 0
EndUndoOperation
UndoOperation
Index: 4
Type: 3
WasModified: 1
WasOrder2: 0
EndUndoOperation
UndoOperation
Index: 5
Type: 3
WasModified: 0
WasOrder2: 0
EndUndoOperation
EndUndoes
Redoes
EndRedoes
EndUndoRedoHistory
Fore
SplineSet
620 108 m 0xba
 814 108 910 265 910 499 c 0
 910 738 810 891 619 891 c 0
 404 891 328 741 328 482 c 0
 328 252 414 108 620 108 c 0xba
646 -21 m 0
 509 -21 383 45 328 163 c 1xba
 311 0 l 1
 153 0 l 1x76
 153 1395 l 1
 328 1409 l 1
 328 1053 l 2
 328 991 327 928 323 862 c 1
 389 955 515 1019 647 1019 c 0
 907 1019 1085 802 1085 504 c 0
 1085 198 925 -21 646 -21 c 0
EndSplineSet
EndChar

StartChar: backslash
Encoding: 60 92 291
Width: 850
VWidth: 0
Flags: W
DStem2: 222 1332 80 1332 0.365715 -0.930727<0 1438.3>
LayerCount: 2
UndoRedoHistory
Layer: 1
Undoes
UndoOperation
Index: 0
Type: 12
WasModified: 0
WasOrder2: 0
EndUndoOperation
EndUndoes
Redoes
EndRedoes
EndUndoRedoHistory
Fore
SplineSet
625 -55 m 1
 80 1332 l 1
 222 1332 l 1
 767 -55 l 1
 625 -55 l 1
EndSplineSet
Validated: 1
EndChar

StartChar: bar
Encoding: 92 124 292
Width: 488
VWidth: 0
Flags: W
VStem: 178 132<-276 1525>
LayerCount: 2
UndoRedoHistory
Layer: 1
Undoes
UndoOperation
Index: 0
Type: 12
WasModified: 0
WasOrder2: 0
EndUndoOperation
EndUndoes
Redoes
EndRedoes
EndUndoRedoHistory
Fore
SplineSet
178 -276 m 5
 178 1525 l 5
 310 1525 l 5
 310 -276 l 5
 178 -276 l 5
EndSplineSet
Validated: 1
EndChar

StartChar: beta
Encoding: 65684 946 293
Width: 451
VWidth: 0
Flags: W
HStem: 484 240<127.069 319.268>
VStem: 102 242<509.684 698.316>
LayerCount: 2
UndoRedoHistory
Layer: 1
Undoes
UndoOperation
Index: 0
Type: 12
WasModified: 0
WasOrder2: 0
EndUndoOperation
EndUndoes
Redoes
EndRedoes
EndUndoRedoHistory
Fore
SplineSet
223 484 m 0
 143 484 102 544 102 604 c 0
 102 664 143 724 223 724 c 0
 304 724 344 664 344 604 c 0
 344 544 304 484 223 484 c 0
EndSplineSet
Validated: 1
EndChar

StartChar: braceleft
Encoding: 91 123 294
Width: 717
VWidth: 0
Flags: W
HStem: -256 126<487.915 619> 506 132<104 242.283> 1275 125<489.049 619>
VStem: 298 151<-88.8702 448.778 682.25 1235.97>
LayerCount: 2
UndoRedoHistory
Layer: 1
Undoes
UndoOperation
Index: 0
Type: 12
WasModified: 0
WasOrder2: 0
EndUndoOperation
EndUndoes
Redoes
EndRedoes
EndUndoRedoHistory
Fore
SplineSet
619 -130 m 1
 619 -256 l 1
 390 -255 298 -155 298 56 c 2
 298 245 l 2
 298 401 273 506 104 506 c 1
 104 638 l 1
 296 641 298 729 298 898 c 2
 298 1119 l 2
 298 1308 412 1400 619 1400 c 1
 619 1275 l 1
 484 1273 449 1217 449 1067 c 2
 449 826 l 2
 449 715 396 639 280 570 c 1
 402 531 449 427 449 318 c 2
 449 76 l 2
 449 -78 485 -128 619 -130 c 1
EndSplineSet
Validated: 1
EndChar

StartChar: braceright
Encoding: 93 125 295
Width: 726
VWidth: 0
Flags: W
HStem: -256 126<101 233.014> 506 132<477.641 617> 1275 125<101 231.162>
VStem: 271 150<-91.0194 446.347 695.72 1231.77>
LayerCount: 2
UndoRedoHistory
Layer: 1
Undoes
UndoOperation
Index: 0
Type: 12
WasModified: 0
WasOrder2: 0
EndUndoOperation
EndUndoes
Redoes
EndRedoes
EndUndoRedoHistory
Fore
SplineSet
101 -256 m 1
 101 -130 l 1
 233 -128 271 -78 271 76 c 2
 271 318 l 2
 271 434 313 490 439 575 c 1
 317 613 271 718 271 826 c 2
 271 1067 l 2
 271 1217 235 1273 101 1275 c 1
 101 1400 l 1
 328 1400 421 1297 421 1087 c 2
 421 898 l 2
 421 741 441 640 617 638 c 1
 617 506 l 1
 447 506 421 401 421 245 c 2
 421 25 l 2
 421 -162 314 -255 101 -256 c 1
EndSplineSet
Validated: 1
EndChar

StartChar: bracketleft
Encoding: 59 91 296
Width: 643
VWidth: 0
Flags: W
HStem: -267 120<294 549> 1229 121<294 549>
VStem: 136 413<-267 -147 1229 1350> 136 158<-147 1229>
LayerCount: 2
UndoRedoHistory
Layer: 1
Undoes
UndoOperation
Index: 0
Type: 12
WasModified: 0
WasOrder2: 0
EndUndoOperation
EndUndoes
Redoes
EndRedoes
EndUndoRedoHistory
Fore
SplineSet
294 1229 m 1xd0
 294 -147 l 1xd0
 549 -147 l 1
 549 -267 l 1
 136 -267 l 1
 136 1350 l 1
 549 1350 l 1
 549 1229 l 1xe0
 294 1229 l 1xd0
EndSplineSet
Validated: 1
EndChar

StartChar: bracketright
Encoding: 61 93 297
Width: 645
VWidth: 0
Flags: W
HStem: -267 120<96 351> 1229 121<96 351>
VStem: 96 413<-267 -147 1229 1350> 351 158<-147 1229>
LayerCount: 2
UndoRedoHistory
Layer: 1
Undoes
UndoOperation
Index: 0
Type: 12
WasModified: 0
WasOrder2: 0
EndUndoOperation
EndUndoes
Redoes
EndRedoes
EndUndoRedoHistory
Fore
SplineSet
96 1229 m 1xe0
 96 1350 l 1
 509 1350 l 1
 509 -267 l 1
 96 -267 l 1
 96 -147 l 1xe0
 351 -147 l 1
 351 1229 l 1xd0
 96 1229 l 1xe0
EndSplineSet
Validated: 1
EndChar

StartChar: breve
Encoding: 355 728 298
Width: 686
VWidth: 0
Flags: W
HStem: 1182 94<248.347 441.584> 1384 20G<116 222 467 573>
VStem: 116 106<1303.08 1404> 467 106<1303.08 1404>
LayerCount: 2
UndoRedoHistory
Layer: 1
Undoes
UndoOperation
Index: 0
Type: 12
WasModified: 0
WasOrder2: 0
EndUndoOperation
EndUndoes
Redoes
EndRedoes
EndUndoRedoHistory
Fore
SplineSet
573 1404 m 1
 573 1247 456 1182 343 1182 c 0
 231 1182 116 1247 116 1404 c 1
 222 1404 l 1
 222 1317 277 1276 343 1276 c 0
 409 1276 467 1317 467 1404 c 1
 573 1404 l 1
EndSplineSet
Validated: 1
EndChar

StartChar: brokenbar
Encoding: 101 166 299
Width: 399
VWidth: 0
Flags: W
VStem: 134 133<-363 282 794 1437>
LayerCount: 2
UndoRedoHistory
Layer: 1
Undoes
UndoOperation
Index: 0
Type: 12
WasModified: 0
WasOrder2: 0
EndUndoOperation
EndUndoes
Redoes
EndRedoes
EndUndoRedoHistory
Fore
SplineSet
134 794 m 1
 134 1437 l 1
 267 1437 l 1
 267 794 l 1
 134 794 l 1
134 -363 m 1
 134 282 l 1
 267 282 l 1
 267 -363 l 1
 134 -363 l 1
EndSplineSet
Validated: 1
EndChar

StartChar: bullet
Encoding: 396 8226 300
Width: 756
VWidth: 0
Flags: W
HStem: 378 610<245.375 510.949>
VStem: 106 540<520.659 841.076>
LayerCount: 2
UndoRedoHistory
Layer: 1
Undoes
UndoOperation
Index: 0
Type: 12
WasModified: 0
WasOrder2: 0
EndUndoOperation
EndUndoes
Redoes
EndRedoes
EndUndoRedoHistory
Fore
SplineSet
374 378 m 0
 223 378 106 516 106 680 c 0
 106 847 234 988 378 988 c 0
 525 988 646 850 646 685 c 0
 646 518 521 378 374 378 c 0
EndSplineSet
Validated: 1
EndChar

StartChar: c
Encoding: 67 99 301
Width: 945
VWidth: 0
Flags: W
HStem: -21 133<441.033 792.321> 886 133<439.036 795.958>
VStem: 103 174<284.313 708.866>
LayerCount: 2
UndoRedoHistory
Layer: 1
Undoes
UndoOperation
Index: 0
Type: 12
WasModified: 0
WasOrder2: 0
HStem: -21 133<430.896 774.206> 886 133<428.981 777.787>
VStem: 103 174<278.49 712.846>
EndUndoOperation
UndoOperation
Index: 1
Type: 1
WasModified: 1
WasOrder2: 0
Width: 945
VWidth: 0
LBearingChange: 0
UnicodeEnc: 0
InstructionsLength: 0
SplineSet
581 -21 m 0
 300 -21 103 195 103 496 c 0
 103 810 307 1019 587 1019 c 0
 692 1019 804 990 859 950 c 5
 817 832 l 5
 746 870 676 886 610 886 c 0
 400 886 277 733 277 495 c 0
 277 265 396 112 610 112 c 0
 696 112 758 138 830 175 c 5
 853 51 l 5
 787 3 681 -21 581 -21 c 0
EndSplineSet
EndUndoOperation
UndoOperation
Index: 2
Type: 1
WasModified: 1
WasOrder2: 0
Width: 945
VWidth: 0
LBearingChange: 0
UnicodeEnc: 0
InstructionsLength: 0
SplineSet
581 -21 m 0
 300 -21 103 195 103 496 c 0
 103 810 307 1019 587 1019 c 0
 692 1019 803 990 858 950 c 5
 816 832 l 5
 745 870 676 886 610 886 c 0
 400 886 277 733 277 495 c 0
 277 265 396 112 610 112 c 0
 696 112 757 138 829 175 c 5
 852 51 l 5
 786 3 681 -21 581 -21 c 0
EndSplineSet
EndUndoOperation
UndoOperation
Index: 3
Type: 1
WasModified: 1
WasOrder2: 0
Width: 945
VWidth: 0
LBearingChange: 0
UnicodeEnc: 0
InstructionsLength: 0
SplineSet
581 -21 m 0
 300 -21 103 195 103 496 c 0
 103 810 307 1019 587 1019 c 0
 692 1019 802 990 857 950 c 5
 815 832 l 5
 744 870 676 886 610 886 c 0
 400 886 277 733 277 495 c 0
 277 265 396 112 610 112 c 0
 696 112 756 138 828 175 c 5
 851 51 l 5
 785 3 681 -21 581 -21 c 0
EndSplineSet
EndUndoOperation
UndoOperation
Index: 4
Type: 1
WasModified: 1
WasOrder2: 0
Width: 945
VWidth: 0
LBearingChange: 0
UnicodeEnc: 0
InstructionsLength: 0
SplineSet
581 -21 m 0
 300 -21 103 195 103 496 c 0
 103 810 307 1019 587 1019 c 0
 692 1019 801 990 856 950 c 5
 814 832 l 5
 743 870 676 886 610 886 c 0
 400 886 277 733 277 495 c 0
 277 265 396 112 610 112 c 0
 696 112 755 138 827 175 c 5
 850 51 l 5
 784 3 681 -21 581 -21 c 0
EndSplineSet
EndUndoOperation
UndoOperation
Index: 5
Type: 1
WasModified: 1
WasOrder2: 0
Width: 945
VWidth: 0
LBearingChange: 0
UnicodeEnc: 0
InstructionsLength: 0
SplineSet
581 -21 m 0
 300 -21 103 195 103 496 c 0
 103 810 307 1019 587 1019 c 0
 692 1019 800 990 855 950 c 5
 813 832 l 5
 742 870 676 886 610 886 c 0
 400 886 277 733 277 495 c 0
 277 265 396 112 610 112 c 0
 696 112 754 138 826 175 c 5
 849 51 l 5
 783 3 681 -21 581 -21 c 0
EndSplineSet
EndUndoOperation
UndoOperation
Index: 6
Type: 1
WasModified: 1
WasOrder2: 0
Width: 945
VWidth: 0
LBearingChange: 0
UnicodeEnc: 0
InstructionsLength: 0
SplineSet
581 -21 m 0
 300 -21 103 195 103 496 c 0
 103 810 307 1019 587 1019 c 0
 692 1019 799 990 854 950 c 5
 812 832 l 5
 741 870 676 886 610 886 c 0
 400 886 277 733 277 495 c 0
 277 265 396 112 610 112 c 0
 696 112 753 138 825 175 c 5
 848 51 l 5
 782 3 681 -21 581 -21 c 0
EndSplineSet
EndUndoOperation
UndoOperation
Index: 7
Type: 1
WasModified: 1
WasOrder2: 0
Width: 945
VWidth: 0
LBearingChange: 0
UnicodeEnc: 0
InstructionsLength: 0
SplineSet
581 -21 m 0
 300 -21 103 195 103 496 c 0
 103 810 307 1019 587 1019 c 0
 692 1019 798 990 853 950 c 5
 811 832 l 5
 740 870 676 886 610 886 c 0
 400 886 277 733 277 495 c 0
 277 265 396 112 610 112 c 0
 696 112 752 138 824 175 c 5
 847 51 l 5
 781 3 681 -21 581 -21 c 0
EndSplineSet
EndUndoOperation
UndoOperation
Index: 8
Type: 1
WasModified: 1
WasOrder2: 0
Width: 945
VWidth: 0
LBearingChange: 0
UnicodeEnc: 0
InstructionsLength: 0
SplineSet
581 -21 m 0
 300 -21 103 195 103 496 c 0
 103 810 307 1019 587 1019 c 0
 692 1019 797 990 852 950 c 5
 810 832 l 5
 739 870 676 886 610 886 c 0
 400 886 277 733 277 495 c 0
 277 265 396 112 610 112 c 0
 696 112 751 138 823 175 c 5
 846 51 l 5
 780 3 681 -21 581 -21 c 0
EndSplineSet
EndUndoOperation
UndoOperation
Index: 9
Type: 1
WasModified: 1
WasOrder2: 0
Width: 945
VWidth: 0
LBearingChange: 0
UnicodeEnc: 0
InstructionsLength: 0
SplineSet
581 -21 m 0
 300 -21 103 195 103 496 c 0
 103 810 307 1019 587 1019 c 0
 692 1019 796 990 851 950 c 5
 809 832 l 5
 738 870 676 886 610 886 c 0
 400 886 277 733 277 495 c 0
 277 265 396 112 610 112 c 0
 696 112 750 138 822 175 c 5
 845 51 l 5
 779 3 681 -21 581 -21 c 0
EndSplineSet
EndUndoOperation
UndoOperation
Index: 10
Type: 1
WasModified: 1
WasOrder2: 0
Width: 945
VWidth: 0
LBearingChange: 0
UnicodeEnc: 0
InstructionsLength: 0
SplineSet
582 -21 m 4
 301 -21 103 195 103 496 c 0
 103 810 308 1019 588 1019 c 4
 693 1019 797 990 852 950 c 5
 810 832 l 5
 739 870 677 886 611 886 c 4
 401 886 277 733 277 495 c 0
 277 265 397 112 611 112 c 4
 697 112 751 138 823 175 c 5
 846 51 l 5
 780 3 682 -21 582 -21 c 4
EndSplineSet
EndUndoOperation
UndoOperation
Index: 11
Type: 1
WasModified: 1
WasOrder2: 0
Width: 945
VWidth: 0
LBearingChange: 0
UnicodeEnc: 0
InstructionsLength: 0
SplineSet
572 -21 m 4
 291 -21 103 195 103 496 c 0
 103 810 298 1019 578 1019 c 4
 683 1019 787 990 842 950 c 5
 800 832 l 5
 729 870 667 886 601 886 c 4
 391 886 277 733 277 495 c 0
 277 265 387 112 601 112 c 4
 687 112 741 138 813 175 c 5
 836 51 l 5
 770 3 672 -21 572 -21 c 4
EndSplineSet
EndUndoOperation
EndUndoes
Redoes
EndRedoes
EndUndoRedoHistory
Fore
SplineSet
581 -21 m 0
 300 -21 103 195 103 496 c 0
 103 810 307 1019 587 1019 c 0
 692 1019 803 990 858 950 c 5
 816 832 l 5
 745 870 676 886 610 886 c 0
 400 886 277 733 277 495 c 0
 277 265 396 112 610 112 c 0
 696 112 757 138 829 175 c 5
 852 51 l 5
 786 3 681 -21 581 -21 c 0
EndSplineSet
EndChar

StartChar: caron
Encoding: 354 711 303
Width: 728
VWidth: 0
Flags: W
HStem: 1138 70<268 462>
VStem: 98 534
DStem2: 217 1491 98 1491 0.433892 -0.900965<0 318.755> 364 1208 462 1138 0.433892 0.900965<0 318.755>
LayerCount: 2
UndoRedoHistory
Layer: 1
Undoes
UndoOperation
Index: 0
Type: 12
WasModified: 0
WasOrder2: 0
EndUndoOperation
EndUndoes
Redoes
EndRedoes
EndUndoRedoHistory
Fore
SplineSet
268 1138 m 1
 98 1491 l 1
 217 1491 l 1
 364 1208 l 1
 511 1491 l 1
 632 1491 l 1
 462 1138 l 1
 268 1138 l 1
EndSplineSet
Validated: 1
EndChar

StartChar: cedilla
Encoding: 117 184 308
Width: 542
VWidth: 0
Flags: W
HStem: -373 388<206 244>
VStem: 104 180
LayerCount: 2
UndoRedoHistory
Layer: 1
Undoes
UndoOperation
Index: 0
Type: 12
WasModified: 0
WasOrder2: 0
EndUndoOperation
EndUndoes
Redoes
EndRedoes
EndUndoRedoHistory
Fore
SplineSet
104 -373 m 1
 206 15 l 1
 284 15 l 1
 244 -373 l 1
 104 -373 l 1
EndSplineSet
Validated: 1
EndChar

StartChar: cent
Encoding: 97 162 309
Width: 977
VWidth: 0
Flags: W
HStem: 1 21G<543 630> 155 127<432.428 543 630 779.328> 1003 21G<792 830.037> 1068 128<435.646 543 630 787.65> 1341 20G<543 630>
VStem: 109 156<463.915 874.875> 543 87<1 159.566 282 1068 1193.13 1361>
LayerCount: 2
UndoRedoHistory
Layer: 1
Undoes
UndoOperation
Index: 0
Type: 12
WasModified: 0
WasOrder2: 0
EndUndoOperation
EndUndoes
Redoes
EndRedoes
EndUndoRedoHistory
Fore
SplineSet
543 282 m 1
 543 1068 l 1
 382 1043 265 883 265 671 c 0
 265 464 374 309 543 282 c 1
543 1 m 1
 543 155 l 1
 263 179 109 411 109 675 c 1
 111 936 273 1172 543 1196 c 1
 543 1361 l 1
 630 1361 l 1
 630 1196 l 1
 728 1190 811 1158 861 1111 c 1
 823 1003 l 1
 761 1045 694 1065 630 1070 c 1
 630 279 l 1
 707 286 775 318 824 353 c 1
 862 244 l 1
 805 191 717 161 630 155 c 1
 630 1 l 1
 543 1 l 1
EndSplineSet
Validated: 1
EndChar

StartChar: chi
Encoding: 65685 967 310
Width: 1147
VWidth: 0
Flags: W
HStem: 0 21G<108 306.192 839.808 1041> 978 20G<122 320.187 825.707 1032>
VStem: 108 184<0 184 814 998> 854 187<0 187 811 998>
DStem2: 108 0 292 0 0.595612 0.803272<109.593 595.055 776.803 1237.65> 306 998 122 998 0.593006 -0.805198<0 459.689 643.062 1128.55>
LayerCount: 2
UndoRedoHistory
Layer: 1
Undoes
UndoOperation
Index: 0
Type: 12
WasModified: 0
WasOrder2: 0
EndUndoOperation
EndUndoes
Redoes
EndRedoes
EndUndoRedoHistory
Fore
SplineSet
572 623 m 1
 840 998 l 1
 1032 998 l 1
 671 506 l 1
 1041 0 l 1
 854 0 l 1
 573 396 l 1
 292 0 l 1
 108 0 l 1
 474 508 l 1
 122 998 l 1
 306 998 l 1
 572 623 l 1
EndSplineSet
Validated: 1
EndChar

StartChar: circumflex
Encoding: 353 710 311
Width: 728
VWidth: 0
Flags: W
HStem: 1386 105<268 462>
VStem: 98 534
LayerCount: 2
UndoRedoHistory
Layer: 1
Undoes
UndoOperation
Index: 0
Type: 12
WasModified: 0
WasOrder2: 0
EndUndoOperation
EndUndoes
Redoes
EndRedoes
EndUndoRedoHistory
Fore
SplineSet
98 1138 m 1
 268 1491 l 1
 462 1491 l 1
 632 1138 l 1
 511 1138 l 1
 364 1386 l 1
 217 1138 l 1
 98 1138 l 1
EndSplineSet
Validated: 1
EndChar

StartChar: colon
Encoding: 26 58 312
Width: 435
VWidth: 0
Flags: W
HStem: -23 212<125 312> 813 210<125 312>
VStem: 125 187<-23 189 813 1023>
LayerCount: 2
UndoRedoHistory
Layer: 1
Undoes
UndoOperation
Index: 0
Type: 12
WasModified: 0
WasOrder2: 0
EndUndoOperation
EndUndoes
Redoes
EndRedoes
EndUndoRedoHistory
Fore
SplineSet
125 813 m 1
 125 1023 l 1
 312 1023 l 1
 312 813 l 1
 125 813 l 1
125 -23 m 1
 125 189 l 1
 312 189 l 1
 312 -23 l 1
 125 -23 l 1
EndSplineSet
Validated: 1
EndChar

StartChar: comma
Encoding: 12 44 313
Width: 436
VWidth: 0
Flags: W
HStem: -253 466<146.292 209.33>
VStem: 147 180<17.5566 213>
LayerCount: 2
UndoRedoHistory
Layer: 1
Undoes
UndoOperation
Index: 0
Type: 12
WasModified: 0
WasOrder2: 0
EndUndoOperation
EndUndoes
Redoes
EndRedoes
EndUndoRedoHistory
Fore
SplineSet
196 -253 m 1
 100 -253 l 1
 115 -117 140 84 147 213 c 1
 327 213 l 1
 327 173 l 1
 295 45 243 -118 196 -253 c 1
EndSplineSet
Validated: 1
EndChar

StartChar: copyright
Encoding: 104 169 314
Width: 1671
VWidth: 0
Flags: W
HStem: -24 85<596.361 1068.64> 246 106<678.974 1049.98> 1014 21G<1041 1081.5> 1076 108<670.722 1039.87> 1359 84<593.652 1065.53>
VStem: 114 103<460.443 961.076> 402 124<514.491 912.902> 1452 103<442.519 959.439>
LayerCount: 2
UndoRedoHistory
Layer: 1
Undoes
UndoOperation
Index: 0
Type: 12
WasModified: 0
WasOrder2: 0
EndUndoOperation
EndUndoes
Redoes
EndRedoes
EndUndoRedoHistory
Fore
SplineSet
828 -24 m 0
 471 -24 114 221 114 711 c 0
 114 1200 467 1443 824 1443 c 0
 1202 1443 1555 1198 1555 711 c 0
 1555 221 1206 -24 828 -24 c 0
828 61 m 0
 1238 61 1452 352 1452 708 c 0
 1452 1063 1236 1359 824 1359 c 0
 434 1359 217 1064 217 713 c 0
 217 354 434 61 828 61 c 0
834 246 m 0
 583 246 402 445 402 714 c 0
 402 983 577 1184 844 1184 c 0
 953 1184 1049 1154 1124 1102 c 1
 1069 1014 l 1
 1013 1054 920 1076 835 1076 c 0
 622 1076 526 907 526 718 c 0
 526 513 628 352 853 352 c 0
 937 352 1040 383 1091 418 c 1
 1127 320 l 1
 1063 279 947 246 834 246 c 0
EndSplineSet
Validated: 1
EndChar

StartChar: currency
Encoding: 99 164 315
Width: 1180
VWidth: 0
Flags: W
HStem: 287 98<438.924 742.511> 948 98<439.218 742.29>
VStem: 210 99<514.209 817.593> 873 98<513.961 816.902>
DStem2: 184 1121 116 1056 0.722482 -0.69139<0 238.134 977.737 1217.18> 117 278 184 212 0.722909 0.690943<2.83262 241.005 980.026 1220.04>
LayerCount: 2
UndoRedoHistory
Layer: 1
Undoes
UndoOperation
Index: 0
Type: 12
WasModified: 0
WasOrder2: 0
EndUndoOperation
EndUndoes
Redoes
EndRedoes
EndUndoRedoHistory
Fore
SplineSet
591 385 m 0
 748 385 873 511 873 666 c 0
 873 821 747 948 591 948 c 0
 435 948 309 821 309 666 c 0
 309 510 435 385 591 385 c 0
1062 278 m 1
 999 211 l 1
 829 371 l 1
 763 317 682 287 591 287 c 0
 499 287 417 316 351 371 c 1
 184 212 l 1
 117 278 l 1
 286 439 l 1
 238 505 210 582 210 666 c 0
 210 749 238 827 286 893 c 1
 116 1056 l 1
 184 1121 l 1
 351 962 l 1
 417 1017 501 1046 591 1046 c 0
 682 1046 763 1016 829 961 c 1
 999 1121 l 1
 1063 1054 l 1
 895 893 l 1
 943 825 971 747 971 666 c 0
 971 580 944 504 896 439 c 1
 1062 278 l 1
EndSplineSet
Validated: 1
EndChar

StartChar: d
Encoding: 68 100 316
Width: 1182
VWidth: 0
Flags: W
HStem: -21 129<416.85 723.312> 0 21G<874.914 1035> 891 128<415.205 726.065> 1389 20G<860 1035>
VStem: 103 174<267.096 725.992> 860 175<248.156 740.94 862 1395> 877 158<0 137.457>
LayerCount: 2
UndoRedoHistory
Layer: 1
Undoes
UndoOperation
Index: 0
Type: 12
WasModified: 0
WasOrder2: 0
HStem: -21 129<416.85 723.312> 0 21G<874.914 1035> 891 128<415.205 726.065> 1389 20G<860 1035>
VStem: 103 174<267.096 725.992> 860 175<248.156 740.94 862 1395> 877 158<0 137.457>
EndUndoOperation
EndUndoes
Redoes
EndRedoes
EndUndoRedoHistory
Fore
SplineSet
568 108 m 0xbc
 774 108 860 252 860 482 c 0
 860 741 784 891 569 891 c 0
 378 891 277 738 277 499 c 0
 277 265 374 108 568 108 c 0xbc
541 -21 m 0
 262 -21 103 198 103 504 c 0
 103 807 280 1019 540 1019 c 0
 672 1019 798 955 864 862 c 1
 860 928 860 991 860 1053 c 2
 860 1395 l 1xbc
 1035 1409 l 1
 1035 0 l 1
 877 0 l 1x7a
 860 163 l 1
 805 45 678 -21 541 -21 c 0
EndSplineSet
Validated: 1
EndChar

StartChar: dagger
Encoding: 394 8224 317
Width: 866
VWidth: 0
Flags: W
HStem: 953 93<96 368 486 765>
VStem: 368 118<110 953 1046 1421>
LayerCount: 2
UndoRedoHistory
Layer: 1
Undoes
UndoOperation
Index: 0
Type: 12
WasModified: 0
WasOrder2: 0
EndUndoOperation
EndUndoes
Redoes
EndRedoes
EndUndoRedoHistory
Fore
SplineSet
368 1046 m 1
 368 1421 l 1
 486 1421 l 1
 486 1046 l 1
 765 1046 l 1
 765 953 l 1
 486 953 l 1
 486 110 l 1
 368 110 l 1
 368 953 l 1
 96 953 l 1
 96 1046 l 1
 368 1046 l 1
EndSplineSet
Validated: 1
EndChar

StartChar: daggerdbl
Encoding: 395 8225 318
Width: 921
VWidth: 0
Flags: W
HStem: 425 125<123 401 520 793> 964 127<127 401 520 799>
VStem: 401 119<110 425 550 964 1091 1421>
LayerCount: 2
UndoRedoHistory
Layer: 1
Undoes
UndoOperation
Index: 0
Type: 12
WasModified: 0
WasOrder2: 0
EndUndoOperation
EndUndoes
Redoes
EndRedoes
EndUndoRedoHistory
Fore
SplineSet
401 550 m 1
 401 964 l 1
 127 964 l 1
 127 1091 l 1
 401 1091 l 1
 401 1421 l 1
 520 1421 l 1
 520 1091 l 1
 799 1091 l 1
 799 964 l 1
 520 964 l 1
 520 550 l 1
 793 550 l 1
 793 425 l 1
 520 425 l 1
 520 110 l 1
 401 110 l 1
 401 425 l 1
 123 425 l 1
 123 550 l 1
 401 550 l 1
EndSplineSet
Validated: 1
EndChar

StartChar: dcroat
Encoding: 206 273 320
Width: 1193
VWidth: 0
Flags: W
HStem: -21 129<416.85 723.312 416.85 723.312 416.85 723.312 416.85 723.312 416.85 723.312> 0 21<874.914 1035 874.914 1035 874.914 1035 874.914 1035 874.914 1035> 891 128<415.205 726.065 415.205 726.065 415.205 726.065 415.205 726.065 415.205 726.065> 1166 102<586 1153> 1389 20<860 1035 860 1035 860 1035 860 1035 860 1035>
VStem: 103 174<267.096 725.992 267.096 725.992 267.096 725.992 267.096 725.992 267.096 725.992> 860 175<248.156 740.94 248.156 740.94 248.156 740.94 248.156 740.94 248.156 740.94 862 1395 862 1395 862 1395 862 1395 862 1395> 877 158<0 137.457 0 137.457 0 137.457 0 137.457 0 137.457>
LayerCount: 2
UndoRedoHistory
Layer: 1
Undoes
UndoOperation
Index: 0
Type: 12
WasModified: 0
WasOrder2: 0
EndUndoOperation
EndUndoes
Redoes
EndRedoes
EndUndoRedoHistory
Fore
SplineSet
586 1166 m 1x3c
 586 1268 l 1
 1153 1268 l 1
 1153 1166 l 1
 586 1166 l 1x3c
EndSplineSet
Refer: 316 100 N 1 0 0 1 0 0 2
Refer: 316 100 N 1 0 0 1 0 0 2
Refer: 316 100 N 1 0 0 1 0 0 2
Refer: 316 100 N 1 0 0 1 0 0 2
Refer: 316 100 N 1 0 0 1 0 0 2
Validated: 5
EndChar

StartChar: degree
Encoding: 111 176 321
Width: 766
VWidth: 0
Flags: W
HStem: 809 110<270.617 493.516> 1273 109<270.82 492.673>
VStem: 98 112<977.987 1213.51> 554 111<979.26 1215.08>
LayerCount: 2
UndoRedoHistory
Layer: 1
Undoes
UndoOperation
Index: 0
Type: 12
WasModified: 0
WasOrder2: 0
EndUndoOperation
EndUndoes
Redoes
EndRedoes
EndUndoRedoHistory
Fore
SplineSet
381 809 m 0
 226 809 98 939 98 1097 c 0
 98 1254 226 1382 381 1382 c 0
 537 1382 665 1254 665 1097 c 0
 665 944 541 809 381 809 c 0
382 919 m 0
 476 919 554 999 554 1097 c 0
 554 1196 476 1273 382 1273 c 0
 289 1273 210 1196 210 1097 c 0
 210 998 288 919 382 919 c 0
EndSplineSet
Validated: 1
EndChar

StartChar: delta
Encoding: 65686 948 322
Width: 451
VWidth: 0
Flags: W
HStem: 484 240<127.069 319.268>
VStem: 102 242<509.684 698.316>
LayerCount: 2
UndoRedoHistory
Layer: 1
Undoes
UndoOperation
Index: 0
Type: 12
WasModified: 0
WasOrder2: 0
EndUndoOperation
EndUndoes
Redoes
EndRedoes
EndUndoRedoHistory
Fore
SplineSet
223 484 m 0
 143 484 102 544 102 604 c 0
 102 664 143 724 223 724 c 0
 304 724 344 664 344 604 c 0
 344 544 304 484 223 484 c 0
EndSplineSet
Validated: 1
EndChar

StartChar: dieresis
Encoding: 103 168 323
Width: 700
VWidth: 0
Flags: W
HStem: 1141 193<107 248 462 603>
VStem: 107 141<1141 1334> 462 141<1141 1334>
LayerCount: 2
UndoRedoHistory
Layer: 1
Undoes
UndoOperation
Index: 0
Type: 12
WasModified: 0
WasOrder2: 0
EndUndoOperation
EndUndoes
Redoes
EndRedoes
EndUndoRedoHistory
Fore
SplineSet
462 1141 m 1
 462 1334 l 1
 603 1334 l 1
 603 1141 l 1
 462 1141 l 1
107 1141 m 1
 107 1334 l 1
 248 1334 l 1
 248 1141 l 1
 107 1141 l 1
EndSplineSet
Validated: 1
EndChar

StartChar: dieresistonos
Encoding: 65687 901 324
Width: 425
VWidth: 0
Flags: W
HStem: 484 240<120.069 312.268>
VStem: 95 242<509.684 698.316>
LayerCount: 2
UndoRedoHistory
Layer: 1
Undoes
UndoOperation
Index: 0
Type: 12
WasModified: 0
WasOrder2: 0
EndUndoOperation
EndUndoes
Redoes
EndRedoes
EndUndoRedoHistory
Fore
SplineSet
216 484 m 0
 136 484 95 544 95 604 c 0
 95 664 136 724 216 724 c 0
 297 724 337 664 337 604 c 0
 337 544 297 484 216 484 c 0
EndSplineSet
Validated: 1
EndChar

StartChar: divide
Encoding: 180 247 325
Width: 1119
VWidth: 0
Flags: W
HStem: 20 207<460 633> 476 136<101 1012> 854 207<460 664>
VStem: 460 204<854 1061> 460 173<20 227>
LayerCount: 2
UndoRedoHistory
Layer: 1
Undoes
UndoOperation
Index: 0
Type: 12
WasModified: 0
WasOrder2: 0
EndUndoOperation
EndUndoes
Redoes
EndRedoes
EndUndoRedoHistory
Fore
SplineSet
460 854 m 1xf0
 460 1061 l 1
 664 1061 l 1
 664 854 l 1
 460 854 l 1xf0
101 476 m 1
 101 612 l 1
 1012 612 l 1
 1012 476 l 1
 101 476 l 1
460 20 m 1xe8
 460 227 l 1
 633 227 l 1
 633 20 l 1
 460 20 l 1xe8
EndSplineSet
Validated: 1
EndChar

StartChar: dollar
Encoding: 4 36 326
Width: 1166
VWidth: 0
Flags: W
HStem: -19 138<310.496 546 632 761.476> 1270 138<404.175 546 632 851.484>
VStem: 133 167<924.811 1171.83> 546 86<-177 -19 1408 1584> 854 167<208.49 517.359>
DStem2: 506 833 447 690 0.944574 -0.328297<-199.627 389.153>
LayerCount: 2
UndoRedoHistory
Layer: 1
Undoes
UndoOperation
Index: 0
Type: 12
WasModified: 0
WasOrder2: 0
EndUndoOperation
EndUndoes
Redoes
EndRedoes
EndUndoRedoHistory
Fore
SplineSet
632 -177 m 1
 546 -177 l 1
 546 -19 l 1
 374 -12 209 43 131 91 c 1
 178 222 l 1
 289 167 392 119 589 119 c 0
 799 119 854 227 854 398 c 0
 854 507 778.880859375 574.651367188 611 633 c 2
 447 690 l 2
 263.391601562 751.203125 133 846 133 1026 c 0
 133 1276 315 1394 546 1408 c 1
 546 1584 l 1
 632 1584 l 1
 632 1408 l 1
 737 1403 878 1375 964 1321 c 1
 918 1198 l 1
 831 1240 744 1266 576 1270 c 1
 408 1270 300 1177 300 1037 c 0
 300 931 378.286132812 873.833984375 506 833 c 2
 658 782 l 2
 856.172851562 715.5078125 1021 625 1021 403 c 0
 1021 137 884 -3 632 -18 c 1
 632 -177 l 1
EndSplineSet
Validated: 1
EndChar

StartChar: dotaccent
Encoding: 356 729 327
Width: 374
VWidth: 0
Flags: W
HStem: 1181 180<111 264>
VStem: 111 153<1181 1361>
LayerCount: 2
UndoRedoHistory
Layer: 1
Undoes
UndoOperation
Index: 0
Type: 12
WasModified: 0
WasOrder2: 0
EndUndoOperation
EndUndoes
Redoes
EndRedoes
EndUndoRedoHistory
Fore
SplineSet
111 1181 m 1
 111 1361 l 1
 264 1361 l 1
 264 1181 l 1
 111 1181 l 1
EndSplineSet
Validated: 1
EndChar

StartChar: dotlessi
Encoding: 238 305 328
Width: 413
VWidth: 0
Flags: W
HStem: 0 21G<130 284> 979 20G<130 284>
VStem: 130 154<0 999>
LayerCount: 2
UndoRedoHistory
Layer: 1
Undoes
UndoOperation
Index: 0
Type: 12
WasModified: 0
WasOrder2: 0
EndUndoOperation
EndUndoes
Redoes
EndRedoes
EndUndoRedoHistory
Fore
SplineSet
130 0 m 1
 130 999 l 1
 284 999 l 1
 284 0 l 1
 130 0 l 1
EndSplineSet
Validated: 1
EndChar

StartChar: e
Encoding: 69 101 329
Width: 1108
VWidth: 0
Flags: W
HStem: -21 133<443.911 845.51> 469 113<279 814> 888 131<427.013 722.889>
VStem: 103 172<292.222 469 582 719.895> 814 164<582 784.71>
LayerCount: 2
UndoRedoHistory
Layer: 1
Undoes
UndoOperation
Index: 0
Type: 12
WasModified: 0
WasOrder2: 0
HStem: -21 133<435.051 830.457> 469 113<279 800> 888 131<418.048 705.736>
VStem: 103 172<280.219 469 582 730.554> 800 164<582 782.765>
EndUndoOperation
UndoOperation
Index: 1
Type: 1
WasModified: 1
WasOrder2: 0
Width: 1108
VWidth: 0
LBearingChange: 0
UnicodeEnc: 0
InstructionsLength: 0
SplineSet
598 -21 m 4
 309 -21 103 176 103 496 c 0
 103 805 316 1019 579 1019 c 4
 836 1019 979 832 979 553 c 4
 979 530 973 469 973 469 c 5
 275 469 l 1
 279 240 433 112 623 112 c 4
 748 112 845 151 933 197 c 5
 957 65 l 5
 861 7 747 -21 598 -21 c 4
279 582 m 1
 815 582 l 5
 810 779 745 888 584 888 c 4
 428 888 296 772 279 582 c 1
EndSplineSet
EndUndoOperation
UndoOperation
Index: 2
Type: 1
WasModified: 1
WasOrder2: 0
Width: 1108
VWidth: 0
LBearingChange: 0
UnicodeEnc: 0
InstructionsLength: 0
SplineSet
599 -21 m 4
 310 -21 103 176 103 496 c 0
 103 805 317 1019 580 1019 c 4
 837 1019 980 832 980 553 c 4
 980 530 974 469 974 469 c 5
 275 469 l 1
 279 240 434 112 624 112 c 4
 749 112 846 151 934 197 c 5
 958 65 l 5
 862 7 748 -21 599 -21 c 4
279 582 m 1
 816 582 l 5
 811 779 746 888 585 888 c 4
 429 888 296 772 279 582 c 1
EndSplineSet
EndUndoOperation
UndoOperation
Index: 3
Type: 1
WasModified: 1
WasOrder2: 0
Width: 1108
VWidth: 0
LBearingChange: 0
UnicodeEnc: 0
InstructionsLength: 0
SplineSet
600 -21 m 4
 311 -21 103 176 103 496 c 0
 103 805 318 1019 581 1019 c 4
 838 1019 981 832 981 553 c 4
 981 530 975 469 975 469 c 5
 275 469 l 1
 279 240 435 112 625 112 c 4
 750 112 847 151 935 197 c 5
 959 65 l 5
 863 7 749 -21 600 -21 c 4
279 582 m 1
 817 582 l 5
 812 779 747 888 586 888 c 4
 430 888 296 772 279 582 c 1
EndSplineSet
EndUndoOperation
UndoOperation
Index: 4
Type: 1
WasModified: 1
WasOrder2: 0
Width: 1108
VWidth: 0
LBearingChange: 0
UnicodeEnc: 0
InstructionsLength: 0
SplineSet
601 -21 m 4
 312 -21 103 176 103 496 c 0
 103 805 319 1019 582 1019 c 4
 839 1019 982 832 982 553 c 4
 982 530 976 469 976 469 c 5
 275 469 l 1
 279 240 436 112 626 112 c 4
 751 112 848 151 936 197 c 5
 960 65 l 5
 864 7 750 -21 601 -21 c 4
279 582 m 1
 818 582 l 5
 813 779 748 888 587 888 c 4
 431 888 296 772 279 582 c 1
EndSplineSet
EndUndoOperation
UndoOperation
Index: 5
Type: 1
WasModified: 1
WasOrder2: 0
Width: 1108
VWidth: 0
LBearingChange: 0
UnicodeEnc: 0
InstructionsLength: 0
SplineSet
602 -21 m 4
 313 -21 103 176 103 496 c 0
 103 805 320 1019 583 1019 c 4
 840 1019 983 832 983 553 c 4
 983 530 977 469 977 469 c 5
 275 469 l 1
 279 240 437 112 627 112 c 4
 752 112 849 151 937 197 c 5
 961 65 l 5
 865 7 751 -21 602 -21 c 4
279 582 m 1
 819 582 l 5
 814 779 749 888 588 888 c 4
 432 888 296 772 279 582 c 1
EndSplineSet
EndUndoOperation
UndoOperation
Index: 6
Type: 1
WasModified: 1
WasOrder2: 0
Width: 1108
VWidth: 0
LBearingChange: 0
UnicodeEnc: 0
InstructionsLength: 0
SplineSet
603 -21 m 4
 314 -21 103 176 103 496 c 0
 103 805 321 1019 584 1019 c 4
 841 1019 984 832 984 553 c 4
 984 530 978 469 978 469 c 5
 275 469 l 1
 279 240 438 112 628 112 c 4
 753 112 850 151 938 197 c 5
 962 65 l 5
 866 7 752 -21 603 -21 c 4
279 582 m 1
 820 582 l 5
 815 779 750 888 589 888 c 4
 433 888 296 772 279 582 c 1
EndSplineSet
EndUndoOperation
UndoOperation
Index: 7
Type: 1
WasModified: 1
WasOrder2: 0
Width: 1108
VWidth: 0
LBearingChange: 0
UnicodeEnc: 0
InstructionsLength: 0
SplineSet
613 -21 m 4
 324 -21 103 176 103 496 c 0
 103 805 331 1019 594 1019 c 4
 851 1019 994 832 994 553 c 4
 994 530 988 469 988 469 c 5
 275 469 l 1
 279 240 448 112 638 112 c 4
 763 112 860 151 948 197 c 5
 972 65 l 5
 876 7 762 -21 613 -21 c 4
279 582 m 1
 830 582 l 5
 825 779 760 888 599 888 c 4
 443 888 296 772 279 582 c 1
EndSplineSet
EndUndoOperation
UndoOperation
Index: 8
Type: 1
WasModified: 1
WasOrder2: 0
Width: 1108
VWidth: 0
LBearingChange: 0
UnicodeEnc: 0
InstructionsLength: 0
SplineSet
603 -21 m 4
 314 -21 103 176 103 496 c 0
 103 805 321 1019 584 1019 c 4
 841 1019 984 832 984 553 c 4
 984 530 978 469 978 469 c 5
 275 469 l 1
 279 240 438 112 628 112 c 4
 753 112 850 151 938 197 c 5
 962 65 l 5
 866 7 752 -21 603 -21 c 4
279 582 m 1
 820 582 l 5
 815 779 750 888 589 888 c 4
 433 888 296 772 279 582 c 1
EndSplineSet
EndUndoOperation
UndoOperation
Index: 9
Type: 1
WasModified: 1
WasOrder2: 0
Width: 1108
VWidth: 0
LBearingChange: 0
UnicodeEnc: 0
InstructionsLength: 0
SplineSet
593 -21 m 4
 304 -21 103 176 103 496 c 0
 103 805 311 1019 574 1019 c 4
 831 1019 974 832 974 553 c 4
 974 530 968 469 968 469 c 5
 275 469 l 1
 279 240 428 112 618 112 c 4
 743 112 840 151 928 197 c 5
 952 65 l 5
 856 7 742 -21 593 -21 c 4
279 582 m 1
 810 582 l 5
 805 779 740 888 579 888 c 4
 423 888 296 772 279 582 c 1
EndSplineSet
EndUndoOperation
UndoOperation
Index: 10
Type: 1
WasModified: 1
WasOrder2: 0
Width: 1108
VWidth: 0
LBearingChange: 0
UnicodeEnc: 0
InstructionsLength: 0
SplineSet
583 -21 m 4
 294 -21 103 176 103 496 c 0
 103 805 301 1019 564 1019 c 4
 821 1019 964 832 964 553 c 4
 964 530 958 469 958 469 c 5
 275 469 l 1
 279 240 418 112 608 112 c 4
 733 112 830 151 918 197 c 5
 942 65 l 5
 846 7 732 -21 583 -21 c 4
279 582 m 1
 800 582 l 5
 795 779 730 888 569 888 c 4
 413 888 296 772 279 582 c 1
EndSplineSet
EndUndoOperation
UndoOperation
Index: 11
Type: 1
WasModified: 1
WasOrder2: 0
Width: 1108
VWidth: 0
LBearingChange: 0
UnicodeEnc: 0
InstructionsLength: 0
SplineSet
573 -21 m 4
 284 -21 103 176 103 496 c 0
 103 805 291 1019 554 1019 c 4
 811 1019 954 832 954 553 c 4
 954 530 948 469 948 469 c 5
 275 469 l 1
 279 240 408 112 598 112 c 4
 723 112 820 151 908 197 c 5
 932 65 l 5
 836 7 722 -21 573 -21 c 4
279 582 m 1
 790 582 l 5
 785 779 720 888 559 888 c 4
 403 888 296 772 279 582 c 1
EndSplineSet
EndUndoOperation
EndUndoes
Redoes
EndRedoes
EndUndoRedoHistory
Fore
SplineSet
597 -21 m 4
 308 -21 103 176 103 496 c 0
 103 805 315 1019 578 1019 c 4
 835 1019 978 832 978 553 c 4
 978 530 972 469 972 469 c 5
 275 469 l 1
 279 240 432 112 622 112 c 4
 747 112 844 151 932 197 c 5
 956 65 l 5
 860 7 746 -21 597 -21 c 4
279 582 m 1
 814 582 l 5
 809 779 744 888 583 888 c 4
 427 888 296 772 279 582 c 1
EndSplineSet
EndChar

StartChar: eight
Encoding: 24 56 337
Width: 1157
VWidth: 0
Flags: W
HStem: -18 138<403.315 752.375> 1228 138<410.276 745.008>
VStem: 134 159<223.038 496.359> 162 160<886.409 1149.33> 831 160<883.47 1151.25> 860 160<223.038 496.359>
LayerCount: 2
UndoRedoHistory
Layer: 1
Undoes
UndoOperation
Index: 0
Type: 12
WasModified: 0
WasOrder2: 0
EndUndoOperation
EndUndoes
Redoes
EndRedoes
EndUndoRedoHistory
Fore
SplineSet
578 760 m 1xd8
 745 797 831 891 831 1034 c 0
 831 1163 713 1228 578 1228 c 0
 444 1228 322 1163 322 1034 c 0
 322 891 412 797 578 760 c 1xd8
578 120 m 0
 741 120 860 208 860 358 c 0
 860 506 741 602 578 638 c 1
 416 602 293 506 293 358 c 0xe4
 293 208 416 120 578 120 c 0
578 -18 m 0
 336 -18 134 108 134 347 c 0xe4
 134 520 240 650 416 707 c 1
 260 762 162 867 162 1031 c 0
 162 1247 338 1366 578 1366 c 0
 818 1366 991 1247 991 1031 c 0xd8
 991 867 900 762 758 707 c 1
 920 650 1020 520 1020 347 c 0
 1020 108 821 -18 578 -18 c 0
EndSplineSet
Validated: 1
EndChar

StartChar: ellipsis
Encoding: 397 8230 338
Width: 1354
VWidth: 0
Flags: W
HStem: -11 240<132.069 324.268 582.069 774.268 1031.07 1223.84>
VStem: 107 242<14.6842 205.11> 557 242<14.6842 205.11> 1006 243<14.6842 203.316>
LayerCount: 2
UndoRedoHistory
Layer: 1
Undoes
UndoOperation
Index: 0
Type: 12
WasModified: 0
WasOrder2: 0
EndUndoOperation
EndUndoes
Redoes
EndRedoes
EndUndoRedoHistory
Fore
SplineSet
228 -11 m 0
 148 -11 107 49 107 109 c 0
 107 169 147 229 228 229 c 0
 309 229 349 169 349 109 c 0
 349 49 309 -11 228 -11 c 0
678 -11 m 0
 598 -11 557 49 557 109 c 0
 557 169 597 229 678 229 c 0
 759 229 799 169 799 109 c 0
 799 49 759 -11 678 -11 c 0
1127 -11 m 0
 1047 -11 1006 49 1006 109 c 0
 1006 169 1046 229 1127 229 c 0
 1208 229 1249 169 1249 109 c 0
 1249 49 1208 -11 1127 -11 c 0
EndSplineSet
Validated: 1
EndChar

StartChar: emdash
Encoding: 387 8212 340
Width: 2176
VWidth: 0
Flags: W
HStem: 480 134<104 2067>
LayerCount: 2
UndoRedoHistory
Layer: 1
Undoes
UndoOperation
Index: 0
Type: 12
WasModified: 0
WasOrder2: 0
EndUndoOperation
EndUndoes
Redoes
EndRedoes
EndUndoRedoHistory
Fore
SplineSet
104 480 m 1
 104 614 l 1
 2067 614 l 1
 2067 480 l 1
 104 480 l 1
EndSplineSet
Validated: 1
EndChar

StartChar: endash
Encoding: 386 8211 341
Width: 1166
VWidth: 0
Flags: W
HStem: 480 134<104 1057>
LayerCount: 2
UndoRedoHistory
Layer: 1
Undoes
UndoOperation
Index: 0
Type: 12
WasModified: 0
WasOrder2: 0
EndUndoOperation
EndUndoes
Redoes
EndRedoes
EndUndoRedoHistory
Fore
SplineSet
104 480 m 1
 104 614 l 1
 1057 614 l 1
 1057 480 l 1
 104 480 l 1
EndSplineSet
Validated: 1
EndChar

StartChar: eng
Encoding: 428 331 342
Width: 1096
VWidth: 0
Flags: W
HStem: -275 147<589 763.573> 0 21G<149 324> 889 130<443.964 727.984> 978 20G<149 300.657>
VStem: 149 175<0 770.782> 149 149<890.103 998> 790 175<-102.452 825.152>
LayerCount: 2
UndoRedoHistory
Layer: 1
Undoes
UndoOperation
Index: 0
Type: 12
WasModified: 0
WasOrder2: 0
EndUndoOperation
EndUndoes
Redoes
EndRedoes
EndUndoRedoHistory
Fore
SplineSet
653 -275 m 2xe6
 589 -275 l 1
 578 -128 l 1
 617 -128 l 2
 774 -128 790 -100 790 95 c 2
 790 623 l 2
 790 788 754 889 601 889 c 0
 439 889 363 801 333 686 c 1
 327 643 324 597 324 546 c 2
 324 0 l 1
 149 0 l 1xea
 149 998 l 1
 298 998 l 1xd6
 317 855 l 1
 389 963 492 1019 635 1019 c 0
 865 1019 965 880 965 612 c 2
 965 144 l 2
 965 -134 923 -275 653 -275 c 2xe6
EndSplineSet
Validated: 1
EndChar

StartChar: epsilon
Encoding: 65688 949 344
Width: 451
VWidth: 0
Flags: W
HStem: 484 240<127.069 319.268>
VStem: 102 242<509.684 698.316>
LayerCount: 2
UndoRedoHistory
Layer: 1
Undoes
UndoOperation
Index: 0
Type: 12
WasModified: 0
WasOrder2: 0
EndUndoOperation
EndUndoes
Redoes
EndRedoes
EndUndoRedoHistory
Fore
SplineSet
223 484 m 0
 143 484 102 544 102 604 c 0
 102 664 143 724 223 724 c 0
 304 724 344 664 344 604 c 0
 344 544 304 484 223 484 c 0
EndSplineSet
Validated: 1
EndChar

StartChar: epsilontonos
Encoding: 65689 941 345
Width: 451
VWidth: 0
Flags: W
HStem: 484 240<127.069 319.268>
VStem: 102 242<509.684 698.316>
LayerCount: 2
UndoRedoHistory
Layer: 1
Undoes
UndoOperation
Index: 0
Type: 12
WasModified: 0
WasOrder2: 0
EndUndoOperation
EndUndoes
Redoes
EndRedoes
EndUndoRedoHistory
Fore
SplineSet
223 484 m 0
 143 484 102 544 102 604 c 0
 102 664 143 724 223 724 c 0
 304 724 344 664 344 604 c 0
 344 544 304 484 223 484 c 0
EndSplineSet
Validated: 1
EndChar

StartChar: equal
Encoding: 29 61 346
Width: 1114
VWidth: 0
Flags: W
HStem: 343 129<117 996> 727 131<116 996>
LayerCount: 2
UndoRedoHistory
Layer: 1
Undoes
UndoOperation
Index: 0
Type: 12
WasModified: 0
WasOrder2: 0
EndUndoOperation
EndUndoes
Redoes
EndRedoes
EndUndoRedoHistory
Fore
SplineSet
116 727 m 1
 116 858 l 1
 996 858 l 1
 996 727 l 1
 116 727 l 1
117 343 m 1
 117 472 l 1
 996 472 l 1
 996 343 l 1
 117 343 l 1
EndSplineSet
Validated: 1
EndChar

StartChar: eta
Encoding: 65690 951 347
Width: 451
VWidth: 0
Flags: W
HStem: 484 240<127.069 319.268>
VStem: 102 242<509.684 698.316>
LayerCount: 2
UndoRedoHistory
Layer: 1
Undoes
UndoOperation
Index: 0
Type: 12
WasModified: 0
WasOrder2: 0
EndUndoOperation
EndUndoes
Redoes
EndRedoes
EndUndoRedoHistory
Fore
SplineSet
223 484 m 0
 143 484 102 544 102 604 c 0
 102 664 143 724 223 724 c 0
 304 724 344 664 344 604 c 0
 344 544 304 484 223 484 c 0
EndSplineSet
Validated: 1
EndChar

StartChar: etatonos
Encoding: 65691 942 348
Width: 451
VWidth: 0
Flags: W
HStem: 484 240<127.069 319.268>
VStem: 102 242<509.684 698.316>
LayerCount: 2
UndoRedoHistory
Layer: 1
Undoes
UndoOperation
Index: 0
Type: 12
WasModified: 0
WasOrder2: 0
EndUndoOperation
EndUndoes
Redoes
EndRedoes
EndUndoRedoHistory
Fore
SplineSet
223 484 m 0
 143 484 102 544 102 604 c 0
 102 664 143 724 223 724 c 0
 304 724 344 664 344 604 c 0
 344 544 304 484 223 484 c 0
EndSplineSet
Validated: 1
EndChar

StartChar: eth
Encoding: 173 240 349
Width: 1164
VWidth: 0
Flags: W
HStem: -23 127<426.475 753.205> 758 127<422.402 733.392> 1383 20G<772.932 831.179>
VStem: 114 165<261.102 611.881> 895 156<248.822 600.781>
DStem2: 240 1162 279 1042 0.923402 0.383833<0 215.003 389.871 625.645> 646 1201 527 1144 0.664554 -0.74724<-326.535 -166.788 0 399.136>
LayerCount: 2
UndoRedoHistory
Layer: 1
Undoes
UndoOperation
Index: 0
Type: 12
WasModified: 0
WasOrder2: 0
EndUndoOperation
EndUndoes
Redoes
EndRedoes
EndUndoRedoHistory
Fore
SplineSet
589 104 m 0
 786 104 895 247 895 430 c 0
 895 595 785 758 583 758 c 0
 390 758 279 614 279 441 c 0
 279 267 382 104 589 104 c 0
583 -23 m 0
 281 -23 114 193 114 442 c 0
 114 707 288 885 552 885 c 0
 671 885 751 836 803 798 c 1
 761 877 672 997 527 1144 c 1
 279 1042 l 1
 240 1162 l 1
 440 1241 l 1
 226 1445 l 1
 429 1445 l 1
 561 1300 l 1
 824 1403 l 1
 866 1286 l 1
 646 1201 l 1
 788 1046 891 921 958 804 c 1
 1021 686 1051 575 1051 448 c 0
 1051 181 892 -23 583 -23 c 0
EndSplineSet
Validated: 1
EndChar

StartChar: exclam
Encoding: 1 33 350
Width: 557
VWidth: 0
Flags: W
HStem: -11 240<183.069 375.268> 1370 20G<189 368>
VStem: 158 242<14.6842 203.316> 189 179<1017.98 1390>
LayerCount: 2
UndoRedoHistory
Layer: 1
Undoes
UndoOperation
Index: 0
Type: 12
WasModified: 0
WasOrder2: 0
EndUndoOperation
EndUndoes
Redoes
EndRedoes
EndUndoRedoHistory
Fore
SplineSet
279 -11 m 0xe0
 199 -11 158 49 158 109 c 0
 158 169 199 229 279 229 c 0
 360 229 400 169 400 109 c 0
 400 49 360 -11 279 -11 c 0xe0
368 1232 m 1xd0
 317 396 l 1
 245 396 l 1
 189 1232 l 1
 189 1390 l 5
 368 1390 l 5
 368 1232 l 1xd0
EndSplineSet
Validated: 1
EndChar

StartChar: exclamdown
Encoding: 96 161 351
Width: 557
VWidth: 0
Flags: W
HStem: 877.933 240<182.732 374.931>
VStem: 158 242<903.617 1092.25> 190 179<-254.067 88.9486>
LayerCount: 2
UndoRedoHistory
Layer: 1
Undoes
UndoOperation
Index: 0
Type: 12
WasModified: 0
WasOrder2: 0
EndUndoOperation
EndUndoes
Redoes
EndRedoes
EndUndoRedoHistory
Fore
SplineSet
279 877.932617188 m 4xc0
 198 877.932617188 158 937.932617188 158 997.932617188 c 4
 158 1057.93261719 198 1117.93261719 279 1117.93261719 c 4
 359 1117.93261719 400 1057.93261719 400 997.932617188 c 4
 400 937.932617188 359 877.932617188 279 877.932617188 c 4xc0
369 -125.067382812 m 5xa0
 369 -254.067382812 l 5
 190 -254.067382812 l 5
 190 -125.067382812 l 5
 241 710.932617188 l 5
 313 710.932617188 l 5
 369 -125.067382812 l 5xa0
EndSplineSet
Validated: 1
EndChar

StartChar: f
Encoding: 70 102 352
Width: 767
VWidth: 0
Flags: W
HStem: 0 21G<252 427> 886 112<427 660> 886 95<50 220.345> 1273 137<470.046 691.913>
VStem: 252 175<0 886 998 1232.24>
LayerCount: 2
UndoRedoHistory
Layer: 1
Undoes
UndoOperation
Index: 0
Type: 12
WasModified: 0
WasOrder2: 0
HStem: 0 21G<252 427> 886 112<109.483 252 427 660> 886 95<83 225.517> 1273 137<470.046 691.913>
VStem: 252 175<0 886 998 1232.24>
EndUndoOperation
UndoOperation
Index: 1
Type: 1
WasModified: 1
WasOrder2: 0
Width: 767
VWidth: 0
LBearingChange: 0
UnicodeEnc: 0
InstructionsLength: 0
SplineSet
252 0 m 1xd8
 252 886 l 1xd8
 46 886 l 5
 51 981 l 5xb8
 252 998 l 1
 252 1061 l 2
 252 1318 366 1410 544 1410 c 0
 589 1410 684 1398 702 1394 c 1
 690 1263 l 1
 665 1267 620 1273 584 1273 c 0
 482 1273 427 1230 427 1055 c 2
 427 998 l 1
 660 998 l 1
 660 886 l 1
 427 886 l 1
 427 0 l 1
 252 0 l 1xd8
EndSplineSet
EndUndoOperation
UndoOperation
Index: 2
Type: 1
WasModified: 1
WasOrder2: 0
Width: 767
VWidth: 0
LBearingChange: 0
UnicodeEnc: 0
InstructionsLength: 0
SplineSet
252 0 m 1xd8
 252 886 l 1xd8
 47 886 l 5
 52 981 l 5xb8
 252 998 l 1
 252 1061 l 2
 252 1318 366 1410 544 1410 c 0
 589 1410 684 1398 702 1394 c 1
 690 1263 l 1
 665 1267 620 1273 584 1273 c 0
 482 1273 427 1230 427 1055 c 2
 427 998 l 1
 660 998 l 1
 660 886 l 1
 427 886 l 1
 427 0 l 1
 252 0 l 1xd8
EndSplineSet
EndUndoOperation
UndoOperation
Index: 3
Type: 1
WasModified: 1
WasOrder2: 0
Width: 767
VWidth: 0
LBearingChange: 0
UnicodeEnc: 0
InstructionsLength: 0
SplineSet
252 0 m 1xd8
 252 886 l 1xd8
 48 886 l 5
 53 981 l 5xb8
 252 998 l 1
 252 1061 l 2
 252 1318 366 1410 544 1410 c 0
 589 1410 684 1398 702 1394 c 1
 690 1263 l 1
 665 1267 620 1273 584 1273 c 0
 482 1273 427 1230 427 1055 c 2
 427 998 l 1
 660 998 l 1
 660 886 l 1
 427 886 l 1
 427 0 l 1
 252 0 l 1xd8
EndSplineSet
EndUndoOperation
UndoOperation
Index: 4
Type: 1
WasModified: 1
WasOrder2: 0
Width: 767
VWidth: 0
LBearingChange: 0
UnicodeEnc: 0
InstructionsLength: 0
SplineSet
252 0 m 1xd8
 252 886 l 1xd8
 58 886 l 5
 63 981 l 5xb8
 252 998 l 1
 252 1061 l 2
 252 1318 366 1410 544 1410 c 0
 589 1410 684 1398 702 1394 c 1
 690 1263 l 1
 665 1267 620 1273 584 1273 c 0
 482 1273 427 1230 427 1055 c 2
 427 998 l 1
 660 998 l 1
 660 886 l 1
 427 886 l 1
 427 0 l 1
 252 0 l 1xd8
EndSplineSet
EndUndoOperation
UndoOperation
Index: 5
Type: 1
WasModified: 1
WasOrder2: 0
Width: 767
VWidth: 0
LBearingChange: 0
UnicodeEnc: 0
InstructionsLength: 0
SplineSet
252 0 m 1xd8
 252 886 l 1xd8
 68 886 l 5
 73 981 l 5xb8
 252 998 l 1
 252 1061 l 2
 252 1318 366 1410 544 1410 c 0
 589 1410 684 1398 702 1394 c 1
 690 1263 l 1
 665 1267 620 1273 584 1273 c 0
 482 1273 427 1230 427 1055 c 2
 427 998 l 1
 660 998 l 1
 660 886 l 1
 427 886 l 1
 427 0 l 1
 252 0 l 1xd8
EndSplineSet
EndUndoOperation
UndoOperation
Index: 6
Type: 1
WasModified: 1
WasOrder2: 0
Width: 767
VWidth: 0
LBearingChange: 0
UnicodeEnc: 0
InstructionsLength: 0
SplineSet
252 0 m 1xd8
 252 886 l 1xd8
 78 886 l 5
 83 981 l 5xb8
 252 998 l 1
 252 1061 l 2
 252 1318 366 1410 544 1410 c 0
 589 1410 684 1398 702 1394 c 1
 690 1263 l 1
 665 1267 620 1273 584 1273 c 0
 482 1273 427 1230 427 1055 c 2
 427 998 l 1
 660 998 l 1
 660 886 l 1
 427 886 l 1
 427 0 l 1
 252 0 l 1xd8
EndSplineSet
EndUndoOperation
UndoOperation
Index: 7
Type: 3
WasModified: 1
WasOrder2: 0
EndUndoOperation
UndoOperation
Index: 8
Type: 3
WasModified: 1
WasOrder2: 0
EndUndoOperation
UndoOperation
Index: 9
Type: 3
WasModified: 1
WasOrder2: 0
EndUndoOperation
UndoOperation
Index: 10
Type: 3
WasModified: 1
WasOrder2: 0
EndUndoOperation
UndoOperation
Index: 11
Type: 7
WasModified: 1
WasOrder2: 0
Width: 766
EndUndoOperation
EndUndoes
Redoes
EndRedoes
EndUndoRedoHistory
Fore
SplineSet
252 0 m 1xd8
 252 886 l 1
 45 886 l 5
 50 981 l 5xb8
 252 998 l 1
 252 1061 l 2
 252 1318 366 1410 544 1410 c 0
 589 1410 684 1398 702 1394 c 1
 690 1263 l 1
 665 1267 620 1273 584 1273 c 0
 482 1273 427 1230 427 1055 c 2
 427 998 l 1
 660 998 l 1
 660 886 l 1
 427 886 l 1
 427 0 l 1
 252 0 l 1xd8
EndSplineSet
EndChar

StartChar: five
Encoding: 21 53 353
Width: 1043
VWidth: 0
Flags: W
HStem: -21 147<269.118 655.58> 706 143<357.079 674.716> 1212 149<333 889>
VStem: 169 151<784 931.189> 204 129<1062.81 1212> 792 165<260.857 589.998>
LayerCount: 2
UndoRedoHistory
Layer: 1
Undoes
UndoOperation
Index: 0
Type: 12
WasModified: 0
WasOrder2: 0
EndUndoOperation
EndUndoes
Redoes
EndRedoes
EndUndoRedoHistory
Fore
SplineSet
474 -21 m 4xf4
 315 -21 190 30 109 104 c 5
 168 232 l 5
 226 186 329 126 480 126 c 4
 682 126 792 254 792 432 c 0
 792 589 697 706 512 706 c 0
 426 706 352 679 295 616 c 1
 169 633 l 1xf4
 204 1361 l 1
 902 1361 l 1
 889 1212 l 1
 333 1212 l 1xec
 328 1080 324 916 320 784 c 1
 393 830 467 849 543 849 c 0
 819 849 957 665 957 434 c 0
 957 162 781 -21 474 -21 c 4xf4
EndSplineSet
Validated: 1
EndChar

StartChar: florin
Encoding: 309 402 354
Width: 949
VWidth: 0
Flags: W
HStem: -326 135<61.6433 200.803> 787 137<268 402 587 746> 1268 140<660.799 848.976>
DStem2: 259 5 446 118 0.173504 0.984833<-184.508 794.951 961.971 1300.82>
LayerCount: 2
UndoRedoHistory
Layer: 1
Undoes
UndoOperation
Index: 0
Type: 12
WasModified: 0
WasOrder2: 0
EndUndoOperation
EndUndoes
Redoes
EndRedoes
EndUndoRedoHistory
Fore
SplineSet
136 -326 m 0
 113 -326 86 -318 53 -308 c 1
 63 -175 l 1
 88 -185 109 -191 126 -191 c 0
 203 -191 237 -101 259 5 c 1
 317 255 354 530 402 787 c 1
 258 787 l 1
 268 924 l 1
 426 924 l 1
 446 1072 l 1
 471 1247 541 1408 740 1408 c 0
 775 1408 817 1399 856 1388 c 1
 849 1246 l 1
 816 1261 787 1268 762 1268 c 0
 667 1268 637 1214 622 1117 c 1
 587 924 l 1
 756 924 l 1
 746 787 l 1
 567 787 l 1
 446 118 l 1
 402 -116 343 -326 136 -326 c 0
EndSplineSet
Validated: 1
EndChar

StartChar: four
Encoding: 20 52 355
Width: 1138
VWidth: 0
Flags: W
HStem: 0 21G<732 885> 338 132<277 732 885 1040> 1341 20G<701.471 885>
VStem: 732 153<0 338 470 1155>
DStem2: 117 477 277 470 0.560309 0.828283<83.8515 906.166>
LayerCount: 2
UndoRedoHistory
Layer: 1
Undoes
UndoOperation
Index: 0
Type: 12
WasModified: 0
WasOrder2: 0
EndUndoOperation
EndUndoes
Redoes
EndRedoes
EndUndoRedoHistory
Fore
SplineSet
732 470 m 1
 732 1155 l 1
 277 470 l 1
 732 470 l 1
715 1361 m 1
 885 1361 l 1
 885 470 l 1
 1052 470 l 1
 1040 338 l 1
 885 338 l 1
 885 0 l 1
 732 0 l 1
 732 338 l 1
 117 338 l 1
 117 477 l 1
 715 1361 l 1
EndSplineSet
Validated: 1
EndChar

StartChar: fraction
Encoding: 401 8260 356
Width: 1075
VWidth: 0
Flags: W
HStem: 0 21G<88 218.321> 1388 20G<873.679 1004>
DStem2: 88 0 207 0 0.492607 0.870252<58.6202 1617.92>
LayerCount: 2
UndoRedoHistory
Layer: 1
Undoes
UndoOperation
Index: 0
Type: 12
WasModified: 0
WasOrder2: 0
EndUndoOperation
EndUndoes
Redoes
EndRedoes
EndUndoRedoHistory
Fore
SplineSet
88 0 m 1
 885 1408 l 1
 1004 1408 l 1
 207 0 l 1
 88 0 l 1
EndSplineSet
Validated: 1
EndChar

StartChar: g
Encoding: 71 103 357
Width: 1183
VWidth: 0
Flags: W
HStem: -425 134<276.458 725.844> 0 130<419.761 726.838> 891 128<422.46 728.278> 978 20G<874.195 1035>
VStem: 103 174<294.105 723.164> 860 175<-154.593 191 270.344 749.841> 876 159<865 998>
LayerCount: 2
UndoRedoHistory
Layer: 1
Undoes
UndoOperation
Index: 0
Type: 12
WasModified: 0
WasOrder2: 0
HStem: -425 134<276.458 725.844> 0 130<419.761 726.838> 891 128<422.46 728.278> 978 20G<874.195 1035>
VStem: 103 174<294.105 723.164> 860 175<-154.593 191 270.344 749.841> 876 159<865 998>
EndUndoOperation
EndUndoes
Redoes
EndRedoes
EndUndoRedoHistory
Fore
SplineSet
524 -425 m 0xdc
 405 -425 307 -400 267 -390 c 1
 278 -262 l 1
 318 -273 410 -291 511 -291 c 0
 755 -291 860 -199 860 73 c 2
 860 191 l 1
 813 73 708 0 550 0 c 0
 254 0 103 249 103 496 c 0
 103 780 248 1019 553 1019 c 0xec
 686 1019 788 968 864 865 c 1
 876 998 l 1
 1035 998 l 1xda
 1035 148 l 6
 1035 -187 933 -425 524 -425 c 0xdc
563 130 m 0
 778 130 860 291 860 470 c 2
 860 543 l 2
 860 732 774 891 567 891 c 0
 350 891 277 677 277 504 c 0
 277 333 356 130 563 130 c 0
EndSplineSet
Validated: 1
EndChar

StartChar: gamma
Encoding: 65692 947 358
Width: 451
VWidth: 0
Flags: W
HStem: 484 240<127.069 319.268>
VStem: 102 242<509.684 698.316>
LayerCount: 2
UndoRedoHistory
Layer: 1
Undoes
UndoOperation
Index: 0
Type: 12
WasModified: 0
WasOrder2: 0
EndUndoOperation
EndUndoes
Redoes
EndRedoes
EndUndoRedoHistory
Fore
SplineSet
223 484 m 0
 143 484 102 544 102 604 c 0
 102 664 143 724 223 724 c 0
 304 724 344 664 344 604 c 0
 344 544 304 484 223 484 c 0
EndSplineSet
Validated: 1
EndChar

StartChar: germandbls
Encoding: 156 223 364
Width: 1103
VWidth: 0
Flags: W
HStem: -18 134<549.183 845.488> 0 21G<149 302> 1249 139<398.779 685.592>
VStem: 149 153<0 1143.98> 560 158<628.386 798.132> 733 162<956.229 1202.41> 884 168<153.597 377.27>
LayerCount: 2
UndoRedoHistory
Layer: 1
Undoes
UndoOperation
Index: 0
Type: 12
WasModified: 0
WasOrder2: 0
EndUndoOperation
EndUndoes
Redoes
EndRedoes
EndUndoRedoHistory
Fore
SplineSet
302 0 m 1x7c
 149 0 l 1
 149 952 l 2
 149 1222 279 1388 559 1388 c 0
 787 1388 895 1273 895 1076 c 0x7c
 895 903 718 792 718 699 c 0
 718 588 1015 548 1048 317 c 0
 1050 300 1052 284 1052 268 c 0
 1052 103 928 -18 748 -18 c 0
 617 -18 493 22 436 56 c 1
 490 187 l 1
 548 156 657 116 734 116 c 0
 832 116 884 181 884 259 c 0xba
 884 276 881 294 876 312 c 0
 832 465 560 521 560 684 c 0
 560 836 733 952 733 1077 c 0
 733 1187 671 1249 559 1249 c 0
 373 1249 302 1134 302 961 c 2
 302 0 l 1x7c
EndSplineSet
Validated: 1
EndChar

StartChar: grave
Encoding: 64 96 365
Width: 585
VWidth: 0
Flags: W
HStem: 1138 353
VStem: 77 396
LayerCount: 2
UndoRedoHistory
Layer: 1
Undoes
UndoOperation
Index: 0
Type: 12
WasModified: 0
WasOrder2: 0
EndUndoOperation
EndUndoes
Redoes
EndRedoes
EndUndoRedoHistory
Fore
SplineSet
371 1138 m 1
 77 1491 l 1
 305 1491 l 1
 473 1138 l 1
 371 1138 l 1
EndSplineSet
Validated: 1
EndChar

StartChar: greater
Encoding: 30 62 366
Width: 1102
VWidth: 0
Flags: W
DStem2: 121 283 121 138 0.904537 0.426395<0 771.535> 123 1092 123 950 0.886984 -0.461801<65.5758 850.33>
LayerCount: 2
UndoRedoHistory
Layer: 1
Undoes
UndoOperation
Index: 0
Type: 12
WasModified: 0
WasOrder2: 0
EndUndoOperation
EndUndoes
Redoes
EndRedoes
EndUndoRedoHistory
Fore
SplineSet
123 1092 m 1
 995 638 l 1
 995 550 l 1
 121 138 l 1
 121 283 l 1
 825 599 l 1
 123 950 l 1
 123 1092 l 1
EndSplineSet
Validated: 1
EndChar

StartChar: greaterequal
Encoding: 412 8805 367
Width: 1112
VWidth: 0
Flags: W
HStem: 7 121<121 995>
DStem2: 145 350 145 213 0.88402 0.467449<0 772.961>
LayerCount: 2
UndoRedoHistory
Layer: 1
Undoes
UndoOperation
Index: 0
Type: 12
WasModified: 0
WasOrder2: 0
EndUndoOperation
EndUndoes
Redoes
EndRedoes
EndUndoRedoHistory
Fore
SplineSet
121 7 m 1
 121 128 l 1
 995 128 l 1
 995 7 l 1
 121 7 l 1
148 1196 m 1
 979 733 l 1
 979 654 l 1
 145 213 l 1
 145 350 l 1
 838 693 l 1
 148 1059 l 1
 148 1196 l 1
EndSplineSet
Validated: 1
EndChar

StartChar: guillemotleft
Encoding: 106 171 368
Width: 941
VWidth: 0
Flags: W
DStem2: 98 516 246 511 0.588303 0.808641<83.0256 453.848> 246 511 116 473 0.579664 -0.814856<0 372.812> 592 511 434 516 0.586269 -0.810117<0 372.387> 434 516 592 511 0.602433 0.798169<91.1936 459.802>
LayerCount: 2
UndoRedoHistory
Layer: 1
Undoes
UndoOperation
Index: 0
Type: 12
WasModified: 0
WasOrder2: 0
EndUndoOperation
EndUndoes
Redoes
EndRedoes
EndUndoRedoHistory
Fore
SplineSet
592 511 m 1
 824 168 l 1
 709 136 l 1
 434 516 l 1
 711 883 l 1
 827 851 l 1
 592 511 l 1
495 851 m 1
 246 511 l 1
 490 168 l 1
 362 136 l 1
 116 473 l 1
 98 516 l 1
 365 883 l 1
 495 851 l 1
EndSplineSet
Validated: 1
EndChar

StartChar: guillemotright
Encoding: 120 187 369
Width: 960
VWidth: 0
Flags: W
DStem2: 116 168 232 136 0.601389 0.798957<44.1945 415.368> 233 883 117 851 0.588679 -0.808367<0 370.177> 462 168 589 136 0.585812 0.810447<48.4638 422.093> 592 883 467 851 0.570111 -0.821567<0 371.756>
LayerCount: 2
UndoRedoHistory
Layer: 1
Undoes
UndoOperation
Index: 0
Type: 12
WasModified: 0
WasOrder2: 0
EndUndoOperation
EndUndoes
Redoes
EndRedoes
EndUndoRedoHistory
Fore
SplineSet
592 883 m 1
 855 504 l 1
 589 136 l 1
 462 168 l 1
 708 511 l 1
 467 851 l 1
 592 883 l 1
233 883 m 1
 509 504 l 1
 232 136 l 1
 116 168 l 1
 351 511 l 1
 117 851 l 1
 233 883 l 1
EndSplineSet
Validated: 1
EndChar

StartChar: guilsinglleft
Encoding: 399 8249 370
Width: 560
VWidth: 0
Flags: W
VStem: 315 126<166 292 768 894>
DStem2: 236 531 100 531 0.507536 -0.861631<0 354.591> 100 531 236 531 0.516576 0.856242<70.2543 423.946>
LayerCount: 2
UndoRedoHistory
Layer: 1
Undoes
UndoOperation
Index: 0
Type: 12
WasModified: 0
WasOrder2: 0
EndUndoOperation
EndUndoes
Redoes
EndRedoes
EndUndoRedoHistory
Fore
SplineSet
236 531 m 1
 441 166 l 1
 315 166 l 1
 100 531 l 1
 319 894 l 1
 447 894 l 1
 236 531 l 1
EndSplineSet
Validated: 1
EndChar

StartChar: guilsinglright
Encoding: 400 8250 371
Width: 566
VWidth: 0
Flags: W
VStem: 115 127<166 293 767 894>
DStem2: 115 166 242 166 0.513461 0.858113<65.2095 421.896> 247 894 120 894 0.50889 -0.860832<0 351.315>
LayerCount: 2
UndoRedoHistory
Layer: 1
Undoes
UndoOperation
Index: 0
Type: 12
WasModified: 0
WasOrder2: 0
EndUndoOperation
EndUndoes
Redoes
EndRedoes
EndUndoRedoHistory
Fore
SplineSet
461 532 m 1
 242 166 l 1
 115 166 l 1
 325 532 l 1
 120 894 l 1
 247 894 l 1
 461 532 l 1
EndSplineSet
Validated: 1
EndChar

StartChar: h
Encoding: 72 104 372
Width: 1094
VWidth: 0
Flags: W
HStem: 0 21G<149 324 790 965> 889 130<441.836 730.617> 1389 20G<149 324>
VStem: 149 175<0 771.06 864 1395> 790 175<0 825.152>
LayerCount: 2
UndoRedoHistory
Layer: 1
Undoes
UndoOperation
Index: 0
Type: 12
WasModified: 0
WasOrder2: 0
HStem: 0 21G<149 324 790 965> 889 130<441.836 730.617> 1389 20G<149 324>
VStem: 149 175<0 771.06 864 1395> 790 175<0 825.152>
EndUndoOperation
EndUndoes
Redoes
EndRedoes
EndUndoRedoHistory
Fore
SplineSet
149 1395 m 1
 324 1409 l 1
 324 864 l 1
 382 963 493 1019 631 1019 c 0
 861 1019 965 880 965 612 c 2
 965 0 l 1
 790 0 l 1
 790 623 l 2
 790 788 754 889 601 889 c 0
 385 889 324 752 324 546 c 2
 324 0 l 1
 149 0 l 1
 149 1395 l 1
EndSplineSet
Validated: 1
EndChar

StartChar: hbar
Encoding: 228 295 373
Width: 1130
VWidth: 0
Flags: W
HStem: 0 21<149 324 149 324 149 324 149 324 149 324 149 324 149 324 149 324 149 324 149 324 149 324 149 324 149 324 790 965 790 965 790 965 790 965 790 965 790 965 790 965 790 965 790 965 790 965 790 965 790 965 790 965> 889 130<441.836 730.617 441.836 730.617 441.836 730.617 441.836 730.617 441.836 730.617 441.836 730.617 441.836 730.617 441.836 730.617 441.836 730.617 441.836 730.617 441.836 730.617 441.836 730.617 441.836 730.617> 1166 105<20 509> 1389 20<149 324 149 324 149 324 149 324 149 324 149 324 149 324 149 324 149 324 149 324 149 324 149 324 149 324>
VStem: 149 175<0 771.06 0 771.06 0 771.06 0 771.06 0 771.06 0 771.06 0 771.06 0 771.06 0 771.06 0 771.06 0 771.06 0 771.06 0 771.06 864 1395 864 1395 864 1395 864 1395 864 1395 864 1395 864 1395 864 1395 864 1395 864 1395 864 1395 864 1395 864 1395> 790 175<0 825.152 0 825.152 0 825.152 0 825.152 0 825.152 0 825.152 0 825.152 0 825.152 0 825.152 0 825.152 0 825.152 0 825.152 0 825.152>
LayerCount: 2
UndoRedoHistory
Layer: 1
Undoes
UndoOperation
Index: 0
Type: 12
WasModified: 0
WasOrder2: 0
EndUndoOperation
EndUndoes
Redoes
EndRedoes
EndUndoRedoHistory
Fore
SplineSet
509 1271 m 5
 509 1166 l 5
 20 1166 l 5
 20 1271 l 5
 509 1271 l 5
EndSplineSet
Refer: 372 104 N 1 0 0 1 0 0 2
Refer: 372 104 N 1 0 0 1 0 0 2
Refer: 372 104 N 1 0 0 1 0 0 2
Refer: 372 104 N 1 0 0 1 0 0 2
Refer: 372 104 N 1 0 0 1 0 0 2
Refer: 372 104 N 1 0 0 1 0 0 2
Refer: 372 104 N 1 0 0 1 0 0 2
Refer: 372 104 N 1 0 0 1 0 0 2
Refer: 372 104 N 1 0 0 1 0 0 2
Refer: 372 104 N 1 0 0 1 0 0 2
Refer: 372 104 N 1 0 0 1 0 0 2
Refer: 372 104 N 1 0 0 1 0 0 2
Refer: 372 104 N 1 0 0 1 0 0 2
Validated: 5
EndChar

StartChar: hungarumlaut
Encoding: 360 733 375
Width: 743
VWidth: 0
Flags: W
HStem: 1146 305
VStem: 116 533
LayerCount: 2
UndoRedoHistory
Layer: 1
Undoes
UndoOperation
Index: 0
Type: 12
WasModified: 0
WasOrder2: 0
EndUndoOperation
EndUndoes
Redoes
EndRedoes
EndUndoRedoHistory
Fore
SplineSet
329 1146 m 1
 512 1451 l 1
 649 1451 l 1
 421 1146 l 1
 329 1146 l 1
116 1146 m 1
 297 1451 l 1
 436 1451 l 1
 207 1146 l 1
 116 1146 l 1
EndSplineSet
Validated: 1
EndChar

StartChar: hyphen
Encoding: 13 45 376
Width: 812
VWidth: 0
Flags: W
HStem: 452 134<127 685>
VStem: 127 558<452 586>
LayerCount: 2
UndoRedoHistory
Layer: 1
Undoes
UndoOperation
Index: 0
Type: 12
WasModified: 0
WasOrder2: 0
EndUndoOperation
EndUndoes
Redoes
EndRedoes
EndUndoRedoHistory
Fore
SplineSet
127 452 m 5
 127 586 l 5
 685 586 l 1
 685 452 l 1
 127 452 l 5
EndSplineSet
Validated: 1
EndChar

StartChar: i
Encoding: 73 105 377
Width: 522
VWidth: 0
Flags: W
HStem: 0 21G<178 352> 978 20G<178 352> 1181 180<178 352>
VStem: 178 174<0 998 1181 1361>
LayerCount: 2
UndoRedoHistory
Layer: 1
Undoes
UndoOperation
Index: 0
Type: 12
WasModified: 0
WasOrder2: 0
HStem: 0 21G<178 352> 978 20G<178 352> 1181 180<178 352>
VStem: 178 174<0 998 1181 1361>
EndUndoOperation
UndoOperation
Index: 1
Type: 7
WasModified: 1
WasOrder2: 0
Width: 521
EndUndoOperation
UndoOperation
Index: 2
Type: 7
WasModified: 1
WasOrder2: 0
Width: 520
EndUndoOperation
UndoOperation
Index: 3
Type: 7
WasModified: 1
WasOrder2: 0
Width: 519
EndUndoOperation
UndoOperation
Index: 4
Type: 7
WasModified: 1
WasOrder2: 0
Width: 518
EndUndoOperation
UndoOperation
Index: 5
Type: 3
WasModified: 1
WasOrder2: 0
EndUndoOperation
UndoOperation
Index: 6
Type: 3
WasModified: 1
WasOrder2: 0
EndUndoOperation
UndoOperation
Index: 7
Type: 3
WasModified: 1
WasOrder2: 0
EndUndoOperation
UndoOperation
Index: 8
Type: 3
WasModified: 1
WasOrder2: 0
EndUndoOperation
UndoOperation
Index: 9
Type: 3
WasModified: 1
WasOrder2: 0
EndUndoOperation
UndoOperation
Index: 10
Type: 3
WasModified: 1
WasOrder2: 0
EndUndoOperation
UndoOperation
Index: 11
Type: 3
WasModified: 0
WasOrder2: 0
EndUndoOperation
EndUndoes
Redoes
EndRedoes
EndUndoRedoHistory
Fore
SplineSet
178 1181 m 1
 178 1361 l 1
 352 1361 l 1
 352 1181 l 1
 178 1181 l 1
178 0 m 1
 178 998 l 1
 352 998 l 1
 352 0 l 1
 178 0 l 1
EndSplineSet
EndChar

StartChar: infinity
Encoding: 407 8734 385
Width: 1622
VWidth: 0
Flags: W
HStem: 231 116<302.418 566.798 1053.96 1316.68> 813 112<294.717 568.978 1053.5 1320.07>
VStem: 106 103<441.698 725.025> 1399 112<432.025 730.557>
LayerCount: 2
UndoRedoHistory
Layer: 1
Undoes
UndoOperation
Index: 0
Type: 12
WasModified: 0
WasOrder2: 0
EndUndoOperation
EndUndoes
Redoes
EndRedoes
EndUndoRedoHistory
Fore
SplineSet
1190 347 m 0
 1332 347 1399 461 1399 605 c 0
 1399 718 1310 813 1186 813 c 0
 1060 813 958 701 877 581 c 1
 989 428 1074 347 1190 347 c 0
434 347 m 0
 555 347 660 453 746 579 c 1
 661 713 558 813 427 813 c 0
 292 813 209 706 209 581 c 0
 209 463 299 347 434 347 c 0
432 231 m 0
 225 231 106 401 106 600 c 0
 106 781 249 925 428 925 c 0
 584 925 699 827 811 678 c 1
 916 822 1031 925 1190 925 c 0
 1397 925 1511 782 1511 584 c 0
 1511 376 1369 231 1188 231 c 0
 1050 231 935 313 811 478 c 1
 702 334 584 231 432 231 c 0
EndSplineSet
Validated: 1
EndChar

StartChar: integral
Encoding: 408 8747 386
Width: 672
VWidth: 0
Flags: W
HStem: -390 132<38.8598 219.856> 1465 133<415.429 601.139>
VStem: 253 131<-224.487 1431.08>
LayerCount: 2
UndoRedoHistory
Layer: 1
Undoes
UndoOperation
Index: 0
Type: 12
WasModified: 0
WasOrder2: 0
EndUndoOperation
EndUndoes
Redoes
EndRedoes
EndUndoRedoHistory
Fore
SplineSet
148 -390 m 0
 102 -390 75 -383 38 -372 c 1
 37 -246 l 1
 58 -256 90 -258 122 -258 c 0
 231 -258 253 -184 253 -46 c 2
 253 1229 l 2
 253 1440 311 1598 492 1598 c 0
 538 1598 565 1588 602 1577 c 1
 603 1451 l 1
 582 1461 548 1465 516 1465 c 0
 407 1465 384 1393 384 1255 c 2
 384 -23 l 2
 384 -234 329 -390 148 -390 c 0
EndSplineSet
Validated: 1
EndChar

StartChar: iota
Encoding: 65694 953 388
Width: 451
VWidth: 0
Flags: W
HStem: 484 240<127.069 319.268>
VStem: 102 242<509.684 698.316>
LayerCount: 2
UndoRedoHistory
Layer: 1
Undoes
UndoOperation
Index: 0
Type: 12
WasModified: 0
WasOrder2: 0
EndUndoOperation
EndUndoes
Redoes
EndRedoes
EndUndoRedoHistory
Fore
SplineSet
223 484 m 0
 143 484 102 544 102 604 c 0
 102 664 143 724 223 724 c 0
 304 724 344 664 344 604 c 0
 344 544 304 484 223 484 c 0
EndSplineSet
Validated: 1
EndChar

StartChar: iotadieresis
Encoding: 65695 970 389
Width: 697
VWidth: 0
Flags: W
HStem: 484 240<298.069 490.268> 1141 193<95 235 450 590>
VStem: 95 140<1141 1334> 273 242<509.684 698.316> 450 140<1141 1334>
LayerCount: 2
UndoRedoHistory
Layer: 1
Undoes
UndoOperation
Index: 0
Type: 12
WasModified: 0
WasOrder2: 0
EndUndoOperation
EndUndoes
Redoes
EndRedoes
EndUndoRedoHistory
Fore
SplineSet
590 1334 m 1xe8
 590 1141 l 1
 450 1141 l 1
 450 1334 l 1
 590 1334 l 1xe8
235 1334 m 1
 235 1141 l 1
 95 1141 l 1
 95 1334 l 1
 235 1334 l 1
394 484 m 0
 314 484 273 544 273 604 c 0
 273 664 314 724 394 724 c 0
 475 724 515 664 515 604 c 0xf0
 515 544 475 484 394 484 c 0
EndSplineSet
Validated: 1
EndChar

StartChar: iotadieresistonos
Encoding: 65696 912 390
Width: 517
VWidth: 0
Flags: W
HStem: 484 240<183.069 375.268> 1134 240<134.069 326.268>
VStem: 109 242<1159.68 1348.32> 158 242<509.684 698.316>
LayerCount: 2
UndoRedoHistory
Layer: 1
Undoes
UndoOperation
Index: 0
Type: 12
WasModified: 0
WasOrder2: 0
EndUndoOperation
EndUndoes
Redoes
EndRedoes
EndUndoRedoHistory
Fore
SplineSet
279 484 m 0xd0
 199 484 158 544 158 604 c 0
 158 664 199 724 279 724 c 0
 360 724 400 664 400 604 c 0
 400 544 360 484 279 484 c 0xd0
230 1134 m 0
 150 1134 109 1194 109 1254 c 0
 109 1314 150 1374 230 1374 c 0
 311 1374 351 1314 351 1254 c 0xe0
 351 1194 311 1134 230 1134 c 0
EndSplineSet
Validated: 1
EndChar

StartChar: iotatonos
Encoding: 65697 943 391
Width: 451
VWidth: 0
Flags: W
HStem: 484 240<127.069 319.268>
VStem: 102 242<509.684 698.316>
LayerCount: 2
UndoRedoHistory
Layer: 1
Undoes
UndoOperation
Index: 0
Type: 12
WasModified: 0
WasOrder2: 0
EndUndoOperation
EndUndoes
Redoes
EndRedoes
EndUndoRedoHistory
Fore
SplineSet
223 484 m 0
 143 484 102 544 102 604 c 0
 102 664 143 724 223 724 c 0
 304 724 344 664 344 604 c 0
 344 544 304 484 223 484 c 0
EndSplineSet
Validated: 1
EndChar

StartChar: j
Encoding: 74 106 393
Width: 545
VWidth: 0
Flags: W
HStem: -398 141<48 207.471> 978 20G<224 399> 1181 180<224 399>
VStem: 224 175<-237.983 998 1181 1361>
LayerCount: 2
UndoRedoHistory
Layer: 1
Undoes
UndoOperation
Index: 0
Type: 12
WasModified: 0
WasOrder2: 0
HStem: -398 141<48 207.471> 978 20G<224 399> 1181 180<224 399>
VStem: 224 175<-237.983 998 1181 1361>
EndUndoOperation
EndUndoes
Redoes
EndRedoes
EndUndoRedoHistory
Fore
SplineSet
48 -398 m 1
 28 -257 l 1
 76 -257 l 2
 211 -257 225 -215 225 -127 c 2
 224 998 l 1
 399 998 l 1
 399 -68 l 2
 399 -312 344 -398 96 -398 c 2
 48 -398 l 1
224 1181 m 1
 224 1361 l 1
 399 1361 l 1
 399 1181 l 1
 224 1181 l 1
EndSplineSet
EndChar

StartChar: k
Encoding: 75 107 395
Width: 1046
VWidth: 0
Flags: W
HStem: 0 21G<154 329 804.87 1018> 978 20G<776.782 1011> 1389 20G<154 329>
VStem: 154 175<0 350 512 1395> 796 215<783 998> 822 196<0 196>
DStem2: 329 512 565 532 0.692871 0.721061<177.939 674.007> 565 532 440 446 0.648313 -0.761374<0 571.667>
LayerCount: 2
UndoRedoHistory
Layer: 1
Undoes
UndoOperation
Index: 0
Type: 12
WasModified: 0
WasOrder2: 0
HStem: 0 21G<154 329 804.87 1018> 978 20G<776.782 1011> 1389 20G<154 329>
VStem: 154 175<0 350 512 1395>
EndUndoOperation
EndUndoes
Redoes
EndRedoes
EndUndoRedoHistory
Fore
SplineSet
154 1395 m 1xf4
 329 1409 l 1
 329 512 l 1
 796 998 l 1
 1011 998 l 1xf8
 565 532 l 1
 1018 0 l 1
 822 0 l 1
 440 446 l 1
 329 350 l 1
 329 0 l 1
 154 0 l 1
 154 1395 l 1xf4
EndSplineSet
Validated: 1
EndChar

StartChar: kappa
Encoding: 65698 954 396
Width: 1047
VWidth: 0
Flags: W
HStem: 0 21G<130 281 741.435 946> 979 19G<130 281 656.5 917>
VStem: 130 151<0 373 520 999> 724 193<805 998> 757 189<0 189>
DStem2: 315 557 502 555 0.679745 0.733449<125.645 601.467> 502 555 392 469 0.624695 -0.780869<0 592.679>
LayerCount: 2
UndoRedoHistory
Layer: 1
Undoes
UndoOperation
Index: 0
Type: 12
WasModified: 0
WasOrder2: 0
EndUndoOperation
EndUndoes
Redoes
EndRedoes
EndUndoRedoHistory
Fore
SplineSet
130 0 m 1xe8
 130 999 l 1
 281 999 l 1
 281 520 l 1
 292 532 303 544 315 557 c 0
 431 690 589 855 724 998 c 1
 917 998 l 1xf0
 502 555 l 1
 946 0 l 1
 757 0 l 1
 392 469 l 1
 281 373 l 1
 281 0 l 1
 130 0 l 1xe8
EndSplineSet
Validated: 1
EndChar

StartChar: kgreenlandic
Encoding: 245 312 398
Width: 1047
VWidth: 0
Flags: W
HStem: 0 21G<130 281 741.435 946> 979 19G<130 281 656.5 917>
VStem: 130 151<0 373 520 999> 724 193<805 998> 757 189<0 189>
DStem2: 315 557 502 555 0.679745 0.733449<125.645 601.467> 502 555 392 469 0.624695 -0.780869<0 592.679>
LayerCount: 2
UndoRedoHistory
Layer: 1
Undoes
UndoOperation
Index: 0
Type: 12
WasModified: 0
WasOrder2: 0
EndUndoOperation
EndUndoes
Redoes
EndRedoes
EndUndoRedoHistory
Fore
SplineSet
130 0 m 1xe8
 130 999 l 1
 281 999 l 1
 281 520 l 1
 292 532 303 544 315 557 c 0
 431 690 589 855 724 998 c 1
 917 998 l 1xf0
 502 555 l 1
 946 0 l 1
 757 0 l 1
 392 469 l 1
 281 373 l 1
 281 0 l 1
 130 0 l 1xe8
EndSplineSet
Validated: 1
EndChar

StartChar: l
Encoding: 76 108 399
Width: 633
VWidth: 0
Flags: W
HStem: -18 134<368.736 503> 1389 20G<174 349>
VStem: 174 175<129.393 1395>
LayerCount: 2
UndoRedoHistory
Layer: 1
Undoes
UndoOperation
Index: 0
Type: 12
WasModified: 0
WasOrder2: 0
HStem: -18 134<368.736 503> 1389 20G<174 349>
VStem: 174 175<129.393 1395>
EndUndoOperation
UndoOperation
Index: 1
Type: 7
WasModified: 1
WasOrder2: 0
Width: 634
EndUndoOperation
UndoOperation
Index: 2
Type: 7
WasModified: 1
WasOrder2: 0
Width: 635
EndUndoOperation
UndoOperation
Index: 3
Type: 7
WasModified: 1
WasOrder2: 0
Width: 636
EndUndoOperation
UndoOperation
Index: 4
Type: 7
WasModified: 1
WasOrder2: 0
Width: 637
EndUndoOperation
UndoOperation
Index: 5
Type: 7
WasModified: 1
WasOrder2: 0
Width: 638
EndUndoOperation
UndoOperation
Index: 6
Type: 7
WasModified: 1
WasOrder2: 0
Width: 639
EndUndoOperation
UndoOperation
Index: 7
Type: 7
WasModified: 1
WasOrder2: 0
Width: 638
EndUndoOperation
UndoOperation
Index: 8
Type: 3
WasModified: 1
WasOrder2: 0
EndUndoOperation
UndoOperation
Index: 9
Type: 3
WasModified: 1
WasOrder2: 0
EndUndoOperation
UndoOperation
Index: 10
Type: 3
WasModified: 1
WasOrder2: 0
EndUndoOperation
UndoOperation
Index: 11
Type: 3
WasModified: 1
WasOrder2: 0
EndUndoOperation
EndUndoes
Redoes
EndRedoes
EndUndoRedoHistory
Fore
SplineSet
404 -18 m 0
 247 -18 174 45 174 305 c 2
 174 1395 l 1
 349 1409 l 1
 349 345 l 2
 349 153 364 116 439 116 c 2
 503 116 l 1
 514 -9 l 1
 466 -16 430 -18 404 -18 c 0
EndSplineSet
EndChar

StartChar: lambda
Encoding: 65699 955 401
Width: 451
VWidth: 0
Flags: W
HStem: 484 240<127.069 319.268>
VStem: 102 242<509.684 698.316>
LayerCount: 2
UndoRedoHistory
Layer: 1
Undoes
UndoOperation
Index: 0
Type: 12
WasModified: 0
WasOrder2: 0
EndUndoOperation
EndUndoes
Redoes
EndRedoes
EndUndoRedoHistory
Fore
SplineSet
223 484 m 0
 143 484 102 544 102 604 c 0
 102 664 143 724 223 724 c 0
 304 724 344 664 344 604 c 0
 344 544 304 484 223 484 c 0
EndSplineSet
Validated: 1
EndChar

StartChar: less
Encoding: 28 60 405
Width: 1094
VWidth: 0
Flags: W
DStem2: 270 599 102 551 0.901749 -0.43226<0 774.019>
LayerCount: 2
UndoRedoHistory
Layer: 1
Undoes
UndoOperation
Index: 0
Type: 12
WasModified: 0
WasOrder2: 0
EndUndoOperation
EndUndoes
Redoes
EndRedoes
EndUndoRedoHistory
Fore
SplineSet
976 944 m 1
 270 599 l 1
 974 277 l 1
 974 133 l 1
 102 551 l 1
 102 639 l 1
 976 1087 l 1
 976 944 l 1
EndSplineSet
Validated: 1
EndChar

StartChar: lessequal
Encoding: 411 8804 406
Width: 1114
VWidth: 0
Flags: W
HStem: 7 121<116 995>
DStem2: 284 697 144 652 0.882618 -0.47009<0 770.833>
LayerCount: 2
UndoRedoHistory
Layer: 1
Undoes
UndoOperation
Index: 0
Type: 12
WasModified: 0
WasOrder2: 0
EndUndoOperation
EndUndoes
Redoes
EndRedoes
EndUndoRedoHistory
Fore
SplineSet
116 7 m 1
 116 128 l 1
 995 128 l 1
 995 7 l 1
 116 7 l 1
972 1057 m 1
 284 697 l 1
 972 349 l 1
 972 211 l 1
 144 652 l 1
 144 733 l 1
 972 1194 l 1
 972 1057 l 1
EndSplineSet
Validated: 1
EndChar

StartChar: logicalnot
Encoding: 107 172 407
Width: 1128
VWidth: 0
Flags: W
HStem: 620 131<106 885>
VStem: 885 123<237 620>
LayerCount: 2
UndoRedoHistory
Layer: 1
Undoes
UndoOperation
Index: 0
Type: 12
WasModified: 0
WasOrder2: 0
EndUndoOperation
EndUndoes
Redoes
EndRedoes
EndUndoRedoHistory
Fore
SplineSet
1008 751 m 1
 1008 237 l 1
 885 237 l 1
 885 620 l 1
 106 620 l 1
 106 751 l 1
 1008 751 l 1
EndSplineSet
Validated: 1
EndChar

StartChar: lozenge
Encoding: 413 9674 408
Width: 1088
VWidth: 0
Flags: W
DStem2: 101 697 221 699 0.467068 0.884221<27.8416 737.961> 221 699 101 697 0.462934 -0.886393<-29.6306 680.319> 536 96 587 -44 0.469416 0.882977<0 713.314> 595 1441 547 1296 0.462443 -0.886649<106.367 812.994>
LayerCount: 2
UndoRedoHistory
Layer: 1
Undoes
UndoOperation
Index: 0
Type: 12
WasModified: 0
WasOrder2: 0
EndUndoOperation
EndUndoes
Redoes
EndRedoes
EndUndoRedoHistory
Fore
SplineSet
536 96 m 1
 644 296 754 497 862 697 c 1
 757 896 650 1095 547 1296 c 1
 438 1098 329 898 221 699 c 1
 327 499 428 293 536 96 c 1
982 699 m 1
 587 -44 l 1
 488 -44 l 1
 101 697 l 1
 494 1441 l 1
 595 1441 l 1
 982 699 l 1
EndSplineSet
Validated: 1
EndChar

StartChar: lslash
Encoding: 255 322 409
Width: 740
VWidth: 0
Flags: W
HStem: -19 126<397.428 628.655> 763 133<396 529> 1354 20G<216 369>
VStem: 216 153<132.175 521 772 1356>
DStem2: 114 574 216 521 0.790069 0.613018<0 48.0971 322.845 443.739>
LayerCount: 2
UndoRedoHistory
Layer: 1
Undoes
UndoOperation
Index: 0
Type: 12
WasModified: 0
WasOrder2: 0
EndUndoOperation
EndUndoes
Redoes
EndRedoes
EndUndoRedoHistory
Fore
SplineSet
480 -19 m 0
 237 -19 216 97 216 426 c 2
 216 521 l 1
 114 442 l 1
 114 574 l 1
 216 653 l 1
 216 1356 l 1
 369 1374 l 1
 369 772 l 1
 529 896 l 1
 529 763 l 1
 369 640 l 1
 369 392 l 2
 369 175 372 107 502 107 c 0
 527 107 583 112 628 116 c 1
 642 -7 l 1
 596 -12 497 -19 480 -19 c 0
EndSplineSet
Validated: 1
EndChar

StartChar: m
Encoding: 77 109 410
Width: 1675
VWidth: 0
Flags: W
HStem: 0 21G<148.96 318 765 934 1377 1546> 889 130<433.817 698.975 1042.08 1308.27> 978 20G<147 294.517>
VStem: 147 145<884.108 998> 149 169<0 768.077> 765 169<0 764.586> 1377 169<0 812.53>
LayerCount: 2
UndoRedoHistory
Layer: 1
Undoes
UndoOperation
Index: 0
Type: 12
WasModified: 0
WasOrder2: 0
HStem: 0 21G<148.96 318 765 934 1377 1546> 889 130<433.817 698.975 1042.08 1308.27> 978 20G<147 294.517>
VStem: 147 145<884.108 998> 149 169<0 768.077> 765 169<0 764.586> 1377 169<0 812.53>
EndUndoOperation
EndUndoes
Redoes
EndRedoes
EndUndoRedoHistory
Fore
SplineSet
318 525 m 2xce
 318 0 l 1
 149 0 l 1xce
 149 0 147 936 147 998 c 1
 292 998 l 1xb6
 310 855 l 1
 362 939 462 1019 605 1019 c 0
 788 1019 868 918 895 840 c 5
 964 960 1081 1019 1216 1019 c 0
 1428 1019 1546 886 1546 642 c 2
 1546 0 l 1
 1377 0 l 1
 1377 520 l 2
 1377 734 1358 889 1191 889 c 0
 1004 889 934 751 934 535 c 2
 934 0 l 1
 765 0 l 1
 765 563 l 2
 765 787 720 889 582 889 c 0
 375 889 318 738 318 525 c 2xce
EndSplineSet
Validated: 1
EndChar

StartChar: macron
Encoding: 110 175 411
Width: 966
VWidth: 0
Flags: W
HStem: 1352 127<181 789>
VStem: 181 608<1352 1479>
LayerCount: 2
UndoRedoHistory
Layer: 1
Undoes
UndoOperation
Index: 0
Type: 12
WasModified: 0
WasOrder2: 0
EndUndoOperation
EndUndoes
Redoes
EndRedoes
EndUndoRedoHistory
Fore
SplineSet
181 1352 m 1
 181 1479 l 1
 789 1479 l 5
 789 1352 l 5
 181 1352 l 1
EndSplineSet
Validated: 1
EndChar

StartChar: middot
Encoding: 65700 -1 412
Width: 372
VWidth: 0
Flags: W
HStem: 511 180<107 260>
VStem: 107 153<511 691>
LayerCount: 2
UndoRedoHistory
Layer: 1
Undoes
UndoOperation
Index: 0
Type: 12
WasModified: 0
WasOrder2: 0
EndUndoOperation
EndUndoes
Redoes
EndRedoes
EndUndoRedoHistory
Fore
SplineSet
107 511 m 1
 107 691 l 1
 260 691 l 1
 260 511 l 1
 107 511 l 1
EndSplineSet
Validated: 1
EndChar

StartChar: minus
Encoding: 405 8722 413
Width: 1124
VWidth: 0
Flags: W
HStem: 486 135<104 1015>
LayerCount: 2
UndoRedoHistory
Layer: 1
Undoes
UndoOperation
Index: 0
Type: 12
WasModified: 0
WasOrder2: 0
EndUndoOperation
EndUndoes
Redoes
EndRedoes
EndUndoRedoHistory
Fore
SplineSet
104 486 m 1
 104 621 l 1
 1015 621 l 1
 1015 486 l 1
 104 486 l 1
EndSplineSet
Validated: 1
EndChar

StartChar: mu
Encoding: 65701 956 414
Width: 451
VWidth: 0
Flags: W
HStem: 484 240<127.069 319.268>
VStem: 102 242<509.684 698.316>
LayerCount: 2
UndoRedoHistory
Layer: 1
Undoes
UndoOperation
Index: 0
Type: 12
WasModified: 0
WasOrder2: 0
EndUndoOperation
EndUndoes
Redoes
EndRedoes
EndUndoRedoHistory
Fore
SplineSet
223 484 m 0
 143 484 102 544 102 604 c 0
 102 664 143 724 223 724 c 0
 304 724 344 664 344 604 c 0
 344 544 304 484 223 484 c 0
EndSplineSet
Validated: 1
EndChar

StartChar: multiply
Encoding: 148 215 415
Width: 920
VWidth: 0
Flags: W
DStem2: 210 935 114 848 0.657409 -0.753534<2.44622 379.863 529.816 905.069> 114 253 212 165 0.657409 0.753534<0 375.91 525.863 902.622>
LayerCount: 2
UndoRedoHistory
Layer: 1
Undoes
UndoOperation
Index: 0
Type: 12
WasModified: 0
WasOrder2: 0
EndUndoOperation
EndUndoes
Redoes
EndRedoes
EndUndoRedoHistory
Fore
SplineSet
373 550 m 1
 114 848 l 1
 210 935 l 1
 460 649 l 1
 709 935 l 1
 805 848 l 1
 546 550 l 1
 805 253 l 1
 707 165 l 1
 460 450 l 1
 212 165 l 1
 114 253 l 1
 373 550 l 1
EndSplineSet
Validated: 1
EndChar

StartChar: n
Encoding: 78 110 416
Width: 1115
VWidth: 0
Flags: W
HStem: 0 21G<147 322 811 986> 889 130<445.733 741.517> 978 20G<147 298.657>
VStem: 147 175<0 764.771> 147 149<890.103 998> 811 175<0 816.318>
LayerCount: 2
UndoRedoHistory
Layer: 1
Undoes
UndoOperation
Index: 0
Type: 12
WasModified: 0
WasOrder2: 0
HStem: 0 21G<147 322 811 986> 889 130<445.733 741.517> 978 20G<147 298.657>
VStem: 147 175<0 764.771> 147 149<890.103 998> 811 175<0 816.318>
EndUndoOperation
EndUndoes
Redoes
EndRedoes
EndUndoRedoHistory
Fore
SplineSet
147 0 m 1xd4
 147 998 l 1
 296 998 l 1xac
 315 855 l 1
 387 963 498 1019 641 1019 c 0
 871 1019 986 880 986 612 c 2
 986 0 l 1
 811 0 l 1
 811 623 l 2
 811 788 760 889 607 889 c 0
 391 889 322 752 322 546 c 2
 322 0 l 1
 147 0 l 1xd4
EndSplineSet
Validated: 1
EndChar

StartChar: nine
Encoding: 25 57 420
Width: 1156
VWidth: 0
Flags: W
HStem: 0 21G<276 487.85> 537 135<414.936 728.271> 1229 138<424.383 748.35>
VStem: 131 168<786.968 1102.83> 276 196<0 196> 856 168<780.437 1116.01>
DStem2: 276 0 472 0 0.624856 0.78074<122.472 752.725>
LayerCount: 2
UndoRedoHistory
Layer: 1
Undoes
UndoOperation
Index: 0
Type: 12
WasModified: 0
WasOrder2: 0
EndUndoOperation
EndUndoes
Redoes
EndRedoes
EndUndoRedoHistory
Fore
SplineSet
581 672 m 0xf4
 779 672 856 798 856 952 c 0
 856 1107 770 1229 587 1229 c 0
 404 1229 299 1102 299 947 c 0
 299 783 401 672 581 672 c 0xf4
472 0 m 1xec
 276 0 l 1xec
 749 591 l 1
 693 561 620 537 549 537 c 0
 324 537 131 698 131 944 c 0xf4
 131 1183 309 1367 581 1367 c 0
 866 1367 1024 1176 1024 934 c 0
 1024 757 968 639 831 453 c 1
 744 338 472 0 472 0 c 1xec
EndSplineSet
Validated: 1
EndChar

StartChar: notequal
Encoding: 410 8800 421
Width: 1116
VWidth: 0
Flags: W
HStem: 320 116<123 360 541 992> 713 120<123 557 737 990>
DStem2: 611 833 737 833 0.435205 0.900331<54.8359 294.294>
LayerCount: 2
UndoRedoHistory
Layer: 1
Undoes
UndoOperation
Index: 0
Type: 12
WasModified: 0
WasOrder2: 0
EndUndoOperation
EndUndoes
Redoes
EndRedoes
EndUndoRedoHistory
Fore
SplineSet
116 436 m 1
 419 436 l 1
 557 713 l 1
 123 713 l 1
 115 833 l 1
 611 833 l 1
 739 1098 l 1
 844 1084 l 1
 737 833 l 1
 990 833 l 1
 998 713 l 1
 683 713 l 1
 541 436 l 1
 992 436 l 1
 998 320 l 1
 487 320 l 1
 355 44 l 1
 252 62 l 1
 360 320 l 1
 123 320 l 1
 116 436 l 1
EndSplineSet
Validated: 1
EndChar

StartChar: nu
Encoding: 65702 957 423
Width: 451
VWidth: 0
Flags: W
HStem: 484 240<127.069 319.268>
VStem: 102 242<509.684 698.316>
LayerCount: 2
UndoRedoHistory
Layer: 1
Undoes
UndoOperation
Index: 0
Type: 12
WasModified: 0
WasOrder2: 0
EndUndoOperation
EndUndoes
Redoes
EndRedoes
EndUndoRedoHistory
Fore
SplineSet
223 484 m 0
 143 484 102 544 102 604 c 0
 102 664 143 724 223 724 c 0
 304 724 344 664 344 604 c 0
 344 544 304 484 223 484 c 0
EndSplineSet
Validated: 1
EndChar

StartChar: numbersign
Encoding: 3 35 424
Width: 1079
VWidth: 0
Flags: W
HStem: 373 115<119 266 411 603 759 884> 847 113<188 341 507 698 841 954>
VStem: 199 118<-21 97> 440 139<1191 1330> 527 137<-21 116> 784 117<1213 1330>
DStem2: 199 -21 317 -21 0.190383 0.98171<22.4652 399.549 540.052 540.052 1021.7 1206.63> 527 -21 664 -21 0.186878 0.982383<25.6023 401.262 543.389 884.665 1022.4 1022.4>
LayerCount: 2
UndoRedoHistory
Layer: 1
Undoes
UndoOperation
Index: 0
Type: 12
WasModified: 0
WasOrder2: 0
EndUndoOperation
EndUndoes
Redoes
EndRedoes
EndUndoRedoHistory
Fore
SplineSet
411 488 m 1xe4
 626 488 l 1
 698 847 l 1
 484 847 l 1
 411 488 l 1xe4
286 488 m 1
 341 846 l 1
 180 846 l 1
 188 960 l 1
 364 960 l 1
 440 1330 l 1
 579 1330 l 1xf4
 507 960 l 1
 720 960 l 1
 784 1330 l 1
 901 1330 l 1
 841 960 l 1
 966 960 l 1
 954 847 l 1
 820 847 l 1
 759 488 l 1
 893 488 l 1
 884 373 l 1
 743 373 l 1
 664 -21 l 1
 527 -21 l 1xec
 603 373 l 1
 389 373 l 1
 317 -21 l 1
 199 -21 l 1
 266 373 l 1
 110 373 l 1
 119 488 l 1
 286 488 l 1
EndSplineSet
Validated: 1
EndChar

StartChar: o
Encoding: 79 111 425
Width: 1138
VWidth: 0
Flags: W
HStem: -21 133<418.047 719.847> 886 133<416.41 721.484>
VStem: 103 174<266.375 732.514> 860 175<266.375 732.514>
LayerCount: 2
UndoRedoHistory
Layer: 1
Undoes
UndoOperation
Index: 0
Type: 12
WasModified: 0
WasOrder2: 0
HStem: -21 133<418.047 719.847> 886 133<416.41 721.484>
VStem: 103 174<266.375 732.514> 860 175<266.375 732.514>
EndUndoOperation
EndUndoes
Redoes
EndRedoes
EndUndoRedoHistory
Fore
SplineSet
569 112 m 0
 776 112 860 279 860 497 c 0
 860 719 775 886 569 886 c 0
 363 886 277 719 277 497 c 0
 277 279 362 112 569 112 c 0
569 -21 m 0
 284 -21 103 200 103 499 c 0
 103 804 274 1019 569 1019 c 0
 864 1019 1035 804 1035 499 c 0
 1035 200 854 -21 569 -21 c 0
EndSplineSet
Validated: 1
EndChar

StartChar: oe
Encoding: 269 339 430
Width: 1821
VWidth: 0
Flags: W
HStem: -23 126<415.884 725.035 1186.07 1533.79> 472 105<1035 1556> 897 126<416.638 725.675 1167.43 1450.37>
VStem: 109 158<273.633 721.88> 873 156<275.498 472 577 732.029> 1556 148<577 783.16>
LayerCount: 2
UndoRedoHistory
Layer: 1
Undoes
UndoOperation
Index: 0
Type: 12
WasModified: 0
WasOrder2: 0
EndUndoOperation
EndUndoes
Redoes
EndRedoes
EndUndoRedoHistory
Fore
SplineSet
1035 577 m 1
 1556 577 l 1
 1556 589 l 1
 1552 794 1458 899 1312 899 c 0
 1161 899 1052 774 1035 577 c 1
571 103 m 0
 787 103 873 294 873 498 c 0
 873 710 794 897 569 897 c 0
 354 897 267 699 267 495 c 0
 267 294 353 103 571 103 c 0
569 -23 m 0
 267 -23 109 211 109 498 c 0
 109 784 269 1023 571 1023 c 0
 754 1023 879 938 949 809 c 1
 1024 938 1164 1018 1321 1023 c 1
 1569 1023 1704 836 1704 541 c 0
 1704 526 1702 489 1702 472 c 1
 1029 472 l 1
 1029 247 1160 108 1336 108 c 0
 1478 108 1571 160 1642 208 c 1
 1689 97 l 1
 1607 27 1491 -23 1331 -23 c 0
 1154 -23 1021 56 945 192 c 1
 872 64 746 -23 569 -23 c 0
EndSplineSet
Validated: 1
EndChar

StartChar: ogonek
Encoding: 358 731 431
Width: 536
VWidth: 0
Flags: W
HStem: -381 105<230.24 424.099> -352 106<320 426>
VStem: 107 114<-266.543 -104.353>
LayerCount: 2
UndoRedoHistory
Layer: 1
Undoes
UndoOperation
Index: 0
Type: 12
WasModified: 0
WasOrder2: 0
EndUndoOperation
EndUndoes
Redoes
EndRedoes
EndUndoRedoHistory
Fore
SplineSet
283 -381 m 0xa0
 185 -381 107 -325 107 -221 c 0
 107 -122 194 -46 281 5 c 1
 385 5 l 1
 290 -65 221 -133 221 -195 c 0
 221 -243 264 -276 301 -276 c 0xa0
 350 -276 380 -265 426 -246 c 1
 426 -352 l 1x60
 391 -367 332 -381 283 -381 c 0xa0
EndSplineSet
Validated: 1
EndChar

StartChar: omega
Encoding: 65704 969 436
Width: 451
VWidth: 0
Flags: W
HStem: 484 240<127.069 319.268>
VStem: 102 242<509.684 698.316>
LayerCount: 2
UndoRedoHistory
Layer: 1
Undoes
UndoOperation
Index: 0
Type: 12
WasModified: 0
WasOrder2: 0
EndUndoOperation
EndUndoes
Redoes
EndRedoes
EndUndoRedoHistory
Fore
SplineSet
223 484 m 0
 143 484 102 544 102 604 c 0
 102 664 143 724 223 724 c 0
 304 724 344 664 344 604 c 0
 344 544 304 484 223 484 c 0
EndSplineSet
Validated: 1
EndChar

StartChar: omegatonos
Encoding: 65705 974 437
Width: 451
VWidth: 0
Flags: W
HStem: 484 240<127.069 319.268>
VStem: 102 242<509.684 698.316>
LayerCount: 2
UndoRedoHistory
Layer: 1
Undoes
UndoOperation
Index: 0
Type: 12
WasModified: 0
WasOrder2: 0
EndUndoOperation
EndUndoes
Redoes
EndRedoes
EndUndoRedoHistory
Fore
SplineSet
223 484 m 0
 143 484 102 544 102 604 c 0
 102 664 143 724 223 724 c 0
 304 724 344 664 344 604 c 0
 344 544 304 484 223 484 c 0
EndSplineSet
Validated: 1
EndChar

StartChar: omicron
Encoding: 65706 959 438
Width: 1152
VWidth: 0
Flags: W
HStem: -21 133<424.153 725.847> 886 133<422.516 727.484>
VStem: 109 175<266.375 732.514> 866 175<266.375 732.514>
LayerCount: 2
UndoRedoHistory
Layer: 1
Undoes
UndoOperation
Index: 0
Type: 12
WasModified: 0
WasOrder2: 0
EndUndoOperation
EndUndoes
Redoes
EndRedoes
EndUndoRedoHistory
Fore
SplineSet
575 886 m 0
 369 886 284 719 284 497 c 0
 284 279 368 112 575 112 c 0
 782 112 866 279 866 497 c 0
 866 719 781 886 575 886 c 0
575 -21 m 0
 290 -21 109 200 109 499 c 0
 109 804 280 1019 575 1019 c 0
 870 1019 1041 804 1041 499 c 0
 1041 200 860 -21 575 -21 c 0
EndSplineSet
Validated: 1
EndChar

StartChar: omicrontonos
Encoding: 65707 972 439
Width: 451
VWidth: 0
Flags: W
HStem: 484 240<127.069 319.268>
VStem: 102 242<509.684 698.316>
LayerCount: 2
UndoRedoHistory
Layer: 1
Undoes
UndoOperation
Index: 0
Type: 12
WasModified: 0
WasOrder2: 0
EndUndoOperation
EndUndoes
Redoes
EndRedoes
EndUndoRedoHistory
Fore
SplineSet
223 484 m 0
 143 484 102 544 102 604 c 0
 102 664 143 724 223 724 c 0
 304 724 344 664 344 604 c 0
 344 544 304 484 223 484 c 0
EndSplineSet
Validated: 1
EndChar

StartChar: one
Encoding: 17 49 440
Width: 975
VWidth: 0
Flags: W
HStem: 0 140<144 449 610 870> 1100 142<173 315> 1341 20G<429 610>
VStem: 449 161<140 1193>
LayerCount: 2
UndoRedoHistory
Layer: 1
Undoes
UndoOperation
Index: 0
Type: 12
WasModified: 0
WasOrder2: 0
EndUndoOperation
EndUndoes
Redoes
EndRedoes
EndUndoRedoHistory
Fore
SplineSet
870 0 m 1
 144 0 l 1
 144 140 l 1
 449 140 l 1
 449 1193 l 1
 377 1146 268 1106 173 1100 c 1
 173 1242 l 1
 253 1248 393 1310 465 1361 c 1
 610 1361 l 1
 610 140 l 1
 870 140 l 1
 870 0 l 1
EndSplineSet
Validated: 1
EndChar

StartChar: onehalf
Encoding: 122 189 441
Width: 1494
VWidth: 0
Flags: W
HStem: -27 90<1005 1363> 0 21G<233 366.903> 592 87<133 240 345 458> 692 98<1005.51 1226.12> 1388 20G<239 345 1058.11 1193>
VStem: 240 105<679 1282> 1070 123<1285 1408> 1257 106<444.499 660.859>
DStem2: 233 0 355 0 0.511441 0.859318<62.3958 1638>
LayerCount: 2
UndoRedoHistory
Layer: 1
Undoes
UndoOperation
Index: 0
Type: 12
WasModified: 0
WasOrder2: 0
EndUndoOperation
EndUndoes
Redoes
EndRedoes
EndUndoRedoHistory
Fore
SplineSet
233 0 m 1x7f
 1070 1408 l 1
 1193 1408 l 1
 355 0 l 1
 233 0 l 1x7f
1363 -27 m 1xbf
 860 -27 l 1
 860 57 l 1
 1084 282 1257 447 1257 561 c 0
 1257 643 1197 692 1132 692 c 0
 1067 692 992 657 938 577 c 1
 868 636 l 1
 911 735 1027 790 1136 790 c 0
 1259 790 1374 721 1374 572 c 0
 1374 395 1203 244 1005 63 c 1
 1363 63 l 1
 1363 -27 l 1xbf
133 679 m 1
 240 679 l 1
 240 1282 l 1
 205 1259 161 1235 121 1214 c 1
 121 1307 l 1
 177 1335 221 1364 257 1400 c 1
 345 1400 l 1
 345 679 l 1
 458 679 l 1
 458 592 l 1
 133 592 l 1
 133 679 l 1
EndSplineSet
Validated: 1
EndChar

StartChar: onequarter
Encoding: 121 188 442
Width: 1506
VWidth: 0
Flags: W
HStem: 0 21G<313 446.903> 218 108<1030 1254 1354 1440> 592 87<133 240 345 458> 1388 20G<239 345 1138.11 1273>
VStem: 240 105<679 1282> 313 122<0 122> 1150 123<1285 1408> 1254 100<36 218 326 652>
DStem2: 313 0 435 0 0.511441 0.859318<62.3958 1638> 900 308 1030 326 0.560309 0.828283<87.7493 483.279>
LayerCount: 2
UndoRedoHistory
Layer: 1
Undoes
UndoOperation
Index: 0
Type: 12
WasModified: 0
WasOrder2: 0
EndUndoOperation
EndUndoes
Redoes
EndRedoes
EndUndoRedoHistory
Fore
SplineSet
1254 652 m 1xf1
 1030 326 l 1
 1254 326 l 1
 1254 652 l 1xf1
313 0 m 1xf6
 1150 1408 l 1
 1273 1408 l 1
 435 0 l 1
 313 0 l 1xf6
1245 818 m 1
 1354 818 l 1
 1354 326 l 1
 1440 326 l 1
 1449 218 l 1
 1352 218 l 1
 1352 36 l 1
 1254 36 l 1
 1254 218 l 1xf1
 900 218 l 1
 900 308 l 1
 1245 818 l 1
133 679 m 1
 240 679 l 1
 240 1282 l 1
 205 1259 161 1235 121 1214 c 1
 121 1307 l 1
 177 1335 221 1364 257 1400 c 1
 345 1400 l 1
 345 679 l 1xf8
 458 679 l 1
 458 592 l 1
 133 592 l 1
 133 679 l 1
EndSplineSet
Validated: 1
EndChar

StartChar: ordfeminine
Encoding: 105 170 443
Width: 751
VWidth: 0
Flags: W
HStem: 578 96<131 627> 752 101<247.594 447.423> 1087 86<288.793 503> 1340 107<225.944 480.033>
VStem: 126 108<866.788 1040.38> 503 105<771 843 913.158 1087 1170.18 1318.75>
LayerCount: 2
UndoRedoHistory
Layer: 1
Undoes
UndoOperation
Index: 0
Type: 12
WasModified: 0
WasOrder2: 0
EndUndoOperation
EndUndoes
Redoes
EndRedoes
EndUndoRedoHistory
Fore
SplineSet
345 853 m 0
 453 853 498 953 503 1063 c 1
 503 1087 l 1
 390 1075 234 1080 234 954 c 0
 234 881 279 853 345 853 c 0
131 578 m 1
 131 674 l 1
 627 674 l 1
 627 578 l 1
 131 578 l 1
328 752 m 0
 212 752 126 831 126 956 c 0
 126 1131 287 1159 503 1173 c 1
 503 1189 l 1
 500 1295 474 1340 385 1340 c 0
 319 1340 255 1335 189 1260 c 1
 134 1331 l 1
 202 1420 289 1447 390 1447 c 0
 508 1447 610 1380 610 1210 c 1
 608 894 l 2
 608 882 608 854 613 771 c 1
 506 771 l 1
 503 843 l 1
 467 788 408 752 328 752 c 0
EndSplineSet
Validated: 1
EndChar

StartChar: ordmasculine
Encoding: 119 186 444
Width: 788
VWidth: 0
Flags: W
HStem: 752 104<283.191 499.692> 1340 107<289.34 498.258>
VStem: 103 114<929.381 1265.36> 571 112<929.702 1264.25>
LayerCount: 2
UndoRedoHistory
Layer: 1
Undoes
UndoOperation
Index: 0
Type: 12
WasModified: 0
WasOrder2: 0
EndUndoOperation
EndUndoes
Redoes
EndRedoes
EndUndoRedoHistory
Fore
SplineSet
396 752 m 0
 203 752 103 904 103 1101 c 0
 103 1294 209 1447 394 1447 c 0
 580 1447 683 1292 683 1097 c 0
 683 905 580 752 396 752 c 0
396 856 m 0
 510 856 571 967 571 1095 c 0
 571 1230 508 1340 392 1340 c 0
 280 1340 217 1229 217 1098 c 0
 217 962 277 856 396 856 c 0
EndSplineSet
Validated: 1
EndChar

StartChar: oslash
Encoding: 181 248 445
Width: 1158
VWidth: 0
Flags: W
HStem: -23 126<461.393 734.023> 897 126<426.07 695.236>
VStem: 109 158<278.761 712.102> 884 158<276.959 729.497>
DStem2: 235 -216 299 -250 0.391646 0.920116<0 274.695 414.539 1176.2 1313.12 1585.41>
LayerCount: 2
UndoRedoHistory
Layer: 1
Undoes
UndoOperation
Index: 0
Type: 12
WasModified: 0
WasOrder2: 0
EndUndoOperation
EndUndoes
Redoes
EndRedoes
EndUndoRedoHistory
Fore
SplineSet
582 103 m 0
 798 103 884 294 884 498 c 0
 884 637 849 766 762 838 c 1
 460 126 l 1
 495 111 536 103 582 103 c 0
396 166 m 1
 697 876 l 1
 663 890 625 897 580 897 c 0
 365 897 267 699 267 495 c 0
 267 365 308 239 396 166 c 1
299 -250 m 1
 235 -216 l 1
 342 37 l 1
 191 124 109 299 109 498 c 0
 109 784 280 1023 582 1023 c 0
 643 1023 699 1013 748 996 c 1
 853 1244 l 1
 923 1216 l 1
 816 965 l 1
 966 878 1042 701 1042 500 c 0
 1042 223 879 -23 580 -23 c 0
 517 -23 460 -13 409 6 c 1
 299 -250 l 1
EndSplineSet
Validated: 1
EndChar

StartChar: p
Encoding: 80 112 448
Width: 1185
VWidth: 0
Flags: W
HStem: -433 21G<150 325> -21 128<469.315 772.522> 890 129<465.982 773.775> 978 20G<150 310.086>
VStem: 150 175<-423 154 272.771 742.707> 150 158<860.543 998> 907 175<263.877 731.235>
LayerCount: 2
UndoRedoHistory
Layer: 1
Undoes
UndoOperation
Index: 0
Type: 12
WasModified: 0
WasOrder2: 0
HStem: -433 21G<150 325> -21 128<469.315 772.522> 890 129<465.982 773.775> 978 20G<150 310.086>
VStem: 150 175<-423 154 272.771 742.707> 150 158<860.543 998> 907 175<263.877 731.235>
EndUndoOperation
UndoOperation
Index: 1
Type: 3
WasModified: 1
WasOrder2: 0
EndUndoOperation
UndoOperation
Index: 2
Type: 3
WasModified: 1
WasOrder2: 0
EndUndoOperation
UndoOperation
Index: 3
Type: 3
WasModified: 0
WasOrder2: 0
EndUndoOperation
EndUndoes
Redoes
EndRedoes
EndUndoRedoHistory
Fore
SplineSet
620 107 m 0xea
 811 107 907 261 907 500 c 0
 907 734 815 890 621 890 c 0
 415 890 325 746 325 516 c 0
 325 257 433 107 620 107 c 0xea
150 998 m 1xd6
 308 998 l 1xd6
 325 835 l 1
 382 956 516 1019 653 1019 c 0
 932 1019 1082 800 1082 494 c 0
 1082 196 914 -21 644 -21 c 0
 512 -21 376 48 320 154 c 1
 324 88 325 7 325 -55 c 2
 325 -423 l 1xea
 150 -433 l 1
 150 998 l 1xd6
EndSplineSet
EndChar

StartChar: paragraph
Encoding: 116 182 449
Width: 1043
VWidth: 0
Flags: W
HStem: 1301 120<557 756 861 929>
VStem: 97 460<947.659 1260.95> 443 114<-144 771> 756 105<-144 1301>
LayerCount: 2
UndoRedoHistory
Layer: 1
Undoes
UndoOperation
Index: 0
Type: 12
WasModified: 0
WasOrder2: 0
EndUndoOperation
EndUndoes
Redoes
EndRedoes
EndUndoRedoHistory
Fore
SplineSet
557 -144 m 1xb0
 443 -144 l 1
 443 771 l 1xb0
 241 775 97 940 97 1103 c 0xd0
 97 1263 211 1421 505 1421 c 2
 929 1421 l 1
 929 1301 l 1
 861 1301 l 1
 861 -144 l 1
 756 -144 l 1
 756 1301 l 1
 557 1301 l 1
 557 -144 l 1xb0
EndSplineSet
Validated: 1
EndChar

StartChar: parenleft
Encoding: 8 40 450
Width: 595
VWidth: 0
Flags: W
HStem: 1388 20G<288.5 508>
VStem: 118 155<257.522 958.532> 367 141<1267 1408>
LayerCount: 2
UndoRedoHistory
Layer: 1
Undoes
UndoOperation
Index: 0
Type: 12
WasModified: 0
WasOrder2: 0
EndUndoOperation
EndUndoes
Redoes
EndRedoes
EndUndoRedoHistory
Fore
SplineSet
508 -191 m 5
 369 -191 l 5
 215 21 118 302 118 600 c 4
 118 906 210 1180 367 1408 c 5
 508 1408 l 5
 355 1170 273 892 273 604 c 4
 273 330 360 37 508 -191 c 5
EndSplineSet
Validated: 1
EndChar

StartChar: parenright
Encoding: 9 41 451
Width: 598
VWidth: 0
Flags: W
HStem: 1388 20G<88 307>
VStem: 89 139<-191 -52 1269 1408> 324 155<256.938 951.52>
LayerCount: 2
UndoRedoHistory
Layer: 1
Undoes
UndoOperation
Index: 0
Type: 12
WasModified: 0
WasOrder2: 0
EndUndoOperation
EndUndoes
Redoes
EndRedoes
EndUndoRedoHistory
Fore
SplineSet
228 -191 m 1
 89 -191 l 1
 236 36 324 329 324 604 c 0
 324 892 241 1170 88 1408 c 1
 229 1408 l 1
 385 1179 479 904 479 600 c 0
 479 301 381 21 228 -191 c 1
EndSplineSet
Validated: 1
EndChar

StartChar: partialdiff
Encoding: 65709 8706 452
Width: 1105
VWidth: 0
Flags: W
HStem: -25 133<348.901 613.515> 851 129<442.241 723.036> 1371 132<366.572 686.109>
VStem: 115 134<218.411 624.937> 847 138<820 1163.06>
LayerCount: 2
UndoRedoHistory
Layer: 1
Undoes
UndoOperation
Index: 0
Type: 12
WasModified: 0
WasOrder2: 0
EndUndoOperation
EndUndoes
Redoes
EndRedoes
EndUndoRedoHistory
Fore
SplineSet
477 108 m 0
 674 108 805 349 834 642 c 1
 802 752 717 851 586 851 c 0
 397 851 249 648 249 410 c 0
 249 228 338 108 477 108 c 0
476 -25 m 0
 225 -25 115 165 115 411 c 0
 115 733 300 980 563 980 c 0
 688 980 784 923 846 820 c 1
 846 837 847 867 847 892 c 0
 847 1188 741 1371 544 1371 c 0
 451 1371 359 1330 286 1279 c 1
 274 1413 l 1
 350 1465 454 1503 566 1503 c 0
 837 1503 985 1293 985 834 c 0
 985 412 835 -25 476 -25 c 0
EndSplineSet
Validated: 1
EndChar

